<?xml version="1.0" encoding="utf-8" standalone="no"?>
<!DOCTYPE svg PUBLIC "-//W3C//DTD SVG 1.1//EN"
  "http://www.w3.org/Graphics/SVG/1.1/DTD/svg11.dtd">
<!-- Created with matplotlib (https://matplotlib.org/) -->
<svg height="345.6pt" version="1.1" viewBox="0 0 460.8 345.6" width="460.8pt" xmlns="http://www.w3.org/2000/svg" xmlns:xlink="http://www.w3.org/1999/xlink">
 <metadata>
  <rdf:RDF xmlns:cc="http://creativecommons.org/ns#" xmlns:dc="http://purl.org/dc/elements/1.1/" xmlns:rdf="http://www.w3.org/1999/02/22-rdf-syntax-ns#">
   <cc:Work>
    <dc:type rdf:resource="http://purl.org/dc/dcmitype/StillImage"/>
    <dc:date>2021-09-21T19:53:24.508057</dc:date>
    <dc:format>image/svg+xml</dc:format>
    <dc:creator>
     <cc:Agent>
      <dc:title>Matplotlib v3.3.1, https://matplotlib.org/</dc:title>
     </cc:Agent>
    </dc:creator>
   </cc:Work>
  </rdf:RDF>
 </metadata>
 <defs>
  <style type="text/css">*{stroke-linecap:butt;stroke-linejoin:round;}</style>
 </defs>
 <g id="figure_1">
  <g id="patch_1">
   <path d="M 0 345.6 
L 460.8 345.6 
L 460.8 0 
L 0 0 
z
" style="fill:#ffffff;"/>
  </g>
  <g id="axes_1">
   <g id="patch_2">
    <path d="M 57.6 307.584 
L 414.72 307.584 
L 414.72 41.472 
L 57.6 41.472 
z
" style="fill:#ffffff;"/>
   </g>
   <g id="matplotlib.axis_1">
    <g id="xtick_1">
     <g id="line2d_1">
      <defs>
       <path d="M 0 0 
L 0 3.5 
" id="m02f72484fe" style="stroke:#000000;stroke-width:0.8;"/>
      </defs>
      <g>
       <use style="stroke:#000000;stroke-width:0.8;" x="57.6" xlink:href="#m02f72484fe" y="307.584"/>
      </g>
     </g>
     <g id="text_1">
      <!-- −2 -->
      <g transform="translate(50.228906 322.182437)scale(0.1 -0.1)">
       <defs>
        <path d="M 10.59375 35.5 
L 73.1875 35.5 
L 73.1875 27.203125 
L 10.59375 27.203125 
z
" id="DejaVuSans-8722"/>
        <path d="M 19.1875 8.296875 
L 53.609375 8.296875 
L 53.609375 0 
L 7.328125 0 
L 7.328125 8.296875 
Q 12.9375 14.109375 22.625 23.890625 
Q 32.328125 33.6875 34.8125 36.53125 
Q 39.546875 41.84375 41.421875 45.53125 
Q 43.3125 49.21875 43.3125 52.78125 
Q 43.3125 58.59375 39.234375 62.25 
Q 35.15625 65.921875 28.609375 65.921875 
Q 23.96875 65.921875 18.8125 64.3125 
Q 13.671875 62.703125 7.8125 59.421875 
L 7.8125 69.390625 
Q 13.765625 71.78125 18.9375 73 
Q 24.125 74.21875 28.421875 74.21875 
Q 39.75 74.21875 46.484375 68.546875 
Q 53.21875 62.890625 53.21875 53.421875 
Q 53.21875 48.921875 51.53125 44.890625 
Q 49.859375 40.875 45.40625 35.40625 
Q 44.1875 33.984375 37.640625 27.21875 
Q 31.109375 20.453125 19.1875 8.296875 
z
" id="DejaVuSans-50"/>
       </defs>
       <use xlink:href="#DejaVuSans-8722"/>
       <use x="83.789062" xlink:href="#DejaVuSans-50"/>
      </g>
     </g>
    </g>
    <g id="xtick_2">
     <g id="line2d_2">
      <g>
       <use style="stroke:#000000;stroke-width:0.8;" x="129.024" xlink:href="#m02f72484fe" y="307.584"/>
      </g>
     </g>
     <g id="text_2">
      <!-- 0 -->
      <g transform="translate(125.84275 322.182437)scale(0.1 -0.1)">
       <defs>
        <path d="M 31.78125 66.40625 
Q 24.171875 66.40625 20.328125 58.90625 
Q 16.5 51.421875 16.5 36.375 
Q 16.5 21.390625 20.328125 13.890625 
Q 24.171875 6.390625 31.78125 6.390625 
Q 39.453125 6.390625 43.28125 13.890625 
Q 47.125 21.390625 47.125 36.375 
Q 47.125 51.421875 43.28125 58.90625 
Q 39.453125 66.40625 31.78125 66.40625 
z
M 31.78125 74.21875 
Q 44.046875 74.21875 50.515625 64.515625 
Q 56.984375 54.828125 56.984375 36.375 
Q 56.984375 17.96875 50.515625 8.265625 
Q 44.046875 -1.421875 31.78125 -1.421875 
Q 19.53125 -1.421875 13.0625 8.265625 
Q 6.59375 17.96875 6.59375 36.375 
Q 6.59375 54.828125 13.0625 64.515625 
Q 19.53125 74.21875 31.78125 74.21875 
z
" id="DejaVuSans-48"/>
       </defs>
       <use xlink:href="#DejaVuSans-48"/>
      </g>
     </g>
    </g>
    <g id="xtick_3">
     <g id="line2d_3">
      <g>
       <use style="stroke:#000000;stroke-width:0.8;" x="200.448" xlink:href="#m02f72484fe" y="307.584"/>
      </g>
     </g>
     <g id="text_3">
      <!-- 2 -->
      <g transform="translate(197.26675 322.182437)scale(0.1 -0.1)">
       <use xlink:href="#DejaVuSans-50"/>
      </g>
     </g>
    </g>
    <g id="xtick_4">
     <g id="line2d_4">
      <g>
       <use style="stroke:#000000;stroke-width:0.8;" x="271.872" xlink:href="#m02f72484fe" y="307.584"/>
      </g>
     </g>
     <g id="text_4">
      <!-- 4 -->
      <g transform="translate(268.69075 322.182437)scale(0.1 -0.1)">
       <defs>
        <path d="M 37.796875 64.3125 
L 12.890625 25.390625 
L 37.796875 25.390625 
z
M 35.203125 72.90625 
L 47.609375 72.90625 
L 47.609375 25.390625 
L 58.015625 25.390625 
L 58.015625 17.1875 
L 47.609375 17.1875 
L 47.609375 0 
L 37.796875 0 
L 37.796875 17.1875 
L 4.890625 17.1875 
L 4.890625 26.703125 
z
" id="DejaVuSans-52"/>
       </defs>
       <use xlink:href="#DejaVuSans-52"/>
      </g>
     </g>
    </g>
    <g id="xtick_5">
     <g id="line2d_5">
      <g>
       <use style="stroke:#000000;stroke-width:0.8;" x="343.296" xlink:href="#m02f72484fe" y="307.584"/>
      </g>
     </g>
     <g id="text_5">
      <!-- 6 -->
      <g transform="translate(340.11475 322.182437)scale(0.1 -0.1)">
       <defs>
        <path d="M 33.015625 40.375 
Q 26.375 40.375 22.484375 35.828125 
Q 18.609375 31.296875 18.609375 23.390625 
Q 18.609375 15.53125 22.484375 10.953125 
Q 26.375 6.390625 33.015625 6.390625 
Q 39.65625 6.390625 43.53125 10.953125 
Q 47.40625 15.53125 47.40625 23.390625 
Q 47.40625 31.296875 43.53125 35.828125 
Q 39.65625 40.375 33.015625 40.375 
z
M 52.59375 71.296875 
L 52.59375 62.3125 
Q 48.875 64.0625 45.09375 64.984375 
Q 41.3125 65.921875 37.59375 65.921875 
Q 27.828125 65.921875 22.671875 59.328125 
Q 17.53125 52.734375 16.796875 39.40625 
Q 19.671875 43.65625 24.015625 45.921875 
Q 28.375 48.1875 33.59375 48.1875 
Q 44.578125 48.1875 50.953125 41.515625 
Q 57.328125 34.859375 57.328125 23.390625 
Q 57.328125 12.15625 50.6875 5.359375 
Q 44.046875 -1.421875 33.015625 -1.421875 
Q 20.359375 -1.421875 13.671875 8.265625 
Q 6.984375 17.96875 6.984375 36.375 
Q 6.984375 53.65625 15.1875 63.9375 
Q 23.390625 74.21875 37.203125 74.21875 
Q 40.921875 74.21875 44.703125 73.484375 
Q 48.484375 72.75 52.59375 71.296875 
z
" id="DejaVuSans-54"/>
       </defs>
       <use xlink:href="#DejaVuSans-54"/>
      </g>
     </g>
    </g>
    <g id="xtick_6">
     <g id="line2d_6">
      <g>
       <use style="stroke:#000000;stroke-width:0.8;" x="414.72" xlink:href="#m02f72484fe" y="307.584"/>
      </g>
     </g>
     <g id="text_6">
      <!-- 8 -->
      <g transform="translate(411.53875 322.182437)scale(0.1 -0.1)">
       <defs>
        <path d="M 31.78125 34.625 
Q 24.75 34.625 20.71875 30.859375 
Q 16.703125 27.09375 16.703125 20.515625 
Q 16.703125 13.921875 20.71875 10.15625 
Q 24.75 6.390625 31.78125 6.390625 
Q 38.8125 6.390625 42.859375 10.171875 
Q 46.921875 13.96875 46.921875 20.515625 
Q 46.921875 27.09375 42.890625 30.859375 
Q 38.875 34.625 31.78125 34.625 
z
M 21.921875 38.8125 
Q 15.578125 40.375 12.03125 44.71875 
Q 8.5 49.078125 8.5 55.328125 
Q 8.5 64.0625 14.71875 69.140625 
Q 20.953125 74.21875 31.78125 74.21875 
Q 42.671875 74.21875 48.875 69.140625 
Q 55.078125 64.0625 55.078125 55.328125 
Q 55.078125 49.078125 51.53125 44.71875 
Q 48 40.375 41.703125 38.8125 
Q 48.828125 37.15625 52.796875 32.3125 
Q 56.78125 27.484375 56.78125 20.515625 
Q 56.78125 9.90625 50.3125 4.234375 
Q 43.84375 -1.421875 31.78125 -1.421875 
Q 19.734375 -1.421875 13.25 4.234375 
Q 6.78125 9.90625 6.78125 20.515625 
Q 6.78125 27.484375 10.78125 32.3125 
Q 14.796875 37.15625 21.921875 38.8125 
z
M 18.3125 54.390625 
Q 18.3125 48.734375 21.84375 45.5625 
Q 25.390625 42.390625 31.78125 42.390625 
Q 38.140625 42.390625 41.71875 45.5625 
Q 45.3125 48.734375 45.3125 54.390625 
Q 45.3125 60.0625 41.71875 63.234375 
Q 38.140625 66.40625 31.78125 66.40625 
Q 25.390625 66.40625 21.84375 63.234375 
Q 18.3125 60.0625 18.3125 54.390625 
z
" id="DejaVuSans-56"/>
       </defs>
       <use xlink:href="#DejaVuSans-56"/>
      </g>
     </g>
    </g>
   </g>
   <g id="matplotlib.axis_2">
    <g id="ytick_1">
     <g id="line2d_7">
      <defs>
       <path d="M 0 0 
L -3.5 0 
" id="m75b18080d8" style="stroke:#000000;stroke-width:0.8;"/>
      </defs>
      <g>
       <use style="stroke:#000000;stroke-width:0.8;" x="57.6" xlink:href="#m75b18080d8" y="295.497427"/>
      </g>
     </g>
     <g id="text_7">
      <!-- −1.5 -->
      <g transform="translate(26.317187 299.296646)scale(0.1 -0.1)">
       <defs>
        <path d="M 12.40625 8.296875 
L 28.515625 8.296875 
L 28.515625 63.921875 
L 10.984375 60.40625 
L 10.984375 69.390625 
L 28.421875 72.90625 
L 38.28125 72.90625 
L 38.28125 8.296875 
L 54.390625 8.296875 
L 54.390625 0 
L 12.40625 0 
z
" id="DejaVuSans-49"/>
        <path d="M 10.6875 12.40625 
L 21 12.40625 
L 21 0 
L 10.6875 0 
z
" id="DejaVuSans-46"/>
        <path d="M 10.796875 72.90625 
L 49.515625 72.90625 
L 49.515625 64.59375 
L 19.828125 64.59375 
L 19.828125 46.734375 
Q 21.96875 47.46875 24.109375 47.828125 
Q 26.265625 48.1875 28.421875 48.1875 
Q 40.625 48.1875 47.75 41.5 
Q 54.890625 34.8125 54.890625 23.390625 
Q 54.890625 11.625 47.5625 5.09375 
Q 40.234375 -1.421875 26.90625 -1.421875 
Q 22.3125 -1.421875 17.546875 -0.640625 
Q 12.796875 0.140625 7.71875 1.703125 
L 7.71875 11.625 
Q 12.109375 9.234375 16.796875 8.0625 
Q 21.484375 6.890625 26.703125 6.890625 
Q 35.15625 6.890625 40.078125 11.328125 
Q 45.015625 15.765625 45.015625 23.390625 
Q 45.015625 31 40.078125 35.4375 
Q 35.15625 39.890625 26.703125 39.890625 
Q 22.75 39.890625 18.8125 39.015625 
Q 14.890625 38.140625 10.796875 36.28125 
z
" id="DejaVuSans-53"/>
       </defs>
       <use xlink:href="#DejaVuSans-8722"/>
       <use x="83.789062" xlink:href="#DejaVuSans-49"/>
       <use x="147.412109" xlink:href="#DejaVuSans-46"/>
       <use x="179.199219" xlink:href="#DejaVuSans-53"/>
      </g>
     </g>
    </g>
    <g id="ytick_2">
     <g id="line2d_8">
      <g>
       <use style="stroke:#000000;stroke-width:0.8;" x="57.6" xlink:href="#m75b18080d8" y="265.256249"/>
      </g>
     </g>
     <g id="text_8">
      <!-- −1.0 -->
      <g transform="translate(26.317187 269.055468)scale(0.1 -0.1)">
       <use xlink:href="#DejaVuSans-8722"/>
       <use x="83.789062" xlink:href="#DejaVuSans-49"/>
       <use x="147.412109" xlink:href="#DejaVuSans-46"/>
       <use x="179.199219" xlink:href="#DejaVuSans-48"/>
      </g>
     </g>
    </g>
    <g id="ytick_3">
     <g id="line2d_9">
      <g>
       <use style="stroke:#000000;stroke-width:0.8;" x="57.6" xlink:href="#m75b18080d8" y="235.01507"/>
      </g>
     </g>
     <g id="text_9">
      <!-- −0.5 -->
      <g transform="translate(26.317187 238.814289)scale(0.1 -0.1)">
       <use xlink:href="#DejaVuSans-8722"/>
       <use x="83.789062" xlink:href="#DejaVuSans-48"/>
       <use x="147.412109" xlink:href="#DejaVuSans-46"/>
       <use x="179.199219" xlink:href="#DejaVuSans-53"/>
      </g>
     </g>
    </g>
    <g id="ytick_4">
     <g id="line2d_10">
      <g>
       <use style="stroke:#000000;stroke-width:0.8;" x="57.6" xlink:href="#m75b18080d8" y="204.773892"/>
      </g>
     </g>
     <g id="text_10">
      <!-- 0.0 -->
      <g transform="translate(34.696875 208.573111)scale(0.1 -0.1)">
       <use xlink:href="#DejaVuSans-48"/>
       <use x="63.623047" xlink:href="#DejaVuSans-46"/>
       <use x="95.410156" xlink:href="#DejaVuSans-48"/>
      </g>
     </g>
    </g>
    <g id="ytick_5">
     <g id="line2d_11">
      <g>
       <use style="stroke:#000000;stroke-width:0.8;" x="57.6" xlink:href="#m75b18080d8" y="174.532714"/>
      </g>
     </g>
     <g id="text_11">
      <!-- 0.5 -->
      <g transform="translate(34.696875 178.331932)scale(0.1 -0.1)">
       <use xlink:href="#DejaVuSans-48"/>
       <use x="63.623047" xlink:href="#DejaVuSans-46"/>
       <use x="95.410156" xlink:href="#DejaVuSans-53"/>
      </g>
     </g>
    </g>
    <g id="ytick_6">
     <g id="line2d_12">
      <g>
       <use style="stroke:#000000;stroke-width:0.8;" x="57.6" xlink:href="#m75b18080d8" y="144.291535"/>
      </g>
     </g>
     <g id="text_12">
      <!-- 1.0 -->
      <g transform="translate(34.696875 148.090754)scale(0.1 -0.1)">
       <use xlink:href="#DejaVuSans-49"/>
       <use x="63.623047" xlink:href="#DejaVuSans-46"/>
       <use x="95.410156" xlink:href="#DejaVuSans-48"/>
      </g>
     </g>
    </g>
    <g id="ytick_7">
     <g id="line2d_13">
      <g>
       <use style="stroke:#000000;stroke-width:0.8;" x="57.6" xlink:href="#m75b18080d8" y="114.050357"/>
      </g>
     </g>
     <g id="text_13">
      <!-- 1.5 -->
      <g transform="translate(34.696875 117.849576)scale(0.1 -0.1)">
       <use xlink:href="#DejaVuSans-49"/>
       <use x="63.623047" xlink:href="#DejaVuSans-46"/>
       <use x="95.410156" xlink:href="#DejaVuSans-53"/>
      </g>
     </g>
    </g>
    <g id="ytick_8">
     <g id="line2d_14">
      <g>
       <use style="stroke:#000000;stroke-width:0.8;" x="57.6" xlink:href="#m75b18080d8" y="83.809178"/>
      </g>
     </g>
     <g id="text_14">
      <!-- 2.0 -->
      <g transform="translate(34.696875 87.608397)scale(0.1 -0.1)">
       <use xlink:href="#DejaVuSans-50"/>
       <use x="63.623047" xlink:href="#DejaVuSans-46"/>
       <use x="95.410156" xlink:href="#DejaVuSans-48"/>
      </g>
     </g>
    </g>
    <g id="ytick_9">
     <g id="line2d_15">
      <g>
       <use style="stroke:#000000;stroke-width:0.8;" x="57.6" xlink:href="#m75b18080d8" y="53.568"/>
      </g>
     </g>
     <g id="text_15">
      <!-- 2.5 -->
      <g transform="translate(34.696875 57.367219)scale(0.1 -0.1)">
       <use xlink:href="#DejaVuSans-50"/>
       <use x="63.623047" xlink:href="#DejaVuSans-46"/>
       <use x="95.410156" xlink:href="#DejaVuSans-53"/>
      </g>
     </g>
    </g>
   </g>
   <g id="line2d_16">
    <path clip-path="url(#pb958871260)" d="M 129.024 204.773892 
L 129.024 204.773892 
" style="fill:none;stroke:#0000ff;stroke-linecap:square;stroke-width:1.5;"/>
   </g>
   <g id="line2d_17">
    <defs>
     <path d="M 0 3 
C 0.795609 3 1.55874 2.683901 2.12132 2.12132 
C 2.683901 1.55874 3 0.795609 3 0 
C 3 -0.795609 2.683901 -1.55874 2.12132 -2.12132 
C 1.55874 -2.683901 0.795609 -3 0 -3 
C -0.795609 -3 -1.55874 -2.683901 -2.12132 -2.12132 
C -2.683901 -1.55874 -3 -0.795609 -3 0 
C -3 0.795609 -2.683901 1.55874 -2.12132 2.12132 
C -1.55874 2.683901 -0.795609 3 0 3 
z
" id="m248e2ea5c1" style="stroke:#1f77b4;"/>
    </defs>
    <g clip-path="url(#pb958871260)">
     <use style="fill:#1f77b4;stroke:#1f77b4;" x="129.024" xlink:href="#m248e2ea5c1" y="204.773892"/>
    </g>
   </g>
   <g id="line2d_18">
    <defs>
     <path d="M -3 3 
L 3 3 
L 3 -3 
L -3 -3 
z
" id="m2be4889a8f" style="stroke:#ff7f0e;stroke-linejoin:miter;"/>
    </defs>
    <g clip-path="url(#pb958871260)">
     <use style="fill:#ff7f0e;stroke:#ff7f0e;stroke-linejoin:miter;" x="129.024" xlink:href="#m2be4889a8f" y="204.773892"/>
    </g>
   </g>
   <g id="line2d_19">
    <path clip-path="url(#pb958871260)" d="M 129.024 174.532714 
L 133.463414 175.481035 
L 137.625082 178.253003 
L 141.252275 182.642472 
L 144.126765 188.342995 
L 146.080776 194.98722 
L 147.003453 202.17952 
L 146.84346 209.515211 
L 145.609649 216.588238 
L 143.370972 222.995379 
L 140.255419 228.346684 
L 136.44649 232.288813 
L 132.175233 234.540718 
L 127.706585 234.932658 
L 123.320542 233.434351 
L 119.290756 230.160359 
L 115.864227 225.350296 
L 113.245332 219.332507 
L 111.585577 212.485492 
L 110.978472 205.208915 
L 111.457689 197.90832 
L 112.996674 190.989462 
L 115.508939 184.853249 
L 118.849652 179.881928 
L 122.820267 176.411686 
L 127.178101 174.694703 
L 131.651654 174.8618 
L 135.960551 176.90006 
L 139.837011 180.655127 
L 143.045152 185.857158 
L 145.395331 192.159321 
L 146.752741 199.174502 
L 147.041363 206.500291 
L 146.245218 213.730716 
L 144.40854 220.460686 
L 141.635228 226.29277 
L 138.086568 230.854806 
L 133.975332 233.831117 
L 129.554509 235.00172 
L 125.100416 234.276719 
L 120.891926 231.712022 
L 117.189263 227.499455 
L 114.215947 221.935669 
L 112.146154 215.382737 
L 111.097662 208.234224 
L 111.128905 200.894313 
L 112.238154 193.769089 
L 114.363536 187.262451 
L 117.383927 181.766855 
L 121.122079 177.641643 
L 125.351969 175.178505 
L 129.811772 174.562157 
L 134.222173 175.840164 
L 138.307655 178.914512 
L 141.817129 183.558679 
L 144.540529 189.452714 
L 146.319745 196.22228 
L 147.054266 203.46916 
L 146.703308 210.788096 
L 145.286305 217.773175 
L 142.8827 224.022437 
L 139.630589 229.150268 
L 135.722555 232.813187 
L 131.396751 234.746985 
L 126.922239 234.804911 
L 122.579471 232.982484 
L 118.638797 229.418298 
L 115.34073 224.370437 
L 112.88094 218.178695 
L 111.400996 211.227002 
L 110.983971 203.916797 
L 111.652964 196.653921 
L 113.370852 189.843787 
L 116.040724 183.885383 
L 119.507861 179.155241 
L 123.565108 175.977703 
L 127.963451 174.586096 
L 132.428301 175.086986 
L 136.67995 177.441695 
L 140.45494 181.473163 
L 143.524637 186.895108 
L 145.708562 193.351213 
L 146.882049 200.450275 
L 146.979582 207.788724 
L 145.995762 214.960487 
L 143.985373 221.561109 
L 141.062631 227.195929 
L 137.398433 231.500096 
L 133.213592 234.171849 
L 128.766567 235.01193 
L 124.335686 233.955614 
L 120.198038 231.084122 
L 116.608571 226.610373 
L 113.782883 220.845363 
L 111.885614 214.158835 
L 111.024247 206.947326 
L 111.246674 199.615729 
L 112.540584 192.570064 
L 114.833592 186.213177 
L 117.994397 180.933684 
L 121.836502 177.08183 
L 126.12649 174.933299 
L 130.598012 174.650414 
L 134.970848 176.25504 
L 138.972355 179.624689 
L 142.3576 184.513583 
L 144.925017 190.589503 
L 146.526332 197.472079 
L 147.071437 204.76102 
L 146.530116 212.050672 
L 144.932375 218.935373 
L 142.368113 225.014795 
L 138.985408 229.908459 
L 134.985652 233.283916 
L 130.613652 234.895015 
L 126.141985 234.618786 
L 121.850882 232.476578 
L 118.006777 228.63026 
L 114.843232 223.355182 
L 112.546924 217.0014 
L 111.249357 209.957445 
L 111.023125 202.626141 
L 111.880748 195.413504 
L 113.774545 188.72444 
L 116.597239 182.955538 
L 120.184382 178.476683 
L 124.320536 175.599143 
L 128.750867 174.536247 
L 133.198327 175.369718 
L 137.384554 178.035336 
L 141.050987 182.33427 
L 143.976654 187.965045 
L 145.99047 194.562968 
L 146.978012 201.733437 
L 146.884289 209.072011 
L 145.714487 216.172617 
L 143.533915 222.631665 
L 140.467034 228.057879 
L 136.694139 232.094765 
L 132.443713 234.455726 
L 127.979126 234.963259 
L 123.58006 233.578173 
L 119.521164 230.406543 
L 116.051571 225.68131 
L 113.378606 219.726565 
L 111.657183 212.91872 
L 110.98442 205.656721 
L 111.39765 198.345973 
L 112.873985 191.392321 
L 115.33056 185.197235 
L 118.626004 180.144743 
L 122.564827 176.574854 
L 126.906647 174.746009 
L 131.381188 174.797274 
L 135.707995 176.724683 
L 139.617932 180.381954 
L 142.872704 185.505225 
L 145.279553 191.751222 
L 146.700183 198.734425 
L 147.05494 206.052902 
L 146.324181 213.300742 
L 144.54848 220.07268 
L 141.82814 225.970453 
L 138.32108 230.619595 
L 134.237195 233.699899 
L 129.827459 234.984448 
L 125.367337 234.374734 
L 121.136168 231.917811 
L 117.395874 227.797957 
L 114.372629 222.306556 
L 112.243869 215.802781 
L 111.130922 208.679017 
L 111.095869 201.339148 
L 112.140649 194.189257 
L 114.20704 187.633545 
L 117.177466 182.065638 
L 120.87794 177.847776 
L 125.085097 175.276903 
L 129.538813 174.545277 
L 133.960244 175.709318 
L 138.073026 178.679626 
L 141.624054 183.236621 
L 144.400395 189.06489 
L 146.240567 195.792406 
L 147.040465 203.021787 
L 146.755647 210.347952 
L 145.401879 217.364926 
L 143.054972 223.670274 
L 139.849533 228.876793 
L 135.975024 232.637453 
L 131.667186 234.68207 
L 127.19372 234.855827 
L 122.834995 233.145292 
L 118.862577 229.680806 
L 115.519282 224.714187 
L 113.003831 218.581398 
L 111.461254 211.664582 
L 110.978247 204.364613 
L 111.581574 197.087243 
L 113.237774 190.23802 
L 113.237774 190.23802 
" style="fill:none;stroke:#0000ff;stroke-linecap:square;stroke-width:1.5;"/>
   </g>
   <g id="line2d_20">
    <defs>
     <path d="M 0 3 
C 0.795609 3 1.55874 2.683901 2.12132 2.12132 
C 2.683901 1.55874 3 0.795609 3 0 
C 3 -0.795609 2.683901 -1.55874 2.12132 -2.12132 
C 1.55874 -2.683901 0.795609 -3 0 -3 
C -0.795609 -3 -1.55874 -2.683901 -2.12132 -2.12132 
C -2.683901 -1.55874 -3 -0.795609 -3 0 
C -3 0.795609 -2.683901 1.55874 -2.12132 2.12132 
C -1.55874 2.683901 -0.795609 3 0 3 
z
" id="m447ebf160d" style="stroke:#2ca02c;"/>
    </defs>
    <g clip-path="url(#pb958871260)">
     <use style="fill:#2ca02c;stroke:#2ca02c;" x="129.024" xlink:href="#m447ebf160d" y="174.532714"/>
    </g>
   </g>
   <g id="line2d_21">
    <defs>
     <path d="M -3 3 
L 3 3 
L 3 -3 
L -3 -3 
z
" id="m7bee6f996b" style="stroke:#d62728;stroke-linejoin:miter;"/>
    </defs>
    <g clip-path="url(#pb958871260)">
     <use style="fill:#d62728;stroke:#d62728;stroke-linejoin:miter;" x="113.237774" xlink:href="#m7bee6f996b" y="190.23802"/>
    </g>
   </g>
   <g id="line2d_22">
    <path clip-path="url(#pb958871260)" d="M 129.024 144.291535 
L 137.903046 146.180837 
L 146.232814 151.623265 
L 153.526773 160.02439 
L 159.402281 170.613678 
L 163.591777 182.636789 
L 165.931047 195.464102 
L 166.339033 208.598155 
L 164.802417 221.608519 
L 161.372637 234.036436 
L 156.17667 245.311797 
L 149.436555 254.725354 
L 141.486517 261.493599 
L 132.772886 264.922376 
L 123.825456 264.613141 
L 115.201708 260.603201 
L 107.421064 253.351962 
L 100.912726 243.58223 
L 95.992021 232.074269 
L 92.864103 219.516313 
L 91.64244 206.456461 
L 92.367529 193.342356 
L 95.015599 180.609121 
L 99.493354 168.772715 
L 105.621086 158.486055 
L 113.112849 150.516282 
L 121.567543 145.619703 
L 130.484854 144.342155 
L 139.310924 146.837036 
L 147.502771 152.809095 
L 154.588758 161.620696 
L 160.204975 172.492373 
L 164.101903 184.685489 
L 166.130258 197.593836 
L 166.220795 210.736636 
L 164.370564 223.685535 
L 160.642246 235.968365 
L 155.176864 246.992179 
L 148.213832 256.028414 
L 140.106299 262.294777 
L 131.31696 265.13149 
L 122.384463 264.204803 
L 113.864492 259.626253 
L 106.264678 251.911665 
L 99.99647 241.806787 
L 95.356424 230.08458 
L 92.533333 217.411026 
L 91.627679 204.313355 
L 92.669251 191.230525 
L 95.623686 178.604917 
L 100.38498 166.972576 
L 106.757376 157.009168 
L 114.436272 149.491262 
L 123.002523 145.155434 
L 131.943265 144.493841 
L 140.701822 147.586219 
L 148.743159 154.07053 
L 155.61151 163.27152 
L 160.961854 174.405798 
L 164.562304 186.752866 
L 166.277938 199.729669 
L 166.050949 212.870077 
L 163.888736 225.745166 
L 159.865571 237.867226 
L 154.137086 248.619996 
L 146.960508 257.257763 
L 138.707822 263.00427 
L 129.857195 265.239777 
L 120.954518 263.698694 
L 112.551895 258.565628 
L 105.14386 250.407937 
L 99.123627 239.98871 
L 94.769202 228.069975 
L 92.253564 215.29468 
L 91.664694 202.170624 
L 93.021859 189.130595 
L 96.27989 176.626721 
L 101.31958 165.216441 
L 107.92858 155.597198 
L 115.78345 148.551167 
L 124.447544 144.789544 
L 133.396804 144.746098 
L 142.073527 148.426071 
L 149.952196 155.404251 
L 156.593757 164.973467 
L 161.672115 176.351079 
L 164.972551 188.83669 
L 166.373958 201.869769 
L 165.829633 214.996625 
L 163.357373 227.785131 
L 159.043442 239.730088 
L 153.058643 250.191819 
L 145.678399 258.410101 
L 137.293328 263.619851 
L 128.396029 265.246882 
L 119.537959 263.096455 
L 111.265897 257.424354 
L 104.060102 248.844247 
L 98.295192 238.131139 
L 94.23093 226.032956 
L 92.025042 213.169249 
L 91.75346 200.030071 
L 93.42504 187.044638 
L 96.983551 174.677196 
L 102.296048 163.50759 
L 109.133081 154.253605 
L 117.152289 147.698792 
L 125.900207 144.523236 
L 134.843046 145.098079 
L 143.423875 149.354021 
L 151.128175 156.806839 
L 157.534303 166.723172 
L 162.335023 178.325422 
L 165.332277 190.934794 
L 166.418239 204.012312 
L 165.557041 217.114372 
L 162.776985 229.803041 
L 158.176769 241.553907 
L 151.942931 251.704182 
L 144.369408 259.482239 
L 135.865111 264.139561 
L 126.93591 265.15278 
L 118.137089 262.400011 
L 110.008413 256.205608 
L 103.014808 247.224067 
L 97.512081 236.237135 
L 93.742117 223.975927 
L 91.847961 211.036644 
L 91.893897 197.893509 
L 93.87843 184.9748 
L 97.733942 172.759109 
L 103.3132 161.849368 
L 110.369188 152.981805 
L 118.540641 146.936726 
L 127.358097 144.357392 
L 136.279594 145.548628 
L 144.750771 150.367309 
L 152.269472 158.274842 
L 158.432035 168.517351 
L 162.949907 180.326156 
L 165.641161 193.045102 
L 166.410743 206.155499 
L 165.233408 219.221358 
L 162.148132 231.796405 
L 157.266532 243.335546 
L 150.79143 253.153607 
L 143.035509 260.471121 
L 134.42551 264.561717 
L 125.47928 264.957785 
L 116.754157 261.611549 
L 108.781272 254.912675 
L 102.009304 245.550835 
L 96.775137 234.309649 
L 93.303221 221.901189 
L 91.722472 208.898731 
L 92.085889 195.76278 
L 94.381612 182.923315 
L 98.530268 170.875336 
L 104.369773 160.24518 
L 111.635124 151.785146 
L 119.946293 146.267333 
L 128.818778 144.292567 
L 137.704084 146.096276 
L 146.052187 151.462989 
L 153.37455 159.804785 
L 159.285916 170.352803 
L 163.516161 182.350715 
L 165.898932 195.16561 
L 166.351478 208.297535 
L 164.859018 221.315559 
L 161.471439 233.762628 
L 156.313788 245.071779 
L 149.605703 254.536623 
L 141.67875 261.373853 
L 132.976897 264.88494 
L 124.028569 264.662544 
L 115.391358 260.7335 
L 107.586229 253.548923 
L 101.04483 243.82794 
L 96.085136 232.351526 
L 92.914642 219.81095 
L 91.648681 206.757341 
L 92.329271 193.63976 
L 94.934116 180.892513 
L 99.371665 169.028861 
L 105.46442 158.698473 
L 112.929036 150.666884 
L 121.366982 145.692728 
L 130.279807 144.328977 
L 139.114192 146.739262 
L 147.326171 152.637966 
L 154.441953 161.393192 
L 160.094986 172.226418 
L 164.03324 184.396641 
L 166.105368 197.294374 
L 166.240491 210.436615 
L 164.434206 223.394874 
L 160.747595 235.699004 
L 155.319676 246.759298 
L 148.387394 255.849786 
L 148.387394 255.849786 
" style="fill:none;stroke:#0000ff;stroke-linecap:square;stroke-width:1.5;"/>
   </g>
   <g id="line2d_23">
    <defs>
     <path d="M 0 3 
C 0.795609 3 1.55874 2.683901 2.12132 2.12132 
C 2.683901 1.55874 3 0.795609 3 0 
C 3 -0.795609 2.683901 -1.55874 2.12132 -2.12132 
C 1.55874 -2.683901 0.795609 -3 0 -3 
C -0.795609 -3 -1.55874 -2.683901 -2.12132 -2.12132 
C -2.683901 -1.55874 -3 -0.795609 -3 0 
C -3 0.795609 -2.683901 1.55874 -2.12132 2.12132 
C -1.55874 2.683901 -0.795609 3 0 3 
z
" id="mbffb9026a0" style="stroke:#9467bd;"/>
    </defs>
    <g clip-path="url(#pb958871260)">
     <use style="fill:#9467bd;stroke:#9467bd;" x="129.024" xlink:href="#mbffb9026a0" y="144.291535"/>
    </g>
   </g>
   <g id="line2d_24">
    <defs>
     <path d="M -3 3 
L 3 3 
L 3 -3 
L -3 -3 
z
" id="mdf4873b4ed" style="stroke:#8c564b;stroke-linejoin:miter;"/>
    </defs>
    <g clip-path="url(#pb958871260)">
     <use style="fill:#8c564b;stroke:#8c564b;stroke-linejoin:miter;" x="148.387394" xlink:href="#mdf4873b4ed" y="255.849786"/>
    </g>
   </g>
   <g id="line2d_25">
    <path clip-path="url(#pb958871260)" d="M 129.024 114.050357 
L 142.343116 116.866029 
L 154.853673 124.77968 
L 165.89145 136.463695 
L 175.011793 150.38743 
L 181.979739 165.313851 
L 186.708034 180.497221 
L 189.185525 195.636637 
L 189.422124 210.719507 
L 187.419343 225.841654 
L 183.167495 241.028436 
L 176.669494 256.054574 
L 167.990834 270.277895 
L 157.329177 282.558959 
L 145.08157 291.396927 
L 131.86902 295.369447 
L 118.480054 293.735588 
L 105.736527 286.807976 
L 94.342458 275.791326 
L 84.790697 262.223149 
L 77.356442 247.429561 
L 72.152002 232.262462 
L 69.199253 217.105691 
L 68.48938 202.017903 
L 70.017969 186.911243 
L 73.793423 171.730502 
L 79.818806 156.633015 
L 88.047204 142.1615 
L 98.31509 129.352137 
L 110.271774 119.655819 
L 123.341983 114.561089 
L 136.763467 114.998503 
L 149.708132 120.883977 
L 161.436441 131.162429 
L 171.407528 144.31482 
L 179.303343 158.937576 
L 184.983167 174.071796 
L 188.411693 189.243947 
L 189.595066 204.341216 
L 188.540229 219.435496 
L 185.240872 234.603799 
L 179.689958 249.748811 
L 171.918868 264.421968 
L 162.06028 277.693375 
L 150.420376 288.179153 
L 137.527055 294.352637 
L 124.110682 295.115608 
L 110.998369 290.321495 
L 98.960083 280.851413 
L 88.583707 268.178754 
L 80.232354 253.76979 
L 74.07849 238.689127 
L 70.173766 223.505995 
L 68.516531 208.395391 
L 69.097942 193.309409 
L 71.921655 178.157246 
L 76.996925 162.984251 
L 84.305047 148.151062 
L 93.74084 134.480607 
L 105.0403 123.275836 
L 117.723672 116.07481 
L 131.097353 114.118318 
L 144.342407 117.779906 
L 156.664231 126.373394 
L 167.429801 138.499306 
L 176.229248 152.6466 
L 182.85509 167.648673 
L 187.236251 182.835598 
L 189.367813 197.962321 
L 189.259639 213.044698 
L 186.911035 228.179342 
L 182.312033 243.36476 
L 175.471312 258.321313 
L 166.469897 272.331704 
L 155.532329 284.18466 
L 143.090252 292.355473 
L 129.796462 295.488 
L 116.454726 292.991022 
L 103.877896 285.339087 
L 92.741367 273.829194 
L 83.50285 259.996229 
L 76.407947 245.102382 
L 71.550382 229.922006 
L 68.943962 214.777809 
L 68.578934 199.694083 
L 70.452972 184.57638 
L 74.575511 169.390438 
L 80.945473 154.342326 
L 89.502715 140.046762 
L 100.05916 127.615607 
L 112.230493 118.538017 
L 125.407904 114.257124 
L 138.809405 115.56728 
L 151.61074 122.217341 
L 163.097794 133.040642 
L 172.764633 146.502099 
L 180.324675 161.253289 
L 185.658229 176.413273 
L 188.740053 191.574507 
L 189.578404 206.66444 
L 188.178429 221.767383 
L 184.532224 236.945262 
L 178.635457 252.057821 
L 170.530535 266.588462 
L 160.37228 279.529649 
L 148.499103 289.447122 
L 135.473543 294.83926 
L 122.049722 294.727689 
L 109.056184 289.133861 
L 97.241256 279.067919 
L 87.158701 266.039258 
L 79.138603 251.470068 
L 73.329967 236.34816 
L 69.772238 221.172485 
L 68.460302 206.071941 
L 69.386626 190.98035 
L 72.556845 175.816164 
L 77.978761 160.661796 
L 85.624709 145.9413 
L 95.369806 132.555514 
L 106.919562 121.867602 
L 119.759105 115.409891 
L 133.167596 114.321875 
L 146.319439 118.812326 
L 158.437381 128.051134 
L 168.921064 140.582147 
L 177.394828 154.925036 
L 183.677022 169.987035 
L 187.711035 185.172033 
L 189.49695 200.286789 
L 189.043986 215.371311 
L 186.34927 230.518767 
L 181.403216 245.696512 
L 174.221554 260.566601 
L 164.902582 274.334984 
L 153.699311 285.722656 
L 141.078403 293.192833 
L 127.72275 295.470663 
L 114.44785 292.122375 
L 102.053911 283.778167 
L 91.185771 271.812515 
L 82.266201 257.745128 
L 75.512729 242.769301 
L 71.002256 227.582991 
L 68.741874 212.451591 
L 68.721625 197.369338 
L 70.941381 182.239421 
L 75.411077 167.052828 
L 82.124328 152.068481 
L 91.006093 137.975473 
L 101.842037 125.958738 
L 114.213462 117.535414 
L 127.479238 114.088079 
L 140.840872 116.264723 
L 153.481727 123.650495 
L 164.715499 134.981057 
L 174.071398 148.719028 
L 181.292971 163.577767 
L 186.279777 178.754132 
L 189.015166 193.903081 
L 189.508634 208.988024 
L 187.7633 224.101451 
L 183.770058 239.285921 
L 177.528314 254.35401 
L 169.09309 268.718119 
L 158.643116 281.294329 
L 146.550083 290.606609 
L 133.410426 295.193144 
L 119.999149 294.207564 
L 107.142385 287.839064 
L 95.564015 277.214327 
L 85.783025 263.864112 
L 78.097571 249.15822 
L 72.634968 234.006654 
L 69.424029 218.841144 
L 68.457181 203.748739 
L 69.728573 188.649256 
L 73.245555 173.474652 
L 79.013582 158.348692 
L 86.994538 143.762264 
L 97.042056 130.694076 
L 108.829863 120.560564 
L 121.808257 114.87438 
L 135.231641 114.660029 
L 148.271557 119.958736 
L 160.171272 129.807024 
L 170.364219 142.707167 
L 178.508133 157.219525 
L 184.445473 172.327513 
L 188.132434 187.50634 
L 189.572965 202.610429 
L 188.775133 217.69965 
L 185.734017 232.859495 
L 180.441172 248.021859 
L 172.920759 262.786728 
L 163.290112 276.282319 
L 151.832205 287.167158 
L 139.048845 293.905195 
L 125.650997 295.31754 
L 112.46222 291.133608 
L 112.46222 291.133608 
" style="fill:none;stroke:#0000ff;stroke-linecap:square;stroke-width:1.5;"/>
   </g>
   <g id="line2d_26">
    <defs>
     <path d="M 0 3 
C 0.795609 3 1.55874 2.683901 2.12132 2.12132 
C 2.683901 1.55874 3 0.795609 3 0 
C 3 -0.795609 2.683901 -1.55874 2.12132 -2.12132 
C 1.55874 -2.683901 0.795609 -3 0 -3 
C -0.795609 -3 -1.55874 -2.683901 -2.12132 -2.12132 
C -2.683901 -1.55874 -3 -0.795609 -3 0 
C -3 0.795609 -2.683901 1.55874 -2.12132 2.12132 
C -1.55874 2.683901 -0.795609 3 0 3 
z
" id="me7efd0049a" style="stroke:#e377c2;"/>
    </defs>
    <g clip-path="url(#pb958871260)">
     <use style="fill:#e377c2;stroke:#e377c2;" x="129.024" xlink:href="#me7efd0049a" y="114.050357"/>
    </g>
   </g>
   <g id="line2d_27">
    <defs>
     <path d="M -3 3 
L 3 3 
L 3 -3 
L -3 -3 
z
" id="m08d1141328" style="stroke:#7f7f7f;stroke-linejoin:miter;"/>
    </defs>
    <g clip-path="url(#pb958871260)">
     <use style="fill:#7f7f7f;stroke:#7f7f7f;stroke-linejoin:miter;" x="112.46222" xlink:href="#m08d1141328" y="291.133608"/>
    </g>
   </g>
   <g id="line2d_28">
    <path clip-path="url(#pb958871260)" d="M 129.024 83.809178 
L 146.783837 87.529493 
L 163.493791 97.62485 
L 178.385759 111.565774 
L 191.09287 126.682039 
L 201.594572 141.058735 
L 210.084647 153.702169 
L 216.849754 164.301786 
L 226.38331 179.832274 
L 240.009913 202.730215 
L 241.221072 204.745354 
L 241.277513 204.667057 
L 245.656846 197.258547 
L 256.755832 178.66347 
L 266.728004 162.480206 
L 273.791632 151.497113 
L 282.636516 138.490777 
L 293.539317 123.875204 
L 306.664136 108.804147 
L 321.935044 95.365161 
L 338.910326 86.292955 
L 356.754216 83.941823 
L 374.392634 88.992055 
L 390.810219 100.018412 
L 405.310693 114.365848 
L 417.599784 129.460448 
L 427.707473 143.564516 
L 435.852921 155.835131 
L 442.330073 166.054436 
L 451.442812 180.950984 
L 461.8 198.338427 
L 461.8 198.338427 
" style="fill:none;stroke:#0000ff;stroke-linecap:square;stroke-width:1.5;"/>
   </g>
   <g id="line2d_29">
    <defs>
     <path d="M 0 3 
C 0.795609 3 1.55874 2.683901 2.12132 2.12132 
C 2.683901 1.55874 3 0.795609 3 0 
C 3 -0.795609 2.683901 -1.55874 2.12132 -2.12132 
C 1.55874 -2.683901 0.795609 -3 0 -3 
C -0.795609 -3 -1.55874 -2.683901 -2.12132 -2.12132 
C -2.683901 -1.55874 -3 -0.795609 -3 0 
C -3 0.795609 -2.683901 1.55874 -2.12132 2.12132 
C -1.55874 2.683901 -0.795609 3 0 3 
z
" id="mb547f82e6a" style="stroke:#bcbd22;"/>
    </defs>
    <g clip-path="url(#pb958871260)">
     <use style="fill:#bcbd22;stroke:#bcbd22;" x="129.024" xlink:href="#mb547f82e6a" y="83.809178"/>
    </g>
   </g>
   <g id="line2d_30">
    <defs>
     <path d="M -3 3 
L 3 3 
L 3 -3 
L -3 -3 
z
" id="ma50f2d326e" style="stroke:#17becf;stroke-linejoin:miter;"/>
    </defs>
    <g clip-path="url(#pb958871260)">
     <use style="fill:#17becf;stroke:#17becf;stroke-linejoin:miter;" x="689.9698" xlink:href="#ma50f2d326e" y="204.788163"/>
    </g>
   </g>
   <g id="line2d_31">
    <path clip-path="url(#pb958871260)" d="M 129.024 53.568 
L 151.225421 58.164325 
L 172.158797 70.072511 
L 191.042528 85.027206 
L 207.746482 98.8703 
L 222.657389 108.874468 
L 236.458605 113.693716 
L 249.962413 112.855097 
L 264.008877 106.432996 
L 279.385251 95.108298 
L 296.708597 80.583667 
L 316.23667 66.047645 
L 337.652195 55.902966 
L 359.996227 53.978937 
L 381.941956 61.073998 
L 402.324646 74.35839 
L 420.553914 89.363988 
L 436.673451 102.291275 
L 451.179026 110.862514 
L 461.8 113.339363 
L 461.8 113.339363 
" style="fill:none;stroke:#0000ff;stroke-linecap:square;stroke-width:1.5;"/>
   </g>
   <g id="line2d_32">
    <g clip-path="url(#pb958871260)">
     <use style="fill:#1f77b4;stroke:#1f77b4;" x="129.024" xlink:href="#m248e2ea5c1" y="53.568"/>
    </g>
   </g>
   <g id="line2d_33">
    <g clip-path="url(#pb958871260)">
     <use style="fill:#ff7f0e;stroke:#ff7f0e;stroke-linejoin:miter;" x="3635.869146" xlink:href="#m2be4889a8f" y="102.329123"/>
    </g>
   </g>
   <g id="patch_3">
    <path d="M 57.6 307.584 
L 57.6 41.472 
" style="fill:none;stroke:#000000;stroke-linecap:square;stroke-linejoin:miter;stroke-width:0.8;"/>
   </g>
   <g id="patch_4">
    <path d="M 414.72 307.584 
L 414.72 41.472 
" style="fill:none;stroke:#000000;stroke-linecap:square;stroke-linejoin:miter;stroke-width:0.8;"/>
   </g>
   <g id="patch_5">
    <path d="M 57.6 307.584 
L 414.72 307.584 
" style="fill:none;stroke:#000000;stroke-linecap:square;stroke-linejoin:miter;stroke-width:0.8;"/>
   </g>
   <g id="patch_6">
    <path d="M 57.6 41.472 
L 414.72 41.472 
" style="fill:none;stroke:#000000;stroke-linecap:square;stroke-linejoin:miter;stroke-width:0.8;"/>
   </g>
  </g>
 </g>
 <defs>
  <clipPath id="pb958871260">
   <rect height="266.112" width="357.12" x="57.6" y="41.472"/>
  </clipPath>
 </defs>
</svg>
