<?xml version="1.0" encoding="utf-8" standalone="no"?>
<!DOCTYPE svg PUBLIC "-//W3C//DTD SVG 1.1//EN"
  "http://www.w3.org/Graphics/SVG/1.1/DTD/svg11.dtd">
<!-- Created with matplotlib (http://matplotlib.org/) -->
<svg height="432pt" version="1.1" viewBox="0 0 576 432" width="576pt" xmlns="http://www.w3.org/2000/svg" xmlns:xlink="http://www.w3.org/1999/xlink">
 <defs>
  <style type="text/css">
*{stroke-linecap:butt;stroke-linejoin:round;stroke-miterlimit:100000;}
  </style>
 </defs>
 <g id="figure_1">
  <g id="patch_1">
   <path d="M 0 432 
L 576 432 
L 576 0 
L 0 0 
z
" style="fill:#ffffff;"/>
  </g>
  <g id="axes_1">
   <g id="patch_2">
    <path d="M 72 388.8 
L 518.4 388.8 
L 518.4 43.2 
L 72 43.2 
z
" style="fill:#ffffff;"/>
   </g>
   <g id="PolyCollection_1">
    <defs>
     <path d="M 85.527273 -152.496 
L 85.527273 -155.001315 
L 90.036364 -155.001315 
L 94.545455 -155.001315 
L 99.054545 -155.001315 
L 103.563636 -155.001315 
L 108.072727 -155.001315 
L 112.581818 -155.001315 
L 117.090909 -155.001315 
L 121.6 -155.001315 
L 126.109091 -155.001315 
L 130.618182 -155.001315 
L 135.127273 -155.001315 
L 139.636364 -155.001315 
L 144.145455 -155.001315 
L 144.145455 -153.018157 
L 144.145455 -153.018157 
L 139.636364 -149.878718 
L 135.127273 -146.3524 
L 130.618182 -142.44041 
L 126.109091 -138.167305 
L 121.6 -133.596 
L 117.090909 -128.851636 
L 112.581818 -124.16 
L 108.072727 -119.910278 
L 103.563636 -116.759528 
L 99.054545 -115.810732 
L 94.545455 -118.925134 
L 90.036364 -129.289885 
L 85.527273 -152.496 
z
" id="m0083d2d47f" style="stroke:#000000;"/>
    </defs>
    <g clip-path="url(#p09d4482206)">
     <use style="fill:#808080;stroke:#000000;" x="0.0" xlink:href="#m0083d2d47f" y="432.0"/>
    </g>
   </g>
   <g id="PolyCollection_2">
    <defs>
     <path d="M 148.654545 -155.783365 
L 148.654545 -155.001315 
L 153.163636 -155.001315 
L 157.672727 -155.001315 
L 162.181818 -155.001315 
L 166.690909 -155.001315 
L 171.2 -155.001315 
L 175.709091 -155.001315 
L 180.218182 -155.001315 
L 184.727273 -155.001315 
L 189.236364 -155.001315 
L 193.745455 -155.001315 
L 198.254545 -155.001315 
L 202.763636 -155.001315 
L 207.272727 -155.001315 
L 211.781818 -155.001315 
L 216.290909 -155.001315 
L 220.8 -155.001315 
L 225.309091 -155.001315 
L 229.818182 -155.001315 
L 234.327273 -155.001315 
L 238.836364 -155.001315 
L 243.345455 -155.001315 
L 247.854545 -155.001315 
L 252.363636 -155.001315 
L 256.872727 -155.001315 
L 261.381818 -155.001315 
L 265.890909 -155.001315 
L 270.4 -155.001315 
L 274.909091 -155.001315 
L 279.418182 -155.001315 
L 283.927273 -155.001315 
L 288.436364 -155.001315 
L 292.945455 -155.001315 
L 297.454545 -155.001315 
L 301.963636 -155.001315 
L 306.472727 -155.001315 
L 306.472727 -155.232214 
L 306.472727 -155.232214 
L 301.963636 -156.01165 
L 297.454545 -156.788543 
L 292.945455 -157.561647 
L 288.436364 -158.329572 
L 283.927273 -159.090775 
L 279.418182 -159.843539 
L 274.909091 -160.585954 
L 270.4 -161.315899 
L 265.890909 -162.031016 
L 261.381818 -162.728684 
L 256.872727 -163.405992 
L 252.363636 -164.059702 
L 247.854545 -164.686217 
L 243.345455 -165.281537 
L 238.836364 -165.841218 
L 234.327273 -166.360316 
L 229.818182 -166.833335 
L 225.309091 -167.254162 
L 220.8 -167.616 
L 216.290909 -167.911289 
L 211.781818 -168.131626 
L 207.272727 -168.267667 
L 202.763636 -168.309035 
L 198.254545 -168.244207 
L 193.745455 -168.060405 
L 189.236364 -167.743482 
L 184.727273 -167.277804 
L 180.218182 -166.646145 
L 175.709091 -165.829602 
L 171.2 -164.807544 
L 166.690909 -163.557616 
L 162.181818 -162.055856 
L 157.672727 -160.276963 
L 153.163636 -158.194814 
L 148.654545 -155.783365 
z
" id="mc0fbd77e28" style="stroke:#000000;"/>
    </defs>
    <g clip-path="url(#p09d4482206)">
     <use style="fill:#808080;stroke:#000000;" x="0.0" xlink:href="#mc0fbd77e28" y="432.0"/>
    </g>
   </g>
   <g id="line2d_1">
    <path clip-path="url(#p09d4482206)" d="M 72 -25.92 
M 72.65855 -1 
L 76.509091 144.707235 
L 81.018182 233.298399 
L 85.527273 279.504 
L 90.036364 302.710115 
L 94.545455 313.074866 
L 99.054545 316.189268 
L 103.563636 315.240472 
L 108.072727 312.089722 
L 112.581818 307.84 
L 117.090909 303.148364 
L 121.6 298.404 
L 126.109091 293.832695 
L 130.618182 289.55959 
L 135.127273 285.6476 
L 139.636364 282.121282 
L 144.145455 278.981843 
L 148.654545 276.216635 
L 153.163636 273.805186 
L 157.672727 271.723037 
L 162.181818 269.944144 
L 166.690909 268.442384 
L 171.2 267.192456 
L 175.709091 266.170398 
L 180.218182 265.353855 
L 184.727273 264.722196 
L 189.236364 264.256518 
L 193.745455 263.939595 
L 198.254545 263.755793 
L 202.763636 263.690965 
L 207.272727 263.732333 
L 211.781818 263.868374 
L 216.290909 264.088711 
L 220.8 264.384 
L 225.309091 264.745838 
L 229.818182 265.166665 
L 234.327273 265.639684 
L 238.836364 266.158782 
L 243.345455 266.718463 
L 247.854545 267.313783 
L 252.363636 267.940298 
L 256.872727 268.594008 
L 261.381818 269.271316 
L 265.890909 269.968984 
L 270.4 270.684101 
L 274.909091 271.414046 
L 279.418182 272.156461 
L 283.927273 272.909225 
L 288.436364 273.670428 
L 292.945455 274.438353 
L 297.454545 275.211457 
L 301.963636 275.98835 
L 306.472727 276.767786 
L 310.981818 277.548645 
L 315.490909 278.32992 
L 320 279.110709 
L 324.509091 279.890205 
L 329.018182 280.667685 
L 333.527273 281.442501 
L 338.036364 282.214078 
L 342.545455 282.981901 
L 347.054545 283.745514 
L 351.563636 284.50451 
L 356.072727 285.258532 
L 360.581818 286.007263 
L 365.090909 286.750426 
L 369.6 287.487779 
L 374.109091 288.219109 
L 378.618182 288.944235 
L 383.127273 289.663001 
L 387.636364 290.375273 
L 392.145455 291.080939 
L 396.654545 291.779909 
L 401.163636 292.472106 
L 405.672727 293.157473 
L 410.181818 293.835965 
L 414.690909 294.50755 
L 419.2 295.172209 
L 423.709091 295.829932 
L 428.218182 296.480721 
L 432.727273 297.124584 
L 437.236364 297.761538 
L 441.745455 298.391607 
L 446.254545 299.014821 
L 450.763636 299.631215 
L 455.272727 300.240831 
L 459.781818 300.843714 
L 464.290909 301.439912 
L 468.8 302.029479 
L 473.309091 302.61247 
L 477.818182 303.188944 
L 482.327273 303.758961 
L 486.836364 304.322585 
L 491.345455 304.87988 
L 495.854545 305.430913 
L 500.363636 305.975752 
L 504.872727 306.514464 
L 509.381818 307.04712 
L 513.890909 307.57379 
L 518.4 308.094545 
" style="fill:none;stroke:#0000ff;stroke-linecap:square;"/>
   </g>
   <g id="line2d_2">
    <path clip-path="url(#p09d4482206)" d="M 72 276.48 
L 518.4 276.48 
" style="fill:none;stroke:#000000;stroke-dasharray:6.000000,6.000000;stroke-dashoffset:0.0;"/>
   </g>
   <g id="line2d_3">
    <defs>
     <path d="M 0 3 
C 0.795609 3 1.55874 2.683901 2.12132 2.12132 
C 2.683901 1.55874 3 0.795609 3 0 
C 3 -0.795609 2.683901 -1.55874 2.12132 -2.12132 
C 1.55874 -2.683901 0.795609 -3 0 -3 
C -0.795609 -3 -1.55874 -2.683901 -2.12132 -2.12132 
C -2.683901 -1.55874 -3 -0.795609 -3 0 
C -3 0.795609 -2.683901 1.55874 -2.12132 2.12132 
C -1.55874 2.683901 -0.795609 3 0 3 
z
" id="md74424a493" style="stroke:#000000;stroke-width:0.5;"/>
    </defs>
    <g clip-path="url(#p09d4482206)">
     <use style="fill:#0000ff;stroke:#000000;stroke-width:0.5;" x="85.1200943176" xlink:href="#md74424a493" y="276.48"/>
    </g>
   </g>
   <g id="line2d_4">
    <g clip-path="url(#p09d4482206)">
     <use style="fill:#0000ff;stroke:#000000;stroke-width:0.5;" x="148.198228127" xlink:href="#md74424a493" y="276.48"/>
    </g>
   </g>
   <g id="line2d_5">
    <g clip-path="url(#p09d4482206)">
     <use style="fill:#0000ff;stroke:#000000;stroke-width:0.5;" x="304.809150083" xlink:href="#md74424a493" y="276.48"/>
    </g>
   </g>
   <g id="line2d_6">
    <path clip-path="url(#p09d4482206)" d="M 72 -25.92 
M 72.65855 -1 
L 76.509091 144.707235 
L 81.018182 233.298399 
L 85.527273 279.504 
L 90.036364 302.710115 
L 94.545455 313.074866 
L 99.054545 316.189268 
L 103.563636 315.240472 
L 108.072727 312.089722 
L 112.581818 307.84 
L 117.090909 303.148364 
L 121.6 298.404 
L 126.109091 293.832695 
L 130.618182 289.55959 
L 135.127273 285.6476 
L 139.636364 282.121282 
L 144.145455 278.981843 
L 148.654545 276.216635 
L 153.163636 273.805186 
L 157.672727 271.723037 
L 162.181818 269.944144 
L 166.690909 268.442384 
L 171.2 267.192456 
L 175.709091 266.170398 
L 180.218182 265.353855 
L 184.727273 264.722196 
L 189.236364 264.256518 
L 193.745455 263.939595 
L 198.254545 263.755793 
L 202.763636 263.690965 
L 207.272727 263.732333 
L 211.781818 263.868374 
L 216.290909 264.088711 
L 220.8 264.384 
L 225.309091 264.745838 
L 229.818182 265.166665 
L 234.327273 265.639684 
L 238.836364 266.158782 
L 243.345455 266.718463 
L 247.854545 267.313783 
L 252.363636 267.940298 
L 256.872727 268.594008 
L 261.381818 269.271316 
L 265.890909 269.968984 
L 270.4 270.684101 
L 274.909091 271.414046 
L 279.418182 272.156461 
L 283.927273 272.909225 
L 288.436364 273.670428 
L 292.945455 274.438353 
L 297.454545 275.211457 
L 301.963636 275.98835 
L 306.472727 276.767786 
L 310.981818 277.548645 
L 315.490909 278.32992 
L 320 279.110709 
L 324.509091 279.890205 
L 329.018182 280.667685 
L 333.527273 281.442501 
L 338.036364 282.214078 
L 342.545455 282.981901 
L 347.054545 283.745514 
L 351.563636 284.50451 
L 356.072727 285.258532 
L 360.581818 286.007263 
L 365.090909 286.750426 
L 369.6 287.487779 
L 374.109091 288.219109 
L 378.618182 288.944235 
L 383.127273 289.663001 
L 387.636364 290.375273 
L 392.145455 291.080939 
L 396.654545 291.779909 
L 401.163636 292.472106 
L 405.672727 293.157473 
L 410.181818 293.835965 
L 414.690909 294.50755 
L 419.2 295.172209 
L 423.709091 295.829932 
L 428.218182 296.480721 
L 432.727273 297.124584 
L 437.236364 297.761538 
L 441.745455 298.391607 
L 446.254545 299.014821 
L 450.763636 299.631215 
L 455.272727 300.240831 
L 459.781818 300.843714 
L 464.290909 301.439912 
L 468.8 302.029479 
L 473.309091 302.61247 
L 477.818182 303.188944 
L 482.327273 303.758961 
L 486.836364 304.322585 
L 491.345455 304.87988 
L 495.854545 305.430913 
L 500.363636 305.975752 
L 504.872727 306.514464 
L 509.381818 307.04712 
L 513.890909 307.57379 
L 518.4 308.094545 
" style="fill:none;stroke:#008000;stroke-linecap:square;"/>
   </g>
   <g id="line2d_7">
    <path clip-path="url(#p09d4482206)" d="M 72 276.998685 
L 76.509091 276.998685 
L 81.018182 276.998685 
L 85.527273 276.998685 
L 90.036364 276.998685 
L 94.545455 276.998685 
L 99.054545 276.998685 
L 103.563636 276.998685 
L 108.072727 276.998685 
L 112.581818 276.998685 
L 117.090909 276.998685 
L 121.6 276.998685 
L 126.109091 276.998685 
L 130.618182 276.998685 
L 135.127273 276.998685 
L 139.636364 276.998685 
L 144.145455 276.998685 
L 148.654545 276.998685 
L 153.163636 276.998685 
L 157.672727 276.998685 
L 162.181818 276.998685 
L 166.690909 276.998685 
L 171.2 276.998685 
L 175.709091 276.998685 
L 180.218182 276.998685 
L 184.727273 276.998685 
L 189.236364 276.998685 
L 193.745455 276.998685 
L 198.254545 276.998685 
L 202.763636 276.998685 
L 207.272727 276.998685 
L 211.781818 276.998685 
L 216.290909 276.998685 
L 220.8 276.998685 
L 225.309091 276.998685 
L 229.818182 276.998685 
L 234.327273 276.998685 
L 238.836364 276.998685 
L 243.345455 276.998685 
L 247.854545 276.998685 
L 252.363636 276.998685 
L 256.872727 276.998685 
L 261.381818 276.998685 
L 265.890909 276.998685 
L 270.4 276.998685 
L 274.909091 276.998685 
L 279.418182 276.998685 
L 283.927273 276.998685 
L 288.436364 276.998685 
L 292.945455 276.998685 
L 297.454545 276.998685 
L 301.963636 276.998685 
L 306.472727 276.998685 
L 310.981818 276.998685 
L 315.490909 276.998685 
L 320 276.998685 
L 324.509091 276.998685 
L 329.018182 276.998685 
L 333.527273 276.998685 
L 338.036364 276.998685 
L 342.545455 276.998685 
L 347.054545 276.998685 
L 351.563636 276.998685 
L 356.072727 276.998685 
L 360.581818 276.998685 
L 365.090909 276.998685 
L 369.6 276.998685 
L 374.109091 276.998685 
L 378.618182 276.998685 
L 383.127273 276.998685 
L 387.636364 276.998685 
L 392.145455 276.998685 
L 396.654545 276.998685 
L 401.163636 276.998685 
L 405.672727 276.998685 
L 410.181818 276.998685 
L 414.690909 276.998685 
L 419.2 276.998685 
L 423.709091 276.998685 
L 428.218182 276.998685 
L 432.727273 276.998685 
L 437.236364 276.998685 
L 441.745455 276.998685 
L 446.254545 276.998685 
L 450.763636 276.998685 
L 455.272727 276.998685 
L 459.781818 276.998685 
L 464.290909 276.998685 
L 468.8 276.998685 
L 473.309091 276.998685 
L 477.818182 276.998685 
L 482.327273 276.998685 
L 486.836364 276.998685 
L 491.345455 276.998685 
L 495.854545 276.998685 
L 500.363636 276.998685 
L 504.872727 276.998685 
L 509.381818 276.998685 
L 513.890909 276.998685 
L 518.4 276.998685 
" style="fill:none;stroke:#ff0000;stroke-linecap:square;"/>
   </g>
   <g id="patch_3">
    <path d="M 72 43.2 
L 518.4 43.2 
" style="fill:none;stroke:#000000;stroke-linecap:square;stroke-linejoin:miter;"/>
   </g>
   <g id="patch_4">
    <path d="M 72 388.8 
L 72 43.2 
" style="fill:none;stroke:#000000;stroke-linecap:square;stroke-linejoin:miter;"/>
   </g>
   <g id="patch_5">
    <path d="M 72 388.8 
L 518.4 388.8 
" style="fill:none;stroke:#000000;stroke-linecap:square;stroke-linejoin:miter;"/>
   </g>
   <g id="patch_6">
    <path d="M 518.4 388.8 
L 518.4 43.2 
" style="fill:none;stroke:#000000;stroke-linecap:square;stroke-linejoin:miter;"/>
   </g>
   <g id="matplotlib.axis_1">
    <g id="xtick_1">
     <g id="line2d_8">
      <defs>
       <path d="M 0 0 
L 0 -4 
" id="mcc3c36ec6a" style="stroke:#000000;stroke-width:0.5;"/>
      </defs>
      <g>
       <use style="stroke:#000000;stroke-width:0.5;" x="72.0" xlink:href="#mcc3c36ec6a" y="388.8"/>
      </g>
     </g>
     <g id="line2d_9">
      <defs>
       <path d="M 0 0 
L 0 4 
" id="m637627fc03" style="stroke:#000000;stroke-width:0.5;"/>
      </defs>
      <g>
       <use style="stroke:#000000;stroke-width:0.5;" x="72.0" xlink:href="#m637627fc03" y="43.2"/>
      </g>
     </g>
     <g id="text_1">
      <!-- 0.5 -->
      <defs>
       <path d="M 31.78125 66.40625 
Q 24.171875 66.40625 20.328125 58.90625 
Q 16.5 51.421875 16.5 36.375 
Q 16.5 21.390625 20.328125 13.890625 
Q 24.171875 6.390625 31.78125 6.390625 
Q 39.453125 6.390625 43.28125 13.890625 
Q 47.125 21.390625 47.125 36.375 
Q 47.125 51.421875 43.28125 58.90625 
Q 39.453125 66.40625 31.78125 66.40625 
M 31.78125 74.21875 
Q 44.046875 74.21875 50.515625 64.515625 
Q 56.984375 54.828125 56.984375 36.375 
Q 56.984375 17.96875 50.515625 8.265625 
Q 44.046875 -1.421875 31.78125 -1.421875 
Q 19.53125 -1.421875 13.0625 8.265625 
Q 6.59375 17.96875 6.59375 36.375 
Q 6.59375 54.828125 13.0625 64.515625 
Q 19.53125 74.21875 31.78125 74.21875 
" id="BitstreamVeraSans-Roman-30"/>
       <path d="M 10.6875 12.40625 
L 21 12.40625 
L 21 0 
L 10.6875 0 
z
" id="BitstreamVeraSans-Roman-2e"/>
       <path d="M 10.796875 72.90625 
L 49.515625 72.90625 
L 49.515625 64.59375 
L 19.828125 64.59375 
L 19.828125 46.734375 
Q 21.96875 47.46875 24.109375 47.828125 
Q 26.265625 48.1875 28.421875 48.1875 
Q 40.625 48.1875 47.75 41.5 
Q 54.890625 34.8125 54.890625 23.390625 
Q 54.890625 11.625 47.5625 5.09375 
Q 40.234375 -1.421875 26.90625 -1.421875 
Q 22.3125 -1.421875 17.546875 -0.640625 
Q 12.796875 0.140625 7.71875 1.703125 
L 7.71875 11.625 
Q 12.109375 9.234375 16.796875 8.0625 
Q 21.484375 6.890625 26.703125 6.890625 
Q 35.15625 6.890625 40.078125 11.328125 
Q 45.015625 15.765625 45.015625 23.390625 
Q 45.015625 31 40.078125 35.4375 
Q 35.15625 39.890625 26.703125 39.890625 
Q 22.75 39.890625 18.8125 39.015625 
Q 14.890625 38.140625 10.796875 36.28125 
z
" id="BitstreamVeraSans-Roman-35"/>
      </defs>
      <g transform="translate(62.458125 401.918125)scale(0.12 -0.12)">
       <use xlink:href="#BitstreamVeraSans-Roman-30"/>
       <use x="63.623046875" xlink:href="#BitstreamVeraSans-Roman-2e"/>
       <use x="95.41015625" xlink:href="#BitstreamVeraSans-Roman-35"/>
      </g>
     </g>
    </g>
    <g id="xtick_2">
     <g id="line2d_10">
      <g>
       <use style="stroke:#000000;stroke-width:0.5;" x="135.771428571" xlink:href="#mcc3c36ec6a" y="388.8"/>
      </g>
     </g>
     <g id="line2d_11">
      <g>
       <use style="stroke:#000000;stroke-width:0.5;" x="135.771428571" xlink:href="#m637627fc03" y="43.2"/>
      </g>
     </g>
     <g id="text_2">
      <!-- 1.0 -->
      <defs>
       <path d="M 12.40625 8.296875 
L 28.515625 8.296875 
L 28.515625 63.921875 
L 10.984375 60.40625 
L 10.984375 69.390625 
L 28.421875 72.90625 
L 38.28125 72.90625 
L 38.28125 8.296875 
L 54.390625 8.296875 
L 54.390625 0 
L 12.40625 0 
z
" id="BitstreamVeraSans-Roman-31"/>
      </defs>
      <g transform="translate(126.229553571 401.918125)scale(0.12 -0.12)">
       <use xlink:href="#BitstreamVeraSans-Roman-31"/>
       <use x="63.623046875" xlink:href="#BitstreamVeraSans-Roman-2e"/>
       <use x="95.41015625" xlink:href="#BitstreamVeraSans-Roman-30"/>
      </g>
     </g>
    </g>
    <g id="xtick_3">
     <g id="line2d_12">
      <g>
       <use style="stroke:#000000;stroke-width:0.5;" x="199.542857143" xlink:href="#mcc3c36ec6a" y="388.8"/>
      </g>
     </g>
     <g id="line2d_13">
      <g>
       <use style="stroke:#000000;stroke-width:0.5;" x="199.542857143" xlink:href="#m637627fc03" y="43.2"/>
      </g>
     </g>
     <g id="text_3">
      <!-- 1.5 -->
      <g transform="translate(190.000982143 401.918125)scale(0.12 -0.12)">
       <use xlink:href="#BitstreamVeraSans-Roman-31"/>
       <use x="63.623046875" xlink:href="#BitstreamVeraSans-Roman-2e"/>
       <use x="95.41015625" xlink:href="#BitstreamVeraSans-Roman-35"/>
      </g>
     </g>
    </g>
    <g id="xtick_4">
     <g id="line2d_14">
      <g>
       <use style="stroke:#000000;stroke-width:0.5;" x="263.314285714" xlink:href="#mcc3c36ec6a" y="388.8"/>
      </g>
     </g>
     <g id="line2d_15">
      <g>
       <use style="stroke:#000000;stroke-width:0.5;" x="263.314285714" xlink:href="#m637627fc03" y="43.2"/>
      </g>
     </g>
     <g id="text_4">
      <!-- 2.0 -->
      <defs>
       <path d="M 19.1875 8.296875 
L 53.609375 8.296875 
L 53.609375 0 
L 7.328125 0 
L 7.328125 8.296875 
Q 12.9375 14.109375 22.625 23.890625 
Q 32.328125 33.6875 34.8125 36.53125 
Q 39.546875 41.84375 41.421875 45.53125 
Q 43.3125 49.21875 43.3125 52.78125 
Q 43.3125 58.59375 39.234375 62.25 
Q 35.15625 65.921875 28.609375 65.921875 
Q 23.96875 65.921875 18.8125 64.3125 
Q 13.671875 62.703125 7.8125 59.421875 
L 7.8125 69.390625 
Q 13.765625 71.78125 18.9375 73 
Q 24.125 74.21875 28.421875 74.21875 
Q 39.75 74.21875 46.484375 68.546875 
Q 53.21875 62.890625 53.21875 53.421875 
Q 53.21875 48.921875 51.53125 44.890625 
Q 49.859375 40.875 45.40625 35.40625 
Q 44.1875 33.984375 37.640625 27.21875 
Q 31.109375 20.453125 19.1875 8.296875 
" id="BitstreamVeraSans-Roman-32"/>
      </defs>
      <g transform="translate(253.772410714 401.918125)scale(0.12 -0.12)">
       <use xlink:href="#BitstreamVeraSans-Roman-32"/>
       <use x="63.623046875" xlink:href="#BitstreamVeraSans-Roman-2e"/>
       <use x="95.41015625" xlink:href="#BitstreamVeraSans-Roman-30"/>
      </g>
     </g>
    </g>
    <g id="xtick_5">
     <g id="line2d_16">
      <g>
       <use style="stroke:#000000;stroke-width:0.5;" x="327.085714286" xlink:href="#mcc3c36ec6a" y="388.8"/>
      </g>
     </g>
     <g id="line2d_17">
      <g>
       <use style="stroke:#000000;stroke-width:0.5;" x="327.085714286" xlink:href="#m637627fc03" y="43.2"/>
      </g>
     </g>
     <g id="text_5">
      <!-- 2.5 -->
      <g transform="translate(317.543839286 401.918125)scale(0.12 -0.12)">
       <use xlink:href="#BitstreamVeraSans-Roman-32"/>
       <use x="63.623046875" xlink:href="#BitstreamVeraSans-Roman-2e"/>
       <use x="95.41015625" xlink:href="#BitstreamVeraSans-Roman-35"/>
      </g>
     </g>
    </g>
    <g id="xtick_6">
     <g id="line2d_18">
      <g>
       <use style="stroke:#000000;stroke-width:0.5;" x="390.857142857" xlink:href="#mcc3c36ec6a" y="388.8"/>
      </g>
     </g>
     <g id="line2d_19">
      <g>
       <use style="stroke:#000000;stroke-width:0.5;" x="390.857142857" xlink:href="#m637627fc03" y="43.2"/>
      </g>
     </g>
     <g id="text_6">
      <!-- 3.0 -->
      <defs>
       <path d="M 40.578125 39.3125 
Q 47.65625 37.796875 51.625 33 
Q 55.609375 28.21875 55.609375 21.1875 
Q 55.609375 10.40625 48.1875 4.484375 
Q 40.765625 -1.421875 27.09375 -1.421875 
Q 22.515625 -1.421875 17.65625 -0.515625 
Q 12.796875 0.390625 7.625 2.203125 
L 7.625 11.71875 
Q 11.71875 9.328125 16.59375 8.109375 
Q 21.484375 6.890625 26.8125 6.890625 
Q 36.078125 6.890625 40.9375 10.546875 
Q 45.796875 14.203125 45.796875 21.1875 
Q 45.796875 27.640625 41.28125 31.265625 
Q 36.765625 34.90625 28.71875 34.90625 
L 20.21875 34.90625 
L 20.21875 43.015625 
L 29.109375 43.015625 
Q 36.375 43.015625 40.234375 45.921875 
Q 44.09375 48.828125 44.09375 54.296875 
Q 44.09375 59.90625 40.109375 62.90625 
Q 36.140625 65.921875 28.71875 65.921875 
Q 24.65625 65.921875 20.015625 65.03125 
Q 15.375 64.15625 9.8125 62.3125 
L 9.8125 71.09375 
Q 15.4375 72.65625 20.34375 73.4375 
Q 25.25 74.21875 29.59375 74.21875 
Q 40.828125 74.21875 47.359375 69.109375 
Q 53.90625 64.015625 53.90625 55.328125 
Q 53.90625 49.265625 50.4375 45.09375 
Q 46.96875 40.921875 40.578125 39.3125 
" id="BitstreamVeraSans-Roman-33"/>
      </defs>
      <g transform="translate(381.315267857 401.918125)scale(0.12 -0.12)">
       <use xlink:href="#BitstreamVeraSans-Roman-33"/>
       <use x="63.623046875" xlink:href="#BitstreamVeraSans-Roman-2e"/>
       <use x="95.41015625" xlink:href="#BitstreamVeraSans-Roman-30"/>
      </g>
     </g>
    </g>
    <g id="xtick_7">
     <g id="line2d_20">
      <g>
       <use style="stroke:#000000;stroke-width:0.5;" x="454.628571429" xlink:href="#mcc3c36ec6a" y="388.8"/>
      </g>
     </g>
     <g id="line2d_21">
      <g>
       <use style="stroke:#000000;stroke-width:0.5;" x="454.628571429" xlink:href="#m637627fc03" y="43.2"/>
      </g>
     </g>
     <g id="text_7">
      <!-- 3.5 -->
      <g transform="translate(445.086696429 401.918125)scale(0.12 -0.12)">
       <use xlink:href="#BitstreamVeraSans-Roman-33"/>
       <use x="63.623046875" xlink:href="#BitstreamVeraSans-Roman-2e"/>
       <use x="95.41015625" xlink:href="#BitstreamVeraSans-Roman-35"/>
      </g>
     </g>
    </g>
    <g id="xtick_8">
     <g id="line2d_22">
      <g>
       <use style="stroke:#000000;stroke-width:0.5;" x="518.4" xlink:href="#mcc3c36ec6a" y="388.8"/>
      </g>
     </g>
     <g id="line2d_23">
      <g>
       <use style="stroke:#000000;stroke-width:0.5;" x="518.4" xlink:href="#m637627fc03" y="43.2"/>
      </g>
     </g>
     <g id="text_8">
      <!-- 4.0 -->
      <defs>
       <path d="M 37.796875 64.3125 
L 12.890625 25.390625 
L 37.796875 25.390625 
z
M 35.203125 72.90625 
L 47.609375 72.90625 
L 47.609375 25.390625 
L 58.015625 25.390625 
L 58.015625 17.1875 
L 47.609375 17.1875 
L 47.609375 0 
L 37.796875 0 
L 37.796875 17.1875 
L 4.890625 17.1875 
L 4.890625 26.703125 
z
" id="BitstreamVeraSans-Roman-34"/>
      </defs>
      <g transform="translate(508.858125 401.918125)scale(0.12 -0.12)">
       <use xlink:href="#BitstreamVeraSans-Roman-34"/>
       <use x="63.623046875" xlink:href="#BitstreamVeraSans-Roman-2e"/>
       <use x="95.41015625" xlink:href="#BitstreamVeraSans-Roman-30"/>
      </g>
     </g>
    </g>
    <g id="text_9">
     <!-- $V_R$ -->
     <defs>
      <path d="M 22.015625 -1.125 
L 14.015625 62.59375 
Q 13.28125 64.796875 6.5 64.796875 
Q 5.515625 64.796875 5.515625 66.109375 
Q 5.71875 67.1875 6 67.75 
Q 6.296875 68.3125 7.171875 68.3125 
L 31.59375 68.3125 
Q 32.125 68.3125 32.375 67.921875 
Q 32.625 67.53125 32.625 67 
Q 32.234375 64.796875 31.296875 64.796875 
Q 23.484375 64.796875 23 62.109375 
L 29.59375 9.8125 
L 60.40625 58.984375 
Q 61.28125 60.640625 61.28125 61.625 
Q 61.28125 63.375 59.6875 64.078125 
Q 58.109375 64.796875 56 64.796875 
Q 54.984375 64.796875 54.984375 66.109375 
Q 55.171875 66.890625 55.3125 67.328125 
Q 55.46875 67.78125 55.765625 68.046875 
Q 56.0625 68.3125 56.6875 68.3125 
L 75.984375 68.3125 
Q 76.90625 68.3125 76.90625 67 
Q 76.515625 64.796875 75.59375 64.796875 
Q 68.0625 64.796875 63.8125 58.203125 
Q 63.625 58.015625 63.484375 58.015625 
L 26.609375 -1.125 
Q 25.875 -2.203125 24.703125 -2.203125 
L 23.296875 -2.203125 
Q 22.171875 -2.203125 22.015625 -1.125 
" id="Cmmi10-56"/>
      <path d="M 4.890625 0 
Q 3.90625 0 3.90625 1.3125 
Q 3.953125 1.5625 4.09375 2.171875 
Q 4.25 2.78125 4.515625 3.140625 
Q 4.78125 3.515625 5.171875 3.515625 
Q 11.28125 3.515625 13.71875 4.203125 
Q 14.984375 4.640625 15.578125 6.890625 
L 29.296875 61.8125 
Q 29.5 62.796875 29.5 63.1875 
Q 29.5 64.265625 28.328125 64.40625 
Q 26.421875 64.796875 21.09375 64.796875 
Q 20.125 64.796875 20.125 66.109375 
Q 20.171875 66.359375 20.3125 66.96875 
Q 20.453125 67.578125 20.71875 67.9375 
Q 21 68.3125 21.390625 68.3125 
L 51.703125 68.3125 
Q 55.328125 68.3125 59.234375 67.484375 
Q 63.140625 66.65625 66.40625 64.875 
Q 69.671875 63.09375 71.765625 60.125 
Q 73.875 57.171875 73.875 53.21875 
Q 73.875 48.1875 70.546875 44.234375 
Q 67.234375 40.28125 62.15625 37.625 
Q 57.078125 34.96875 52.296875 33.890625 
Q 56.203125 32.46875 58.6875 29.359375 
Q 61.1875 26.265625 61.1875 22.21875 
Q 61.1875 21.6875 61.15625 21.40625 
Q 61.140625 21.140625 61.078125 20.796875 
L 60.296875 11.921875 
Q 60.203125 9.96875 60.109375 8.59375 
Q 60.015625 7.234375 60.015625 6.390625 
Q 60.015625 3.65625 60.8125 2.015625 
Q 61.625 0.390625 64.015625 0.390625 
Q 67.140625 0.390625 69.5 3.296875 
Q 71.875 6.203125 72.609375 9.625 
Q 73.046875 10.5 73.578125 10.5 
L 74.515625 10.5 
Q 75.484375 10.5 75.484375 9.1875 
Q 74.75 6.296875 73.15625 3.703125 
Q 71.578125 1.125 69.15625 -0.53125 
Q 66.75 -2.203125 63.921875 -2.203125 
Q 58.0625 -2.203125 53.9375 0.40625 
Q 49.8125 3.03125 49.8125 8.59375 
Q 49.8125 10.6875 50.203125 12.3125 
L 52.390625 21.1875 
Q 52.78125 22.40625 52.78125 24.03125 
Q 52.78125 28.171875 49.96875 30.53125 
Q 47.171875 32.90625 42.921875 32.90625 
L 30.609375 32.90625 
L 24.03125 6.5 
Q 23.78125 5.671875 23.78125 5.078125 
Q 23.78125 4.046875 25 3.90625 
Q 26.90625 3.515625 32.171875 3.515625 
Q 33.203125 3.515625 33.203125 2.203125 
Q 32.859375 0.78125 32.65625 0.390625 
Q 32.46875 0 31.5 0 
z
M 31.203125 35.5 
L 42.28125 35.5 
Q 53.171875 35.5 58.6875 41.015625 
Q 61.234375 43.5625 62.71875 47.484375 
Q 64.203125 51.421875 64.203125 55.328125 
Q 64.203125 59.03125 62.03125 61.125 
Q 59.859375 63.234375 56.65625 64.015625 
Q 53.46875 64.796875 49.609375 64.796875 
L 42.921875 64.796875 
Q 40.1875 64.796875 39.296875 64.328125 
Q 38.421875 63.875 37.703125 61.375 
z
" id="Cmmi10-52"/>
     </defs>
     <g transform="translate(288.12 418.531875)scale(0.12 -0.12)">
      <use transform="translate(0.0 0.6875)" xlink:href="#Cmmi10-56"/>
      <use transform="translate(58.30078125 -16.318749999999994)scale(0.7)" xlink:href="#Cmmi10-52"/>
     </g>
    </g>
   </g>
   <g id="matplotlib.axis_2">
    <g id="ytick_1">
     <g id="line2d_24">
      <defs>
       <path d="M 0 0 
L 4 0 
" id="me105094187" style="stroke:#000000;stroke-width:0.5;"/>
      </defs>
      <g>
       <use style="stroke:#000000;stroke-width:0.5;" x="72.0" xlink:href="#me105094187" y="388.8"/>
      </g>
     </g>
     <g id="line2d_25">
      <defs>
       <path d="M 0 0 
L -4 0 
" id="ma05049c25e" style="stroke:#000000;stroke-width:0.5;"/>
      </defs>
      <g>
       <use style="stroke:#000000;stroke-width:0.5;" x="518.4" xlink:href="#ma05049c25e" y="388.8"/>
      </g>
     </g>
     <g id="text_10">
      <!-- 0.0 -->
      <g transform="translate(48.91625 392.11125)scale(0.12 -0.12)">
       <use xlink:href="#BitstreamVeraSans-Roman-30"/>
       <use x="63.623046875" xlink:href="#BitstreamVeraSans-Roman-2e"/>
       <use x="95.41015625" xlink:href="#BitstreamVeraSans-Roman-30"/>
      </g>
     </g>
    </g>
    <g id="ytick_2">
     <g id="line2d_26">
      <g>
       <use style="stroke:#000000;stroke-width:0.5;" x="72.0" xlink:href="#me105094187" y="302.4"/>
      </g>
     </g>
     <g id="line2d_27">
      <g>
       <use style="stroke:#000000;stroke-width:0.5;" x="518.4" xlink:href="#ma05049c25e" y="302.4"/>
      </g>
     </g>
     <g id="text_11">
      <!-- 0.5 -->
      <g transform="translate(48.91625 305.71125)scale(0.12 -0.12)">
       <use xlink:href="#BitstreamVeraSans-Roman-30"/>
       <use x="63.623046875" xlink:href="#BitstreamVeraSans-Roman-2e"/>
       <use x="95.41015625" xlink:href="#BitstreamVeraSans-Roman-35"/>
      </g>
     </g>
    </g>
    <g id="ytick_3">
     <g id="line2d_28">
      <g>
       <use style="stroke:#000000;stroke-width:0.5;" x="72.0" xlink:href="#me105094187" y="216.0"/>
      </g>
     </g>
     <g id="line2d_29">
      <g>
       <use style="stroke:#000000;stroke-width:0.5;" x="518.4" xlink:href="#ma05049c25e" y="216.0"/>
      </g>
     </g>
     <g id="text_12">
      <!-- 1.0 -->
      <g transform="translate(48.91625 219.31125)scale(0.12 -0.12)">
       <use xlink:href="#BitstreamVeraSans-Roman-31"/>
       <use x="63.623046875" xlink:href="#BitstreamVeraSans-Roman-2e"/>
       <use x="95.41015625" xlink:href="#BitstreamVeraSans-Roman-30"/>
      </g>
     </g>
    </g>
    <g id="ytick_4">
     <g id="line2d_30">
      <g>
       <use style="stroke:#000000;stroke-width:0.5;" x="72.0" xlink:href="#me105094187" y="129.6"/>
      </g>
     </g>
     <g id="line2d_31">
      <g>
       <use style="stroke:#000000;stroke-width:0.5;" x="518.4" xlink:href="#ma05049c25e" y="129.6"/>
      </g>
     </g>
     <g id="text_13">
      <!-- 1.5 -->
      <g transform="translate(48.91625 132.91125)scale(0.12 -0.12)">
       <use xlink:href="#BitstreamVeraSans-Roman-31"/>
       <use x="63.623046875" xlink:href="#BitstreamVeraSans-Roman-2e"/>
       <use x="95.41015625" xlink:href="#BitstreamVeraSans-Roman-35"/>
      </g>
     </g>
    </g>
    <g id="ytick_5">
     <g id="line2d_32">
      <g>
       <use style="stroke:#000000;stroke-width:0.5;" x="72.0" xlink:href="#me105094187" y="43.2"/>
      </g>
     </g>
     <g id="line2d_33">
      <g>
       <use style="stroke:#000000;stroke-width:0.5;" x="518.4" xlink:href="#ma05049c25e" y="43.2"/>
      </g>
     </g>
     <g id="text_14">
      <!-- 2.0 -->
      <g transform="translate(48.91625 46.51125)scale(0.12 -0.12)">
       <use xlink:href="#BitstreamVeraSans-Roman-32"/>
       <use x="63.623046875" xlink:href="#BitstreamVeraSans-Roman-2e"/>
       <use x="95.41015625" xlink:href="#BitstreamVeraSans-Roman-30"/>
      </g>
     </g>
    </g>
    <g id="text_15">
     <!-- $P_R$ -->
     <defs>
      <path d="M 4.890625 0 
Q 3.90625 0 3.90625 1.3125 
Q 3.953125 1.5625 4.09375 2.171875 
Q 4.25 2.78125 4.515625 3.140625 
Q 4.78125 3.515625 5.171875 3.515625 
Q 11.28125 3.515625 13.71875 4.203125 
Q 14.984375 4.640625 15.578125 6.890625 
L 29.296875 61.8125 
Q 29.5 62.796875 29.5 63.1875 
Q 29.5 64.265625 28.328125 64.40625 
Q 26.421875 64.796875 21.09375 64.796875 
Q 20.125 64.796875 20.125 66.109375 
Q 20.171875 66.359375 20.3125 66.96875 
Q 20.453125 67.578125 20.71875 67.9375 
Q 21 68.3125 21.390625 68.3125 
L 55.90625 68.3125 
Q 60.640625 68.3125 65.078125 66.625 
Q 69.53125 64.9375 72.359375 61.46875 
Q 75.203125 58.015625 75.203125 53.078125 
Q 75.203125 46.734375 70.734375 41.75 
Q 66.265625 36.765625 59.59375 33.984375 
Q 52.9375 31.203125 46.6875 31.203125 
L 30.421875 31.203125 
L 24.3125 6.5 
Q 24.125 5.515625 24.125 5.078125 
Q 24.125 4.6875 24.234375 4.421875 
Q 24.359375 4.15625 24.578125 4.078125 
Q 24.8125 4 25.296875 3.90625 
Q 27.203125 3.515625 32.515625 3.515625 
Q 33.5 3.515625 33.5 2.203125 
Q 33.15625 0.78125 32.953125 0.390625 
Q 32.765625 0 31.78125 0 
z
M 30.90625 34.1875 
L 44.921875 34.1875 
Q 54.640625 34.1875 59.71875 39.40625 
Q 62.3125 42 63.9375 46.875 
Q 65.578125 51.765625 65.578125 55.71875 
Q 65.578125 60.640625 61.8125 62.71875 
Q 58.0625 64.796875 52.484375 64.796875 
L 42.921875 64.796875 
Q 40.1875 64.796875 39.296875 64.328125 
Q 38.421875 63.875 37.703125 61.375 
z
" id="Cmmi10-50"/>
     </defs>
     <g transform="translate(41.420625 223.44)rotate(-90.0)scale(0.12 -0.12)">
      <use transform="translate(0.0 0.6875)" xlink:href="#Cmmi10-50"/>
      <use transform="translate(64.208984375 -16.318749999999994)scale(0.7)" xlink:href="#Cmmi10-52"/>
     </g>
    </g>
   </g>
   <g id="text_16">
    <!-- A1 = 0.06175264739937192 -->
    <defs>
     <path d="M 10.984375 1.515625 
L 10.984375 10.5 
Q 14.703125 8.734375 18.5 7.8125 
Q 22.3125 6.890625 25.984375 6.890625 
Q 35.75 6.890625 40.890625 13.453125 
Q 46.046875 20.015625 46.78125 33.40625 
Q 43.953125 29.203125 39.59375 26.953125 
Q 35.25 24.703125 29.984375 24.703125 
Q 19.046875 24.703125 12.671875 31.3125 
Q 6.296875 37.9375 6.296875 49.421875 
Q 6.296875 60.640625 12.9375 67.421875 
Q 19.578125 74.21875 30.609375 74.21875 
Q 43.265625 74.21875 49.921875 64.515625 
Q 56.59375 54.828125 56.59375 36.375 
Q 56.59375 19.140625 48.40625 8.859375 
Q 40.234375 -1.421875 26.421875 -1.421875 
Q 22.703125 -1.421875 18.890625 -0.6875 
Q 15.09375 0.046875 10.984375 1.515625 
M 30.609375 32.421875 
Q 37.25 32.421875 41.125 36.953125 
Q 45.015625 41.5 45.015625 49.421875 
Q 45.015625 57.28125 41.125 61.84375 
Q 37.25 66.40625 30.609375 66.40625 
Q 23.96875 66.40625 20.09375 61.84375 
Q 16.21875 57.28125 16.21875 49.421875 
Q 16.21875 41.5 20.09375 36.953125 
Q 23.96875 32.421875 30.609375 32.421875 
" id="BitstreamVeraSans-Roman-39"/>
     <path d="M 33.015625 40.375 
Q 26.375 40.375 22.484375 35.828125 
Q 18.609375 31.296875 18.609375 23.390625 
Q 18.609375 15.53125 22.484375 10.953125 
Q 26.375 6.390625 33.015625 6.390625 
Q 39.65625 6.390625 43.53125 10.953125 
Q 47.40625 15.53125 47.40625 23.390625 
Q 47.40625 31.296875 43.53125 35.828125 
Q 39.65625 40.375 33.015625 40.375 
M 52.59375 71.296875 
L 52.59375 62.3125 
Q 48.875 64.0625 45.09375 64.984375 
Q 41.3125 65.921875 37.59375 65.921875 
Q 27.828125 65.921875 22.671875 59.328125 
Q 17.53125 52.734375 16.796875 39.40625 
Q 19.671875 43.65625 24.015625 45.921875 
Q 28.375 48.1875 33.59375 48.1875 
Q 44.578125 48.1875 50.953125 41.515625 
Q 57.328125 34.859375 57.328125 23.390625 
Q 57.328125 12.15625 50.6875 5.359375 
Q 44.046875 -1.421875 33.015625 -1.421875 
Q 20.359375 -1.421875 13.671875 8.265625 
Q 6.984375 17.96875 6.984375 36.375 
Q 6.984375 53.65625 15.1875 63.9375 
Q 23.390625 74.21875 37.203125 74.21875 
Q 40.921875 74.21875 44.703125 73.484375 
Q 48.484375 72.75 52.59375 71.296875 
" id="BitstreamVeraSans-Roman-36"/>
     <path d="M 34.1875 63.1875 
L 20.796875 26.90625 
L 47.609375 26.90625 
z
M 28.609375 72.90625 
L 39.796875 72.90625 
L 67.578125 0 
L 57.328125 0 
L 50.6875 18.703125 
L 17.828125 18.703125 
L 11.1875 0 
L 0.78125 0 
z
" id="BitstreamVeraSans-Roman-41"/>
     <path id="BitstreamVeraSans-Roman-20"/>
     <path d="M 10.59375 45.40625 
L 73.1875 45.40625 
L 73.1875 37.203125 
L 10.59375 37.203125 
z
M 10.59375 25.484375 
L 73.1875 25.484375 
L 73.1875 17.1875 
L 10.59375 17.1875 
z
" id="BitstreamVeraSans-Roman-3d"/>
     <path d="M 8.203125 72.90625 
L 55.078125 72.90625 
L 55.078125 68.703125 
L 28.609375 0 
L 18.3125 0 
L 43.21875 64.59375 
L 8.203125 64.59375 
z
" id="BitstreamVeraSans-Roman-37"/>
    </defs>
    <g transform="translate(85.1881741653 216.0)scale(0.12 -0.12)">
     <use xlink:href="#BitstreamVeraSans-Roman-41"/>
     <use x="68.408203125" xlink:href="#BitstreamVeraSans-Roman-31"/>
     <use x="132.03125" xlink:href="#BitstreamVeraSans-Roman-20"/>
     <use x="163.818359375" xlink:href="#BitstreamVeraSans-Roman-3d"/>
     <use x="247.607421875" xlink:href="#BitstreamVeraSans-Roman-20"/>
     <use x="279.39453125" xlink:href="#BitstreamVeraSans-Roman-30"/>
     <use x="343.017578125" xlink:href="#BitstreamVeraSans-Roman-2e"/>
     <use x="374.8046875" xlink:href="#BitstreamVeraSans-Roman-30"/>
     <use x="438.427734375" xlink:href="#BitstreamVeraSans-Roman-36"/>
     <use x="502.05078125" xlink:href="#BitstreamVeraSans-Roman-31"/>
     <use x="565.673828125" xlink:href="#BitstreamVeraSans-Roman-37"/>
     <use x="629.296875" xlink:href="#BitstreamVeraSans-Roman-35"/>
     <use x="692.919921875" xlink:href="#BitstreamVeraSans-Roman-32"/>
     <use x="756.54296875" xlink:href="#BitstreamVeraSans-Roman-36"/>
     <use x="820.166015625" xlink:href="#BitstreamVeraSans-Roman-34"/>
     <use x="883.7890625" xlink:href="#BitstreamVeraSans-Roman-37"/>
     <use x="947.412109375" xlink:href="#BitstreamVeraSans-Roman-33"/>
     <use x="1011.03515625" xlink:href="#BitstreamVeraSans-Roman-39"/>
     <use x="1074.658203125" xlink:href="#BitstreamVeraSans-Roman-39"/>
     <use x="1138.28125" xlink:href="#BitstreamVeraSans-Roman-33"/>
     <use x="1201.904296875" xlink:href="#BitstreamVeraSans-Roman-37"/>
     <use x="1265.52734375" xlink:href="#BitstreamVeraSans-Roman-31"/>
     <use x="1329.150390625" xlink:href="#BitstreamVeraSans-Roman-39"/>
     <use x="1392.7734375" xlink:href="#BitstreamVeraSans-Roman-32"/>
    </g>
   </g>
   <g id="text_17">
    <!-- A2 = 0.06175264739937192 -->
    <g transform="translate(307.806639068 216.0)scale(0.12 -0.12)">
     <use xlink:href="#BitstreamVeraSans-Roman-41"/>
     <use x="68.408203125" xlink:href="#BitstreamVeraSans-Roman-32"/>
     <use x="132.03125" xlink:href="#BitstreamVeraSans-Roman-20"/>
     <use x="163.818359375" xlink:href="#BitstreamVeraSans-Roman-3d"/>
     <use x="247.607421875" xlink:href="#BitstreamVeraSans-Roman-20"/>
     <use x="279.39453125" xlink:href="#BitstreamVeraSans-Roman-30"/>
     <use x="343.017578125" xlink:href="#BitstreamVeraSans-Roman-2e"/>
     <use x="374.8046875" xlink:href="#BitstreamVeraSans-Roman-30"/>
     <use x="438.427734375" xlink:href="#BitstreamVeraSans-Roman-36"/>
     <use x="502.05078125" xlink:href="#BitstreamVeraSans-Roman-31"/>
     <use x="565.673828125" xlink:href="#BitstreamVeraSans-Roman-37"/>
     <use x="629.296875" xlink:href="#BitstreamVeraSans-Roman-35"/>
     <use x="692.919921875" xlink:href="#BitstreamVeraSans-Roman-32"/>
     <use x="756.54296875" xlink:href="#BitstreamVeraSans-Roman-36"/>
     <use x="820.166015625" xlink:href="#BitstreamVeraSans-Roman-34"/>
     <use x="883.7890625" xlink:href="#BitstreamVeraSans-Roman-37"/>
     <use x="947.412109375" xlink:href="#BitstreamVeraSans-Roman-33"/>
     <use x="1011.03515625" xlink:href="#BitstreamVeraSans-Roman-39"/>
     <use x="1074.658203125" xlink:href="#BitstreamVeraSans-Roman-39"/>
     <use x="1138.28125" xlink:href="#BitstreamVeraSans-Roman-33"/>
     <use x="1201.904296875" xlink:href="#BitstreamVeraSans-Roman-37"/>
     <use x="1265.52734375" xlink:href="#BitstreamVeraSans-Roman-31"/>
     <use x="1329.150390625" xlink:href="#BitstreamVeraSans-Roman-39"/>
     <use x="1392.7734375" xlink:href="#BitstreamVeraSans-Roman-32"/>
    </g>
   </g>
   <g id="text_18">
    <!-- $T_R$ = 0.9 -->
    <defs>
     <path d="M 4.59375 1.3125 
Q 4.640625 1.5625 4.8125 2.1875 
Q 4.984375 2.828125 5.25 3.171875 
Q 5.515625 3.515625 6 3.515625 
Q 14.59375 3.515625 17.390625 4 
Q 20.0625 4.6875 20.609375 6.890625 
L 34.28125 61.8125 
Q 34.71875 63.03125 34.71875 64.015625 
Q 34.71875 64.796875 31.203125 64.796875 
L 25.390625 64.796875 
Q 18.703125 64.796875 15.0625 62.734375 
Q 11.421875 60.6875 9.71875 57.3125 
Q 8.015625 53.953125 5.328125 46.296875 
Q 4.984375 45.40625 4.296875 45.40625 
L 3.421875 45.40625 
Q 2.390625 45.40625 2.390625 46.6875 
L 9.515625 67.390625 
Q 9.71875 68.3125 10.5 68.3125 
L 69.578125 68.3125 
Q 70.609375 68.3125 70.609375 67 
L 67.28125 46.296875 
Q 67.28125 46 66.9375 45.703125 
Q 66.609375 45.40625 66.3125 45.40625 
L 65.375 45.40625 
Q 64.40625 45.40625 64.40625 46.6875 
Q 65.484375 53.765625 65.484375 56.6875 
Q 65.484375 60.203125 64.015625 62 
Q 62.546875 63.8125 60.203125 64.296875 
Q 57.859375 64.796875 54.109375 64.796875 
L 48.1875 64.796875 
Q 45.515625 64.796875 44.578125 64.296875 
Q 43.65625 63.8125 43.015625 61.375 
L 29.296875 6.5 
Q 29.25 6.296875 29.21875 6.09375 
Q 29.203125 5.90625 29.109375 5.609375 
Q 29.109375 4.34375 30.609375 4 
Q 33.203125 3.515625 41.703125 3.515625 
Q 42.671875 3.515625 42.671875 2.203125 
Q 42.328125 0.78125 42.125 0.390625 
Q 41.9375 0 41.015625 0 
L 5.609375 0 
Q 4.59375 0 4.59375 1.3125 
" id="Cmmi10-54"/>
    </defs>
    <g transform="translate(264.6 38.2)scale(0.144 -0.144)">
     <use transform="translate(0.0 0.78125)" xlink:href="#Cmmi10-54"/>
     <use transform="translate(58.3984375 -16.224999999999994)scale(0.7)" xlink:href="#Cmmi10-52"/>
     <use transform="translate(117.891015625 0.78125)" xlink:href="#BitstreamVeraSans-Roman-20"/>
     <use transform="translate(149.678125 0.78125)" xlink:href="#BitstreamVeraSans-Roman-3d"/>
     <use transform="translate(233.4671875 0.78125)" xlink:href="#BitstreamVeraSans-Roman-20"/>
     <use transform="translate(265.254296875 0.78125)" xlink:href="#BitstreamVeraSans-Roman-30"/>
     <use transform="translate(328.87734375 0.78125)" xlink:href="#BitstreamVeraSans-Roman-2e"/>
     <use transform="translate(360.664453125 0.78125)" xlink:href="#BitstreamVeraSans-Roman-39"/>
    </g>
   </g>
  </g>
 </g>
 <defs>
  <clipPath id="p09d4482206">
   <rect height="345.6" width="446.4" x="72.0" y="43.2"/>
  </clipPath>
 </defs>
</svg>
