<?xml version="1.0" encoding="utf-8" standalone="no"?>
<!DOCTYPE svg PUBLIC "-//W3C//DTD SVG 1.1//EN"
  "http://www.w3.org/Graphics/SVG/1.1/DTD/svg11.dtd">
<!-- Created with matplotlib (http://matplotlib.org/) -->
<svg height="432pt" version="1.1" viewBox="0 0 576 432" width="576pt" xmlns="http://www.w3.org/2000/svg" xmlns:xlink="http://www.w3.org/1999/xlink">
 <defs>
  <style type="text/css">
*{stroke-linecap:butt;stroke-linejoin:round;}
  </style>
 </defs>
 <g id="figure_1">
  <g id="patch_1">
   <path d="
M0 432
L576 432
L576 0
L0 0
z
" style="fill:#ffffff;"/>
  </g>
  <g id="axes_1">
   <g id="patch_2">
    <path d="
M72 388.8
L518.4 388.8
L518.4 43.2
L72 43.2
z
" style="fill:#ffffff;"/>
   </g>
   <g id="PolyCollection_1">
    <defs>
     <path d="
M85.5273 -152.496
L85.5273 -155.001
L90.0364 -155.001
L94.5455 -155.001
L99.0545 -155.001
L103.564 -155.001
L108.073 -155.001
L112.582 -155.001
L117.091 -155.001
L121.6 -155.001
L126.109 -155.001
L130.618 -155.001
L135.127 -155.001
L139.636 -155.001
L144.145 -155.001
L144.145 -153.018
L144.145 -153.018
L139.636 -149.879
L135.127 -146.352
L130.618 -142.44
L126.109 -138.167
L121.6 -133.596
L117.091 -128.852
L112.582 -124.16
L108.073 -119.91
L103.564 -116.76
L99.0545 -115.811
L94.5455 -118.925
L90.0364 -129.29
L85.5273 -152.496
z
" id="C0_0_905877daed"/>
    </defs>
    <g clip-path="url(#p7ff5b81e1d)">
     <use style="fill:#808080;stroke:#000000;" x="0.0" xlink:href="#C0_0_905877daed" y="432.0"/>
    </g>
   </g>
   <g id="PolyCollection_2">
    <defs>
     <path d="
M148.655 -155.783
L148.655 -155.001
L153.164 -155.001
L157.673 -155.001
L162.182 -155.001
L166.691 -155.001
L171.2 -155.001
L175.709 -155.001
L180.218 -155.001
L184.727 -155.001
L189.236 -155.001
L193.745 -155.001
L198.255 -155.001
L202.764 -155.001
L207.273 -155.001
L211.782 -155.001
L216.291 -155.001
L220.8 -155.001
L225.309 -155.001
L229.818 -155.001
L234.327 -155.001
L238.836 -155.001
L243.345 -155.001
L247.855 -155.001
L252.364 -155.001
L256.873 -155.001
L261.382 -155.001
L265.891 -155.001
L270.4 -155.001
L274.909 -155.001
L279.418 -155.001
L283.927 -155.001
L288.436 -155.001
L292.945 -155.001
L297.455 -155.001
L301.964 -155.001
L306.473 -155.001
L306.473 -155.232
L306.473 -155.232
L301.964 -156.012
L297.455 -156.789
L292.945 -157.562
L288.436 -158.33
L283.927 -159.091
L279.418 -159.844
L274.909 -160.586
L270.4 -161.316
L265.891 -162.031
L261.382 -162.729
L256.873 -163.406
L252.364 -164.06
L247.855 -164.686
L243.345 -165.282
L238.836 -165.841
L234.327 -166.36
L229.818 -166.833
L225.309 -167.254
L220.8 -167.616
L216.291 -167.911
L211.782 -168.132
L207.273 -168.268
L202.764 -168.309
L198.255 -168.244
L193.745 -168.06
L189.236 -167.743
L184.727 -167.278
L180.218 -166.646
L175.709 -165.83
L171.2 -164.808
L166.691 -163.558
L162.182 -162.056
L157.673 -160.277
L153.164 -158.195
L148.655 -155.783
z
" id="C1_0_0cd5a9d83a"/>
    </defs>
    <g clip-path="url(#p7ff5b81e1d)">
     <use style="fill:#808080;stroke:#000000;" x="0.0" xlink:href="#C1_0_0cd5a9d83a" y="432.0"/>
    </g>
   </g>
   <g id="line2d_1">
    <path clip-path="url(#p7ff5b81e1d)" d="
M72 -25.92
M72.6585 -1
L76.5091 144.707
L81.0182 233.298
L85.5273 279.504
L90.0364 302.71
L94.5455 313.075
L99.0545 316.189
L103.564 315.24
L108.073 312.09
L112.582 307.84
L117.091 303.148
L121.6 298.404
L126.109 293.833
L130.618 289.56
L135.127 285.648
L139.636 282.121
L144.145 278.982
L148.655 276.217
L153.164 273.805
L157.673 271.723
L162.182 269.944
L166.691 268.442
L171.2 267.192
L175.709 266.17
L180.218 265.354
L184.727 264.722
L189.236 264.257
L193.745 263.94
L198.255 263.756
L202.764 263.691
L207.273 263.732
L211.782 263.868
L216.291 264.089
L220.8 264.384
L225.309 264.746
L229.818 265.167
L234.327 265.64
L238.836 266.159
L243.345 266.718
L247.855 267.314
L252.364 267.94
L256.873 268.594
L261.382 269.271
L265.891 269.969
L270.4 270.684
L274.909 271.414
L279.418 272.156
L283.927 272.909
L288.436 273.67
L292.945 274.438
L297.455 275.211
L301.964 275.988
L306.473 276.768
L310.982 277.549
L315.491 278.33
L320 279.111
L324.509 279.89
L329.018 280.668
L333.527 281.443
L338.036 282.214
L342.545 282.982
L347.055 283.746
L351.564 284.505
L356.073 285.259
L360.582 286.007
L365.091 286.75
L369.6 287.488
L374.109 288.219
L378.618 288.944
L383.127 289.663
L387.636 290.375
L392.145 291.081
L396.655 291.78
L401.164 292.472
L405.673 293.157
L410.182 293.836
L414.691 294.508
L419.2 295.172
L423.709 295.83
L428.218 296.481
L432.727 297.125
L437.236 297.762
L441.745 298.392
L446.255 299.015
L450.764 299.631
L455.273 300.241
L459.782 300.844
L464.291 301.44
L468.8 302.029
L473.309 302.612
L477.818 303.189
L482.327 303.759
L486.836 304.323
L491.345 304.88
L495.855 305.431
L500.364 305.976
L504.873 306.514
L509.382 307.047
L513.891 307.574
L518.4 308.095" style="fill:none;stroke:#0000ff;stroke-linecap:square;"/>
   </g>
   <g id="line2d_2">
    <path clip-path="url(#p7ff5b81e1d)" d="
M72 276.48
L518.4 276.48" style="fill:none;stroke:#000000;stroke-dasharray:6.000000,6.000000;stroke-dashoffset:0.0;"/>
   </g>
   <g id="line2d_3">
    <defs>
     <path d="
M0 3
C0.795609 3 1.55874 2.6839 2.12132 2.12132
C2.6839 1.55874 3 0.795609 3 0
C3 -0.795609 2.6839 -1.55874 2.12132 -2.12132
C1.55874 -2.6839 0.795609 -3 0 -3
C-0.795609 -3 -1.55874 -2.6839 -2.12132 -2.12132
C-2.6839 -1.55874 -3 -0.795609 -3 0
C-3 0.795609 -2.6839 1.55874 -2.12132 2.12132
C-1.55874 2.6839 -0.795609 3 0 3
z
" id="mf1e9a9e4ae" style="stroke:#000000;stroke-width:0.5;"/>
    </defs>
    <g clip-path="url(#p7ff5b81e1d)">
     <use style="fill:#0000ff;stroke:#000000;stroke-width:0.5;" x="85.1200943176" xlink:href="#mf1e9a9e4ae" y="276.48"/>
    </g>
   </g>
   <g id="line2d_4">
    <g clip-path="url(#p7ff5b81e1d)">
     <use style="fill:#0000ff;stroke:#000000;stroke-width:0.5;" x="148.198228127" xlink:href="#mf1e9a9e4ae" y="276.48"/>
    </g>
   </g>
   <g id="line2d_5">
    <g clip-path="url(#p7ff5b81e1d)">
     <use style="fill:#0000ff;stroke:#000000;stroke-width:0.5;" x="304.809150083" xlink:href="#mf1e9a9e4ae" y="276.48"/>
    </g>
   </g>
   <g id="line2d_6">
    <path clip-path="url(#p7ff5b81e1d)" d="
M72 -25.92
M72.6585 -1
L76.5091 144.707
L81.0182 233.298
L85.5273 279.504
L90.0364 302.71
L94.5455 313.075
L99.0545 316.189
L103.564 315.24
L108.073 312.09
L112.582 307.84
L117.091 303.148
L121.6 298.404
L126.109 293.833
L130.618 289.56
L135.127 285.648
L139.636 282.121
L144.145 278.982
L148.655 276.217
L153.164 273.805
L157.673 271.723
L162.182 269.944
L166.691 268.442
L171.2 267.192
L175.709 266.17
L180.218 265.354
L184.727 264.722
L189.236 264.257
L193.745 263.94
L198.255 263.756
L202.764 263.691
L207.273 263.732
L211.782 263.868
L216.291 264.089
L220.8 264.384
L225.309 264.746
L229.818 265.167
L234.327 265.64
L238.836 266.159
L243.345 266.718
L247.855 267.314
L252.364 267.94
L256.873 268.594
L261.382 269.271
L265.891 269.969
L270.4 270.684
L274.909 271.414
L279.418 272.156
L283.927 272.909
L288.436 273.67
L292.945 274.438
L297.455 275.211
L301.964 275.988
L306.473 276.768
L310.982 277.549
L315.491 278.33
L320 279.111
L324.509 279.89
L329.018 280.668
L333.527 281.443
L338.036 282.214
L342.545 282.982
L347.055 283.746
L351.564 284.505
L356.073 285.259
L360.582 286.007
L365.091 286.75
L369.6 287.488
L374.109 288.219
L378.618 288.944
L383.127 289.663
L387.636 290.375
L392.145 291.081
L396.655 291.78
L401.164 292.472
L405.673 293.157
L410.182 293.836
L414.691 294.508
L419.2 295.172
L423.709 295.83
L428.218 296.481
L432.727 297.125
L437.236 297.762
L441.745 298.392
L446.255 299.015
L450.764 299.631
L455.273 300.241
L459.782 300.844
L464.291 301.44
L468.8 302.029
L473.309 302.612
L477.818 303.189
L482.327 303.759
L486.836 304.323
L491.345 304.88
L495.855 305.431
L500.364 305.976
L504.873 306.514
L509.382 307.047
L513.891 307.574
L518.4 308.095" style="fill:none;stroke:#008000;stroke-linecap:square;"/>
   </g>
   <g id="line2d_7">
    <path clip-path="url(#p7ff5b81e1d)" d="
M72 276.999
L76.5091 276.999
L81.0182 276.999
L85.5273 276.999
L90.0364 276.999
L94.5455 276.999
L99.0545 276.999
L103.564 276.999
L108.073 276.999
L112.582 276.999
L117.091 276.999
L121.6 276.999
L126.109 276.999
L130.618 276.999
L135.127 276.999
L139.636 276.999
L144.145 276.999
L148.655 276.999
L153.164 276.999
L157.673 276.999
L162.182 276.999
L166.691 276.999
L171.2 276.999
L175.709 276.999
L180.218 276.999
L184.727 276.999
L189.236 276.999
L193.745 276.999
L198.255 276.999
L202.764 276.999
L207.273 276.999
L211.782 276.999
L216.291 276.999
L220.8 276.999
L225.309 276.999
L229.818 276.999
L234.327 276.999
L238.836 276.999
L243.345 276.999
L247.855 276.999
L252.364 276.999
L256.873 276.999
L261.382 276.999
L265.891 276.999
L270.4 276.999
L274.909 276.999
L279.418 276.999
L283.927 276.999
L288.436 276.999
L292.945 276.999
L297.455 276.999
L301.964 276.999
L306.473 276.999
L310.982 276.999
L315.491 276.999
L320 276.999
L324.509 276.999
L329.018 276.999
L333.527 276.999
L338.036 276.999
L342.545 276.999
L347.055 276.999
L351.564 276.999
L356.073 276.999
L360.582 276.999
L365.091 276.999
L369.6 276.999
L374.109 276.999
L378.618 276.999
L383.127 276.999
L387.636 276.999
L392.145 276.999
L396.655 276.999
L401.164 276.999
L405.673 276.999
L410.182 276.999
L414.691 276.999
L419.2 276.999
L423.709 276.999
L428.218 276.999
L432.727 276.999
L437.236 276.999
L441.745 276.999
L446.255 276.999
L450.764 276.999
L455.273 276.999
L459.782 276.999
L464.291 276.999
L468.8 276.999
L473.309 276.999
L477.818 276.999
L482.327 276.999
L486.836 276.999
L491.345 276.999
L495.855 276.999
L500.364 276.999
L504.873 276.999
L509.382 276.999
L513.891 276.999
L518.4 276.999" style="fill:none;stroke:#ff0000;stroke-linecap:square;"/>
   </g>
   <g id="matplotlib.axis_1">
    <g id="xtick_1">
     <g id="line2d_8">
      <defs>
       <path d="
M0 0
L0 -4" id="m93b0483c22" style="stroke:#000000;stroke-width:0.5;"/>
      </defs>
      <g>
       <use style="stroke:#000000;stroke-width:0.5;" x="72.0" xlink:href="#m93b0483c22" y="388.8"/>
      </g>
     </g>
     <g id="line2d_9">
      <defs>
       <path d="
M0 0
L0 4" id="m741efc42ff" style="stroke:#000000;stroke-width:0.5;"/>
      </defs>
      <g>
       <use style="stroke:#000000;stroke-width:0.5;" x="72.0" xlink:href="#m741efc42ff" y="43.2"/>
      </g>
     </g>
     <g id="text_1">
      <!-- 0.5 -->
      <defs>
       <path d="
M31.7812 66.4062
Q24.1719 66.4062 20.3281 58.9062
Q16.5 51.4219 16.5 36.375
Q16.5 21.3906 20.3281 13.8906
Q24.1719 6.39062 31.7812 6.39062
Q39.4531 6.39062 43.2812 13.8906
Q47.125 21.3906 47.125 36.375
Q47.125 51.4219 43.2812 58.9062
Q39.4531 66.4062 31.7812 66.4062
M31.7812 74.2188
Q44.0469 74.2188 50.5156 64.5156
Q56.9844 54.8281 56.9844 36.375
Q56.9844 17.9688 50.5156 8.26562
Q44.0469 -1.42188 31.7812 -1.42188
Q19.5312 -1.42188 13.0625 8.26562
Q6.59375 17.9688 6.59375 36.375
Q6.59375 54.8281 13.0625 64.5156
Q19.5312 74.2188 31.7812 74.2188" id="BitstreamVeraSans-Roman-30"/>
       <path d="
M10.6875 12.4062
L21 12.4062
L21 0
L10.6875 0
z
" id="BitstreamVeraSans-Roman-2e"/>
       <path d="
M10.7969 72.9062
L49.5156 72.9062
L49.5156 64.5938
L19.8281 64.5938
L19.8281 46.7344
Q21.9688 47.4688 24.1094 47.8281
Q26.2656 48.1875 28.4219 48.1875
Q40.625 48.1875 47.75 41.5
Q54.8906 34.8125 54.8906 23.3906
Q54.8906 11.625 47.5625 5.09375
Q40.2344 -1.42188 26.9062 -1.42188
Q22.3125 -1.42188 17.5469 -0.640625
Q12.7969 0.140625 7.71875 1.70312
L7.71875 11.625
Q12.1094 9.23438 16.7969 8.0625
Q21.4844 6.89062 26.7031 6.89062
Q35.1562 6.89062 40.0781 11.3281
Q45.0156 15.7656 45.0156 23.3906
Q45.0156 31 40.0781 35.4375
Q35.1562 39.8906 26.7031 39.8906
Q22.75 39.8906 18.8125 39.0156
Q14.8906 38.1406 10.7969 36.2812
z
" id="BitstreamVeraSans-Roman-35"/>
      </defs>
      <g transform="translate(63.3778125 401.918125)scale(0.12 -0.12)">
       <use xlink:href="#BitstreamVeraSans-Roman-30"/>
       <use x="63.623046875" xlink:href="#BitstreamVeraSans-Roman-2e"/>
       <use x="95.41015625" xlink:href="#BitstreamVeraSans-Roman-35"/>
      </g>
     </g>
    </g>
    <g id="xtick_2">
     <g id="line2d_10">
      <g>
       <use style="stroke:#000000;stroke-width:0.5;" x="135.771428571" xlink:href="#m93b0483c22" y="388.8"/>
      </g>
     </g>
     <g id="line2d_11">
      <g>
       <use style="stroke:#000000;stroke-width:0.5;" x="135.771428571" xlink:href="#m741efc42ff" y="43.2"/>
      </g>
     </g>
     <g id="text_2">
      <!-- 1.0 -->
      <defs>
       <path d="
M12.4062 8.29688
L28.5156 8.29688
L28.5156 63.9219
L10.9844 60.4062
L10.9844 69.3906
L28.4219 72.9062
L38.2812 72.9062
L38.2812 8.29688
L54.3906 8.29688
L54.3906 0
L12.4062 0
z
" id="BitstreamVeraSans-Roman-31"/>
      </defs>
      <g transform="translate(127.287053571 401.918125)scale(0.12 -0.12)">
       <use xlink:href="#BitstreamVeraSans-Roman-31"/>
       <use x="63.623046875" xlink:href="#BitstreamVeraSans-Roman-2e"/>
       <use x="95.41015625" xlink:href="#BitstreamVeraSans-Roman-30"/>
      </g>
     </g>
    </g>
    <g id="xtick_3">
     <g id="line2d_12">
      <g>
       <use style="stroke:#000000;stroke-width:0.5;" x="199.542857143" xlink:href="#m93b0483c22" y="388.8"/>
      </g>
     </g>
     <g id="line2d_13">
      <g>
       <use style="stroke:#000000;stroke-width:0.5;" x="199.542857143" xlink:href="#m741efc42ff" y="43.2"/>
      </g>
     </g>
     <g id="text_3">
      <!-- 1.5 -->
      <g transform="translate(191.184107143 401.918125)scale(0.12 -0.12)">
       <use xlink:href="#BitstreamVeraSans-Roman-31"/>
       <use x="63.623046875" xlink:href="#BitstreamVeraSans-Roman-2e"/>
       <use x="95.41015625" xlink:href="#BitstreamVeraSans-Roman-35"/>
      </g>
     </g>
    </g>
    <g id="xtick_4">
     <g id="line2d_14">
      <g>
       <use style="stroke:#000000;stroke-width:0.5;" x="263.314285714" xlink:href="#m93b0483c22" y="388.8"/>
      </g>
     </g>
     <g id="line2d_15">
      <g>
       <use style="stroke:#000000;stroke-width:0.5;" x="263.314285714" xlink:href="#m741efc42ff" y="43.2"/>
      </g>
     </g>
     <g id="text_4">
      <!-- 2.0 -->
      <defs>
       <path d="
M19.1875 8.29688
L53.6094 8.29688
L53.6094 0
L7.32812 0
L7.32812 8.29688
Q12.9375 14.1094 22.625 23.8906
Q32.3281 33.6875 34.8125 36.5312
Q39.5469 41.8438 41.4219 45.5312
Q43.3125 49.2188 43.3125 52.7812
Q43.3125 58.5938 39.2344 62.25
Q35.1562 65.9219 28.6094 65.9219
Q23.9688 65.9219 18.8125 64.3125
Q13.6719 62.7031 7.8125 59.4219
L7.8125 69.3906
Q13.7656 71.7812 18.9375 73
Q24.125 74.2188 28.4219 74.2188
Q39.75 74.2188 46.4844 68.5469
Q53.2188 62.8906 53.2188 53.4219
Q53.2188 48.9219 51.5312 44.8906
Q49.8594 40.875 45.4062 35.4062
Q44.1875 33.9844 37.6406 27.2188
Q31.1094 20.4531 19.1875 8.29688" id="BitstreamVeraSans-Roman-32"/>
      </defs>
      <g transform="translate(254.610535714 401.918125)scale(0.12 -0.12)">
       <use xlink:href="#BitstreamVeraSans-Roman-32"/>
       <use x="63.623046875" xlink:href="#BitstreamVeraSans-Roman-2e"/>
       <use x="95.41015625" xlink:href="#BitstreamVeraSans-Roman-30"/>
      </g>
     </g>
    </g>
    <g id="xtick_5">
     <g id="line2d_16">
      <g>
       <use style="stroke:#000000;stroke-width:0.5;" x="327.085714286" xlink:href="#m93b0483c22" y="388.8"/>
      </g>
     </g>
     <g id="line2d_17">
      <g>
       <use style="stroke:#000000;stroke-width:0.5;" x="327.085714286" xlink:href="#m741efc42ff" y="43.2"/>
      </g>
     </g>
     <g id="text_5">
      <!-- 2.5 -->
      <g transform="translate(318.507589286 401.918125)scale(0.12 -0.12)">
       <use xlink:href="#BitstreamVeraSans-Roman-32"/>
       <use x="63.623046875" xlink:href="#BitstreamVeraSans-Roman-2e"/>
       <use x="95.41015625" xlink:href="#BitstreamVeraSans-Roman-35"/>
      </g>
     </g>
    </g>
    <g id="xtick_6">
     <g id="line2d_18">
      <g>
       <use style="stroke:#000000;stroke-width:0.5;" x="390.857142857" xlink:href="#m93b0483c22" y="388.8"/>
      </g>
     </g>
     <g id="line2d_19">
      <g>
       <use style="stroke:#000000;stroke-width:0.5;" x="390.857142857" xlink:href="#m741efc42ff" y="43.2"/>
      </g>
     </g>
     <g id="text_6">
      <!-- 3.0 -->
      <defs>
       <path d="
M40.5781 39.3125
Q47.6562 37.7969 51.625 33
Q55.6094 28.2188 55.6094 21.1875
Q55.6094 10.4062 48.1875 4.48438
Q40.7656 -1.42188 27.0938 -1.42188
Q22.5156 -1.42188 17.6562 -0.515625
Q12.7969 0.390625 7.625 2.20312
L7.625 11.7188
Q11.7188 9.32812 16.5938 8.10938
Q21.4844 6.89062 26.8125 6.89062
Q36.0781 6.89062 40.9375 10.5469
Q45.7969 14.2031 45.7969 21.1875
Q45.7969 27.6406 41.2812 31.2656
Q36.7656 34.9062 28.7188 34.9062
L20.2188 34.9062
L20.2188 43.0156
L29.1094 43.0156
Q36.375 43.0156 40.2344 45.9219
Q44.0938 48.8281 44.0938 54.2969
Q44.0938 59.9062 40.1094 62.9062
Q36.1406 65.9219 28.7188 65.9219
Q24.6562 65.9219 20.0156 65.0312
Q15.375 64.1562 9.8125 62.3125
L9.8125 71.0938
Q15.4375 72.6562 20.3438 73.4375
Q25.25 74.2188 29.5938 74.2188
Q40.8281 74.2188 47.3594 69.1094
Q53.9062 64.0156 53.9062 55.3281
Q53.9062 49.2656 50.4375 45.0938
Q46.9688 40.9219 40.5781 39.3125" id="BitstreamVeraSans-Roman-33"/>
      </defs>
      <g transform="translate(382.171205357 401.918125)scale(0.12 -0.12)">
       <use xlink:href="#BitstreamVeraSans-Roman-33"/>
       <use x="63.623046875" xlink:href="#BitstreamVeraSans-Roman-2e"/>
       <use x="95.41015625" xlink:href="#BitstreamVeraSans-Roman-30"/>
      </g>
     </g>
    </g>
    <g id="xtick_7">
     <g id="line2d_20">
      <g>
       <use style="stroke:#000000;stroke-width:0.5;" x="454.628571429" xlink:href="#m93b0483c22" y="388.8"/>
      </g>
     </g>
     <g id="line2d_21">
      <g>
       <use style="stroke:#000000;stroke-width:0.5;" x="454.628571429" xlink:href="#m741efc42ff" y="43.2"/>
      </g>
     </g>
     <g id="text_7">
      <!-- 3.5 -->
      <g transform="translate(446.068258929 401.918125)scale(0.12 -0.12)">
       <use xlink:href="#BitstreamVeraSans-Roman-33"/>
       <use x="63.623046875" xlink:href="#BitstreamVeraSans-Roman-2e"/>
       <use x="95.41015625" xlink:href="#BitstreamVeraSans-Roman-35"/>
      </g>
     </g>
    </g>
    <g id="xtick_8">
     <g id="line2d_22">
      <g>
       <use style="stroke:#000000;stroke-width:0.5;" x="518.4" xlink:href="#m93b0483c22" y="388.8"/>
      </g>
     </g>
     <g id="line2d_23">
      <g>
       <use style="stroke:#000000;stroke-width:0.5;" x="518.4" xlink:href="#m741efc42ff" y="43.2"/>
      </g>
     </g>
     <g id="text_8">
      <!-- 4.0 -->
      <defs>
       <path d="
M37.7969 64.3125
L12.8906 25.3906
L37.7969 25.3906
z

M35.2031 72.9062
L47.6094 72.9062
L47.6094 25.3906
L58.0156 25.3906
L58.0156 17.1875
L47.6094 17.1875
L47.6094 0
L37.7969 0
L37.7969 17.1875
L4.89062 17.1875
L4.89062 26.7031
z
" id="BitstreamVeraSans-Roman-34"/>
      </defs>
      <g transform="translate(509.55 401.918125)scale(0.12 -0.12)">
       <use xlink:href="#BitstreamVeraSans-Roman-34"/>
       <use x="63.623046875" xlink:href="#BitstreamVeraSans-Roman-2e"/>
       <use x="95.41015625" xlink:href="#BitstreamVeraSans-Roman-30"/>
      </g>
     </g>
    </g>
    <g id="text_9">
     <!-- $V_R$ -->
     <defs>
      <path d="
M4.89062 0
Q3.90625 0 3.90625 1.3125
Q3.95312 1.5625 4.09375 2.17188
Q4.25 2.78125 4.51562 3.14062
Q4.78125 3.51562 5.17188 3.51562
Q11.2812 3.51562 13.7188 4.20312
Q14.9844 4.64062 15.5781 6.89062
L29.2969 61.8125
Q29.5 62.7969 29.5 63.1875
Q29.5 64.2656 28.3281 64.4062
Q26.4219 64.7969 21.0938 64.7969
Q20.125 64.7969 20.125 66.1094
Q20.1719 66.3594 20.3125 66.9688
Q20.4531 67.5781 20.7188 67.9375
Q21 68.3125 21.3906 68.3125
L51.7031 68.3125
Q55.3281 68.3125 59.2344 67.4844
Q63.1406 66.6562 66.4062 64.875
Q69.6719 63.0938 71.7656 60.125
Q73.875 57.1719 73.875 53.2188
Q73.875 48.1875 70.5469 44.2344
Q67.2344 40.2812 62.1562 37.625
Q57.0781 34.9688 52.2969 33.8906
Q56.2031 32.4688 58.6875 29.3594
Q61.1875 26.2656 61.1875 22.2188
Q61.1875 21.6875 61.1562 21.4062
Q61.1406 21.1406 61.0781 20.7969
L60.2969 11.9219
Q60.2031 9.96875 60.1094 8.59375
Q60.0156 7.23438 60.0156 6.39062
Q60.0156 3.65625 60.8125 2.01562
Q61.625 0.390625 64.0156 0.390625
Q67.1406 0.390625 69.5 3.29688
Q71.875 6.20312 72.6094 9.625
Q73.0469 10.5 73.5781 10.5
L74.5156 10.5
Q75.4844 10.5 75.4844 9.1875
Q74.75 6.29688 73.1562 3.70312
Q71.5781 1.125 69.1562 -0.53125
Q66.75 -2.20312 63.9219 -2.20312
Q58.0625 -2.20312 53.9375 0.40625
Q49.8125 3.03125 49.8125 8.59375
Q49.8125 10.6875 50.2031 12.3125
L52.3906 21.1875
Q52.7812 22.4062 52.7812 24.0312
Q52.7812 28.1719 49.9688 30.5312
Q47.1719 32.9062 42.9219 32.9062
L30.6094 32.9062
L24.0312 6.5
Q23.7812 5.67188 23.7812 5.07812
Q23.7812 4.04688 25 3.90625
Q26.9062 3.51562 32.1719 3.51562
Q33.2031 3.51562 33.2031 2.20312
Q32.8594 0.78125 32.6562 0.390625
Q32.4688 0 31.5 0
z

M31.2031 35.5
L42.2812 35.5
Q53.1719 35.5 58.6875 41.0156
Q61.2344 43.5625 62.7188 47.4844
Q64.2031 51.4219 64.2031 55.3281
Q64.2031 59.0312 62.0312 61.125
Q59.8594 63.2344 56.6562 64.0156
Q53.4688 64.7969 49.6094 64.7969
L42.9219 64.7969
Q40.1875 64.7969 39.2969 64.3281
Q38.4219 63.875 37.7031 61.375
z
" id="Cmmi10-52"/>
      <path d="
M22.0156 -1.125
L14.0156 62.5938
Q13.2812 64.7969 6.5 64.7969
Q5.51562 64.7969 5.51562 66.1094
Q5.71875 67.1875 6 67.75
Q6.29688 68.3125 7.17188 68.3125
L31.5938 68.3125
Q32.125 68.3125 32.375 67.9219
Q32.625 67.5312 32.625 67
Q32.2344 64.7969 31.2969 64.7969
Q23.4844 64.7969 23 62.1094
L29.5938 9.8125
L60.4062 58.9844
Q61.2812 60.6406 61.2812 61.625
Q61.2812 63.375 59.6875 64.0781
Q58.1094 64.7969 56 64.7969
Q54.9844 64.7969 54.9844 66.1094
Q55.1719 66.8906 55.3125 67.3281
Q55.4688 67.7812 55.7656 68.0469
Q56.0625 68.3125 56.6875 68.3125
L75.9844 68.3125
Q76.9062 68.3125 76.9062 67
Q76.5156 64.7969 75.5938 64.7969
Q68.0625 64.7969 63.8125 58.2031
Q63.625 58.0156 63.4844 58.0156
L26.6094 -1.125
Q25.875 -2.20312 24.7031 -2.20312
L23.2969 -2.20312
Q22.1719 -2.20312 22.0156 -1.125" id="Cmmi10-56"/>
     </defs>
     <g transform="translate(287.1 417.69375)scale(0.12 -0.12)">
      <use transform="translate(0.0 0.6875)" xlink:href="#Cmmi10-56"/>
      <use transform="translate(58.30078125 -24.821875)scale(0.7)" xlink:href="#Cmmi10-52"/>
     </g>
    </g>
   </g>
   <g id="matplotlib.axis_2">
    <g id="ytick_1">
     <g id="line2d_24">
      <defs>
       <path d="
M0 0
L4 0" id="m728421d6d4" style="stroke:#000000;stroke-width:0.5;"/>
      </defs>
      <g>
       <use style="stroke:#000000;stroke-width:0.5;" x="72.0" xlink:href="#m728421d6d4" y="388.8"/>
      </g>
     </g>
     <g id="line2d_25">
      <defs>
       <path d="
M0 0
L-4 0" id="mcb0005524f" style="stroke:#000000;stroke-width:0.5;"/>
      </defs>
      <g>
       <use style="stroke:#000000;stroke-width:0.5;" x="518.4" xlink:href="#mcb0005524f" y="388.8"/>
      </g>
     </g>
     <g id="text_10">
      <!-- 0.0 -->
      <g transform="translate(50.504375 392.11125)scale(0.12 -0.12)">
       <use xlink:href="#BitstreamVeraSans-Roman-30"/>
       <use x="63.623046875" xlink:href="#BitstreamVeraSans-Roman-2e"/>
       <use x="95.41015625" xlink:href="#BitstreamVeraSans-Roman-30"/>
      </g>
     </g>
    </g>
    <g id="ytick_2">
     <g id="line2d_26">
      <g>
       <use style="stroke:#000000;stroke-width:0.5;" x="72.0" xlink:href="#m728421d6d4" y="302.4"/>
      </g>
     </g>
     <g id="line2d_27">
      <g>
       <use style="stroke:#000000;stroke-width:0.5;" x="518.4" xlink:href="#mcb0005524f" y="302.4"/>
      </g>
     </g>
     <g id="text_11">
      <!-- 0.5 -->
      <g transform="translate(50.755625 305.71125)scale(0.12 -0.12)">
       <use xlink:href="#BitstreamVeraSans-Roman-30"/>
       <use x="63.623046875" xlink:href="#BitstreamVeraSans-Roman-2e"/>
       <use x="95.41015625" xlink:href="#BitstreamVeraSans-Roman-35"/>
      </g>
     </g>
    </g>
    <g id="ytick_3">
     <g id="line2d_28">
      <g>
       <use style="stroke:#000000;stroke-width:0.5;" x="72.0" xlink:href="#m728421d6d4" y="216.0"/>
      </g>
     </g>
     <g id="line2d_29">
      <g>
       <use style="stroke:#000000;stroke-width:0.5;" x="518.4" xlink:href="#mcb0005524f" y="216.0"/>
      </g>
     </g>
     <g id="text_12">
      <!-- 1.0 -->
      <g transform="translate(51.03125 219.31125)scale(0.12 -0.12)">
       <use xlink:href="#BitstreamVeraSans-Roman-31"/>
       <use x="63.623046875" xlink:href="#BitstreamVeraSans-Roman-2e"/>
       <use x="95.41015625" xlink:href="#BitstreamVeraSans-Roman-30"/>
      </g>
     </g>
    </g>
    <g id="ytick_4">
     <g id="line2d_30">
      <g>
       <use style="stroke:#000000;stroke-width:0.5;" x="72.0" xlink:href="#m728421d6d4" y="129.6"/>
      </g>
     </g>
     <g id="line2d_31">
      <g>
       <use style="stroke:#000000;stroke-width:0.5;" x="518.4" xlink:href="#mcb0005524f" y="129.6"/>
      </g>
     </g>
     <g id="text_13">
      <!-- 1.5 -->
      <g transform="translate(51.2825 132.91125)scale(0.12 -0.12)">
       <use xlink:href="#BitstreamVeraSans-Roman-31"/>
       <use x="63.623046875" xlink:href="#BitstreamVeraSans-Roman-2e"/>
       <use x="95.41015625" xlink:href="#BitstreamVeraSans-Roman-35"/>
      </g>
     </g>
    </g>
    <g id="ytick_5">
     <g id="line2d_32">
      <g>
       <use style="stroke:#000000;stroke-width:0.5;" x="72.0" xlink:href="#m728421d6d4" y="43.2"/>
      </g>
     </g>
     <g id="line2d_33">
      <g>
       <use style="stroke:#000000;stroke-width:0.5;" x="518.4" xlink:href="#mcb0005524f" y="43.2"/>
      </g>
     </g>
     <g id="text_14">
      <!-- 2.0 -->
      <g transform="translate(50.5925 46.51125)scale(0.12 -0.12)">
       <use xlink:href="#BitstreamVeraSans-Roman-32"/>
       <use x="63.623046875" xlink:href="#BitstreamVeraSans-Roman-2e"/>
       <use x="95.41015625" xlink:href="#BitstreamVeraSans-Roman-30"/>
      </g>
     </g>
    </g>
    <g id="text_15">
     <!-- $P_R$ -->
     <defs>
      <path d="
M4.89062 0
Q3.90625 0 3.90625 1.3125
Q3.95312 1.5625 4.09375 2.17188
Q4.25 2.78125 4.51562 3.14062
Q4.78125 3.51562 5.17188 3.51562
Q11.2812 3.51562 13.7188 4.20312
Q14.9844 4.64062 15.5781 6.89062
L29.2969 61.8125
Q29.5 62.7969 29.5 63.1875
Q29.5 64.2656 28.3281 64.4062
Q26.4219 64.7969 21.0938 64.7969
Q20.125 64.7969 20.125 66.1094
Q20.1719 66.3594 20.3125 66.9688
Q20.4531 67.5781 20.7188 67.9375
Q21 68.3125 21.3906 68.3125
L55.9062 68.3125
Q60.6406 68.3125 65.0781 66.625
Q69.5312 64.9375 72.3594 61.4688
Q75.2031 58.0156 75.2031 53.0781
Q75.2031 46.7344 70.7344 41.75
Q66.2656 36.7656 59.5938 33.9844
Q52.9375 31.2031 46.6875 31.2031
L30.4219 31.2031
L24.3125 6.5
Q24.125 5.51562 24.125 5.07812
Q24.125 4.6875 24.2344 4.42188
Q24.3594 4.15625 24.5781 4.07812
Q24.8125 4 25.2969 3.90625
Q27.2031 3.51562 32.5156 3.51562
Q33.5 3.51562 33.5 2.20312
Q33.1562 0.78125 32.9531 0.390625
Q32.7656 0 31.7812 0
z

M30.9062 34.1875
L44.9219 34.1875
Q54.6406 34.1875 59.7188 39.4062
Q62.3125 42 63.9375 46.875
Q65.5781 51.7656 65.5781 55.7188
Q65.5781 60.6406 61.8125 62.7188
Q58.0625 64.7969 52.4844 64.7969
L42.9219 64.7969
Q40.1875 64.7969 39.2969 64.3281
Q38.4219 63.875 37.7031 61.375
z
" id="Cmmi10-50"/>
     </defs>
     <g transform="translate(42.144375 224.46)rotate(-90.0)scale(0.12 -0.12)">
      <use transform="translate(0.0 0.6875)" xlink:href="#Cmmi10-50"/>
      <use transform="translate(64.208984375 -24.821875)scale(0.7)" xlink:href="#Cmmi10-52"/>
     </g>
    </g>
   </g>
   <g id="patch_3">
    <path d="
M72 43.2
L518.4 43.2" style="fill:none;stroke:#000000;"/>
   </g>
   <g id="patch_4">
    <path d="
M518.4 388.8
L518.4 43.2" style="fill:none;stroke:#000000;"/>
   </g>
   <g id="patch_5">
    <path d="
M72 388.8
L518.4 388.8" style="fill:none;stroke:#000000;"/>
   </g>
   <g id="patch_6">
    <path d="
M72 388.8
L72 43.2" style="fill:none;stroke:#000000;"/>
   </g>
   <g id="text_16">
    <!-- A1 = 0.0617526473994 -->
    <defs>
     <path id="BitstreamVeraSans-Roman-20"/>
     <path d="
M33.0156 40.375
Q26.375 40.375 22.4844 35.8281
Q18.6094 31.2969 18.6094 23.3906
Q18.6094 15.5312 22.4844 10.9531
Q26.375 6.39062 33.0156 6.39062
Q39.6562 6.39062 43.5312 10.9531
Q47.4062 15.5312 47.4062 23.3906
Q47.4062 31.2969 43.5312 35.8281
Q39.6562 40.375 33.0156 40.375
M52.5938 71.2969
L52.5938 62.3125
Q48.875 64.0625 45.0938 64.9844
Q41.3125 65.9219 37.5938 65.9219
Q27.8281 65.9219 22.6719 59.3281
Q17.5312 52.7344 16.7969 39.4062
Q19.6719 43.6562 24.0156 45.9219
Q28.375 48.1875 33.5938 48.1875
Q44.5781 48.1875 50.9531 41.5156
Q57.3281 34.8594 57.3281 23.3906
Q57.3281 12.1562 50.6875 5.35938
Q44.0469 -1.42188 33.0156 -1.42188
Q20.3594 -1.42188 13.6719 8.26562
Q6.98438 17.9688 6.98438 36.375
Q6.98438 53.6562 15.1875 63.9375
Q23.3906 74.2188 37.2031 74.2188
Q40.9219 74.2188 44.7031 73.4844
Q48.4844 72.75 52.5938 71.2969" id="BitstreamVeraSans-Roman-36"/>
     <path d="
M34.1875 63.1875
L20.7969 26.9062
L47.6094 26.9062
z

M28.6094 72.9062
L39.7969 72.9062
L67.5781 0
L57.3281 0
L50.6875 18.7031
L17.8281 18.7031
L11.1875 0
L0.78125 0
z
" id="BitstreamVeraSans-Roman-41"/>
     <path d="
M10.9844 1.51562
L10.9844 10.5
Q14.7031 8.73438 18.5 7.8125
Q22.3125 6.89062 25.9844 6.89062
Q35.75 6.89062 40.8906 13.4531
Q46.0469 20.0156 46.7812 33.4062
Q43.9531 29.2031 39.5938 26.9531
Q35.25 24.7031 29.9844 24.7031
Q19.0469 24.7031 12.6719 31.3125
Q6.29688 37.9375 6.29688 49.4219
Q6.29688 60.6406 12.9375 67.4219
Q19.5781 74.2188 30.6094 74.2188
Q43.2656 74.2188 49.9219 64.5156
Q56.5938 54.8281 56.5938 36.375
Q56.5938 19.1406 48.4062 8.85938
Q40.2344 -1.42188 26.4219 -1.42188
Q22.7031 -1.42188 18.8906 -0.6875
Q15.0938 0.046875 10.9844 1.51562
M30.6094 32.4219
Q37.25 32.4219 41.125 36.9531
Q45.0156 41.5 45.0156 49.4219
Q45.0156 57.2812 41.125 61.8438
Q37.25 66.4062 30.6094 66.4062
Q23.9688 66.4062 20.0938 61.8438
Q16.2188 57.2812 16.2188 49.4219
Q16.2188 41.5 20.0938 36.9531
Q23.9688 32.4219 30.6094 32.4219" id="BitstreamVeraSans-Roman-39"/>
     <path d="
M10.5938 45.4062
L73.1875 45.4062
L73.1875 37.2031
L10.5938 37.2031
z

M10.5938 25.4844
L73.1875 25.4844
L73.1875 17.1875
L10.5938 17.1875
z
" id="BitstreamVeraSans-Roman-3d"/>
     <path d="
M8.20312 72.9062
L55.0781 72.9062
L55.0781 68.7031
L28.6094 0
L18.3125 0
L43.2188 64.5938
L8.20312 64.5938
z
" id="BitstreamVeraSans-Roman-37"/>
    </defs>
    <g transform="translate(85.1881741653 216.0)scale(0.12 -0.12)">
     <use xlink:href="#BitstreamVeraSans-Roman-41"/>
     <use x="68.408203125" xlink:href="#BitstreamVeraSans-Roman-31"/>
     <use x="132.03125" xlink:href="#BitstreamVeraSans-Roman-20"/>
     <use x="163.818359375" xlink:href="#BitstreamVeraSans-Roman-3d"/>
     <use x="247.607421875" xlink:href="#BitstreamVeraSans-Roman-20"/>
     <use x="279.39453125" xlink:href="#BitstreamVeraSans-Roman-30"/>
     <use x="343.017578125" xlink:href="#BitstreamVeraSans-Roman-2e"/>
     <use x="374.8046875" xlink:href="#BitstreamVeraSans-Roman-30"/>
     <use x="438.427734375" xlink:href="#BitstreamVeraSans-Roman-36"/>
     <use x="502.05078125" xlink:href="#BitstreamVeraSans-Roman-31"/>
     <use x="565.673828125" xlink:href="#BitstreamVeraSans-Roman-37"/>
     <use x="629.296875" xlink:href="#BitstreamVeraSans-Roman-35"/>
     <use x="692.919921875" xlink:href="#BitstreamVeraSans-Roman-32"/>
     <use x="756.54296875" xlink:href="#BitstreamVeraSans-Roman-36"/>
     <use x="820.166015625" xlink:href="#BitstreamVeraSans-Roman-34"/>
     <use x="883.7890625" xlink:href="#BitstreamVeraSans-Roman-37"/>
     <use x="947.412109375" xlink:href="#BitstreamVeraSans-Roman-33"/>
     <use x="1011.03515625" xlink:href="#BitstreamVeraSans-Roman-39"/>
     <use x="1074.65820312" xlink:href="#BitstreamVeraSans-Roman-39"/>
     <use x="1138.28125" xlink:href="#BitstreamVeraSans-Roman-34"/>
    </g>
   </g>
   <g id="text_17">
    <!-- A2 = 0.0617526473994 -->
    <g transform="translate(307.806639068 216.0)scale(0.12 -0.12)">
     <use xlink:href="#BitstreamVeraSans-Roman-41"/>
     <use x="68.408203125" xlink:href="#BitstreamVeraSans-Roman-32"/>
     <use x="132.03125" xlink:href="#BitstreamVeraSans-Roman-20"/>
     <use x="163.818359375" xlink:href="#BitstreamVeraSans-Roman-3d"/>
     <use x="247.607421875" xlink:href="#BitstreamVeraSans-Roman-20"/>
     <use x="279.39453125" xlink:href="#BitstreamVeraSans-Roman-30"/>
     <use x="343.017578125" xlink:href="#BitstreamVeraSans-Roman-2e"/>
     <use x="374.8046875" xlink:href="#BitstreamVeraSans-Roman-30"/>
     <use x="438.427734375" xlink:href="#BitstreamVeraSans-Roman-36"/>
     <use x="502.05078125" xlink:href="#BitstreamVeraSans-Roman-31"/>
     <use x="565.673828125" xlink:href="#BitstreamVeraSans-Roman-37"/>
     <use x="629.296875" xlink:href="#BitstreamVeraSans-Roman-35"/>
     <use x="692.919921875" xlink:href="#BitstreamVeraSans-Roman-32"/>
     <use x="756.54296875" xlink:href="#BitstreamVeraSans-Roman-36"/>
     <use x="820.166015625" xlink:href="#BitstreamVeraSans-Roman-34"/>
     <use x="883.7890625" xlink:href="#BitstreamVeraSans-Roman-37"/>
     <use x="947.412109375" xlink:href="#BitstreamVeraSans-Roman-33"/>
     <use x="1011.03515625" xlink:href="#BitstreamVeraSans-Roman-39"/>
     <use x="1074.65820312" xlink:href="#BitstreamVeraSans-Roman-39"/>
     <use x="1138.28125" xlink:href="#BitstreamVeraSans-Roman-34"/>
    </g>
   </g>
   <g id="text_18">
    <!-- A1 = 0.0617526473994 -->
    <g transform="translate(85.1881741653 216.0)scale(0.12 -0.12)">
     <use xlink:href="#BitstreamVeraSans-Roman-41"/>
     <use x="68.408203125" xlink:href="#BitstreamVeraSans-Roman-31"/>
     <use x="132.03125" xlink:href="#BitstreamVeraSans-Roman-20"/>
     <use x="163.818359375" xlink:href="#BitstreamVeraSans-Roman-3d"/>
     <use x="247.607421875" xlink:href="#BitstreamVeraSans-Roman-20"/>
     <use x="279.39453125" xlink:href="#BitstreamVeraSans-Roman-30"/>
     <use x="343.017578125" xlink:href="#BitstreamVeraSans-Roman-2e"/>
     <use x="374.8046875" xlink:href="#BitstreamVeraSans-Roman-30"/>
     <use x="438.427734375" xlink:href="#BitstreamVeraSans-Roman-36"/>
     <use x="502.05078125" xlink:href="#BitstreamVeraSans-Roman-31"/>
     <use x="565.673828125" xlink:href="#BitstreamVeraSans-Roman-37"/>
     <use x="629.296875" xlink:href="#BitstreamVeraSans-Roman-35"/>
     <use x="692.919921875" xlink:href="#BitstreamVeraSans-Roman-32"/>
     <use x="756.54296875" xlink:href="#BitstreamVeraSans-Roman-36"/>
     <use x="820.166015625" xlink:href="#BitstreamVeraSans-Roman-34"/>
     <use x="883.7890625" xlink:href="#BitstreamVeraSans-Roman-37"/>
     <use x="947.412109375" xlink:href="#BitstreamVeraSans-Roman-33"/>
     <use x="1011.03515625" xlink:href="#BitstreamVeraSans-Roman-39"/>
     <use x="1074.65820312" xlink:href="#BitstreamVeraSans-Roman-39"/>
     <use x="1138.28125" xlink:href="#BitstreamVeraSans-Roman-34"/>
    </g>
   </g>
   <g id="text_19">
    <!-- A2 = 0.0617526473994 -->
    <g transform="translate(307.806639068 216.0)scale(0.12 -0.12)">
     <use xlink:href="#BitstreamVeraSans-Roman-41"/>
     <use x="68.408203125" xlink:href="#BitstreamVeraSans-Roman-32"/>
     <use x="132.03125" xlink:href="#BitstreamVeraSans-Roman-20"/>
     <use x="163.818359375" xlink:href="#BitstreamVeraSans-Roman-3d"/>
     <use x="247.607421875" xlink:href="#BitstreamVeraSans-Roman-20"/>
     <use x="279.39453125" xlink:href="#BitstreamVeraSans-Roman-30"/>
     <use x="343.017578125" xlink:href="#BitstreamVeraSans-Roman-2e"/>
     <use x="374.8046875" xlink:href="#BitstreamVeraSans-Roman-30"/>
     <use x="438.427734375" xlink:href="#BitstreamVeraSans-Roman-36"/>
     <use x="502.05078125" xlink:href="#BitstreamVeraSans-Roman-31"/>
     <use x="565.673828125" xlink:href="#BitstreamVeraSans-Roman-37"/>
     <use x="629.296875" xlink:href="#BitstreamVeraSans-Roman-35"/>
     <use x="692.919921875" xlink:href="#BitstreamVeraSans-Roman-32"/>
     <use x="756.54296875" xlink:href="#BitstreamVeraSans-Roman-36"/>
     <use x="820.166015625" xlink:href="#BitstreamVeraSans-Roman-34"/>
     <use x="883.7890625" xlink:href="#BitstreamVeraSans-Roman-37"/>
     <use x="947.412109375" xlink:href="#BitstreamVeraSans-Roman-33"/>
     <use x="1011.03515625" xlink:href="#BitstreamVeraSans-Roman-39"/>
     <use x="1074.65820312" xlink:href="#BitstreamVeraSans-Roman-39"/>
     <use x="1138.28125" xlink:href="#BitstreamVeraSans-Roman-34"/>
    </g>
   </g>
   <g id="text_20">
    <!-- $T_R$ = 0.9 -->
    <defs>
     <path d="
M4.59375 1.3125
Q4.64062 1.5625 4.8125 2.1875
Q4.98438 2.82812 5.25 3.17188
Q5.51562 3.51562 6 3.51562
Q14.5938 3.51562 17.3906 4
Q20.0625 4.6875 20.6094 6.89062
L34.2812 61.8125
Q34.7188 63.0312 34.7188 64.0156
Q34.7188 64.7969 31.2031 64.7969
L25.3906 64.7969
Q18.7031 64.7969 15.0625 62.7344
Q11.4219 60.6875 9.71875 57.3125
Q8.01562 53.9531 5.32812 46.2969
Q4.98438 45.4062 4.29688 45.4062
L3.42188 45.4062
Q2.39062 45.4062 2.39062 46.6875
L9.51562 67.3906
Q9.71875 68.3125 10.5 68.3125
L69.5781 68.3125
Q70.6094 68.3125 70.6094 67
L67.2812 46.2969
Q67.2812 46 66.9375 45.7031
Q66.6094 45.4062 66.3125 45.4062
L65.375 45.4062
Q64.4062 45.4062 64.4062 46.6875
Q65.4844 53.7656 65.4844 56.6875
Q65.4844 60.2031 64.0156 62
Q62.5469 63.8125 60.2031 64.2969
Q57.8594 64.7969 54.1094 64.7969
L48.1875 64.7969
Q45.5156 64.7969 44.5781 64.2969
Q43.6562 63.8125 43.0156 61.375
L29.2969 6.5
Q29.25 6.29688 29.2188 6.09375
Q29.2031 5.90625 29.1094 5.60938
Q29.1094 4.34375 30.6094 4
Q33.2031 3.51562 41.7031 3.51562
Q42.6719 3.51562 42.6719 2.20312
Q42.3281 0.78125 42.125 0.390625
Q41.9375 0 41.0156 0
L5.60938 0
Q4.59375 0 4.59375 1.3125" id="Cmmi10-54"/>
    </defs>
    <g transform="translate(263.448 38.2)scale(0.144 -0.144)">
     <use transform="translate(0.0 0.78125)" xlink:href="#Cmmi10-54"/>
     <use transform="translate(58.3984375 -24.728125)scale(0.7)" xlink:href="#Cmmi10-52"/>
     <use transform="translate(134.27734375 0.78125)" xlink:href="#BitstreamVeraSans-Roman-20"/>
     <use transform="translate(166.064453125 0.78125)" xlink:href="#BitstreamVeraSans-Roman-3d"/>
     <use transform="translate(249.853515625 0.78125)" xlink:href="#BitstreamVeraSans-Roman-20"/>
     <use transform="translate(281.640625 0.78125)" xlink:href="#BitstreamVeraSans-Roman-30"/>
     <use transform="translate(345.263671875 0.78125)" xlink:href="#BitstreamVeraSans-Roman-2e"/>
     <use transform="translate(377.05078125 0.78125)" xlink:href="#BitstreamVeraSans-Roman-39"/>
    </g>
   </g>
  </g>
 </g>
 <defs>
  <clipPath id="p7ff5b81e1d">
   <rect height="345.6" width="446.4" x="72.0" y="43.2"/>
  </clipPath>
 </defs>
</svg>
