<?xml version="1.0" encoding="UTF-8" standalone="no"?>
<!-- Created with Inkscape (http://www.inkscape.org/) -->
<svg
   xmlns:dc="http://purl.org/dc/elements/1.1/"
   xmlns:cc="http://creativecommons.org/ns#"
   xmlns:rdf="http://www.w3.org/1999/02/22-rdf-syntax-ns#"
   xmlns:svg="http://www.w3.org/2000/svg"
   xmlns="http://www.w3.org/2000/svg"
   xmlns:sodipodi="http://sodipodi.sourceforge.net/DTD/sodipodi-0.dtd"
   xmlns:inkscape="http://www.inkscape.org/namespaces/inkscape"
   width="360"
   height="180"
   id="svg2"
   sodipodi:version="0.32"
   inkscape:version="0.46"
   version="1.0"
   sodipodi:docname="pde-diffusion-discretization-scheme.svg"
   inkscape:output_extension="org.inkscape.output.svg.inkscape"
   inkscape:export-filename="/home/jkitchin/Dropbox/pycse/images/pde-diffusion-discretization-scheme.png"
   inkscape:export-xdpi="300"
   inkscape:export-ydpi="300">
  <defs
     id="defs4">
    <inkscape:perspective
       sodipodi:type="inkscape:persp3d"
       inkscape:vp_x="0 : 526.18109 : 1"
       inkscape:vp_y="0 : 1000 : 0"
       inkscape:vp_z="744.09448 : 526.18109 : 1"
       inkscape:persp3d-origin="372.04724 : 350.78739 : 1"
       id="perspective10" />
  </defs>
  <sodipodi:namedview
     id="base"
     pagecolor="#ffffff"
     bordercolor="#000000"
     borderopacity="1"
     gridtolerance="10000"
     guidetolerance="10"
     objecttolerance="10"
     inkscape:pageopacity="0.0"
     inkscape:pageshadow="2"
     inkscape:zoom="3.026417"
     inkscape:cx="141.81533"
     inkscape:cy="128.60975"
     inkscape:document-units="px"
     inkscape:current-layer="layer1"
     showgrid="false"
     units="in"
     inkscape:window-width="1600"
     inkscape:window-height="1123"
     inkscape:window-x="0"
     inkscape:window-y="0" />
  <metadata
     id="metadata7">
    <rdf:RDF>
      <cc:Work
         rdf:about="">
        <dc:format>image/svg+xml</dc:format>
        <dc:type
           rdf:resource="http://purl.org/dc/dcmitype/StillImage" />
      </cc:Work>
    </rdf:RDF>
  </metadata>
  <g
     inkscape:label="Layer 1"
     inkscape:groupmode="layer"
     id="layer1">
    <path
       style="fill:none;fill-rule:evenodd;stroke:#000000;stroke-width:1px;stroke-linecap:butt;stroke-linejoin:miter;stroke-opacity:1"
       d="M 75,136 L 339,136 L 338,136"
       id="path2385" />
    <path
       sodipodi:type="arc"
       style="fill:#ff2a2a;fill-opacity:1;stroke:#ff0000;stroke-width:1;stroke-miterlimit:4;stroke-dasharray:none;stroke-dashoffset:0;stroke-opacity:1"
       id="path2387"
       sodipodi:cx="73"
       sodipodi:cy="192.5"
       sodipodi:rx="4"
       sodipodi:ry="4.5"
       d="M 77,192.5 A 4,4.5 0 1 1 69,192.5 A 4,4.5 0 1 1 77,192.5 z"
       transform="translate(3.235678,-57.285509)" />
    <path
       sodipodi:type="arc"
       style="fill:#ff2a2a;fill-opacity:1;stroke:#ff0000;stroke-width:1;stroke-miterlimit:4;stroke-dasharray:none;stroke-dashoffset:0;stroke-opacity:1"
       id="path2389"
       sodipodi:cx="73"
       sodipodi:cy="192.5"
       sodipodi:rx="4"
       sodipodi:ry="4.5"
       d="M 77,192.5 A 4,4.5 0 1 1 69,192.5 A 4,4.5 0 1 1 77,192.5 z"
       transform="translate(32.997458,-57.104661)" />
    <path
       sodipodi:type="arc"
       style="fill:#ff2a2a;fill-opacity:1;stroke:#ff0000;stroke-width:1;stroke-miterlimit:4;stroke-dasharray:none;stroke-dashoffset:0;stroke-opacity:1"
       id="path2391"
       sodipodi:cx="73"
       sodipodi:cy="192.5"
       sodipodi:rx="4"
       sodipodi:ry="4.5"
       d="M 77,192.5 A 4,4.5 0 1 1 69,192.5 A 4,4.5 0 1 1 77,192.5 z"
       transform="translate(62.074746,-56.774238)" />
    <path
       sodipodi:type="arc"
       style="fill:#ff2a2a;fill-opacity:1;stroke:#ff0000;stroke-width:1;stroke-miterlimit:4;stroke-dasharray:none;stroke-dashoffset:0;stroke-opacity:1"
       id="path2393"
       sodipodi:cx="73"
       sodipodi:cy="192.5"
       sodipodi:rx="4"
       sodipodi:ry="4.5"
       d="M 77,192.5 A 4,4.5 0 1 1 69,192.5 A 4,4.5 0 1 1 77,192.5 z"
       transform="translate(90.491187,-56.443813)" />
    <path
       sodipodi:type="arc"
       style="fill:#ff2a2a;fill-opacity:1;stroke:#ff0000;stroke-width:1;stroke-miterlimit:4;stroke-dasharray:none;stroke-dashoffset:0;stroke-opacity:1"
       id="path2395"
       sodipodi:cx="73"
       sodipodi:cy="192.5"
       sodipodi:rx="4"
       sodipodi:ry="4.5"
       d="M 77,192.5 A 4,4.5 0 1 1 69,192.5 A 4,4.5 0 1 1 77,192.5 z"
       transform="translate(117.91636,-56.11339)" />
    <path
       sodipodi:type="arc"
       style="fill:#ff2a2a;fill-opacity:1;stroke:#ff0000;stroke-width:1;stroke-miterlimit:4;stroke-dasharray:none;stroke-dashoffset:0;stroke-opacity:1"
       id="path2397"
       sodipodi:cx="73"
       sodipodi:cy="192.5"
       sodipodi:rx="4"
       sodipodi:ry="4.5"
       d="M 77,192.5 A 4,4.5 0 1 1 69,192.5 A 4,4.5 0 1 1 77,192.5 z"
       transform="translate(143.35898,-56.11339)" />
    <path
       sodipodi:type="arc"
       style="fill:#ff2a2a;fill-opacity:1;stroke:#ff0000;stroke-width:1;stroke-miterlimit:4;stroke-dasharray:none;stroke-dashoffset:0;stroke-opacity:1"
       id="path2399"
       sodipodi:cx="73"
       sodipodi:cy="192.5"
       sodipodi:rx="4"
       sodipodi:ry="4.5"
       d="M 77,192.5 A 4,4.5 0 1 1 69,192.5 A 4,4.5 0 1 1 77,192.5 z"
       transform="translate(171.445,-56.774237)" />
    <path
       sodipodi:type="arc"
       style="fill:#ff2a2a;fill-opacity:1;stroke:#ff0000;stroke-width:1;stroke-miterlimit:4;stroke-dasharray:none;stroke-dashoffset:0;stroke-opacity:1"
       id="path2401"
       sodipodi:cx="73"
       sodipodi:cy="192.5"
       sodipodi:rx="4"
       sodipodi:ry="4.5"
       d="M 77,192.5 A 4,4.5 0 1 1 69,192.5 A 4,4.5 0 1 1 77,192.5 z"
       transform="translate(198.53974,-56.443814)" />
    <path
       sodipodi:type="arc"
       style="fill:#ff2a2a;fill-opacity:1;stroke:#ff0000;stroke-width:1;stroke-miterlimit:4;stroke-dasharray:none;stroke-dashoffset:0;stroke-opacity:1"
       id="path2403"
       sodipodi:cx="73"
       sodipodi:cy="192.5"
       sodipodi:rx="4"
       sodipodi:ry="4.5"
       d="M 77,192.5 A 4,4.5 0 1 1 69,192.5 A 4,4.5 0 1 1 77,192.5 z"
       transform="translate(228.27788,-56.443813)" />
    <path
       sodipodi:type="arc"
       style="fill:#ff2a2a;fill-opacity:1;stroke:#ff0000;stroke-width:1;stroke-miterlimit:4;stroke-dasharray:none;stroke-dashoffset:0;stroke-opacity:1"
       id="path2405"
       sodipodi:cx="73"
       sodipodi:cy="192.5"
       sodipodi:rx="4"
       sodipodi:ry="4.5"
       d="M 77,192.5 A 4,4.5 0 1 1 69,192.5 A 4,4.5 0 1 1 77,192.5 z"
       transform="translate(264.95491,-57.765508)" />
    <text
       xml:space="preserve"
       style="font-size:12px;font-style:normal;font-variant:normal;font-weight:normal;font-stretch:normal;fill:#000000;fill-opacity:1;stroke:none;stroke-width:1px;stroke-linecap:butt;stroke-linejoin:miter;stroke-opacity:1;font-family:Serif;-inkscape-font-specification:Serif"
       x="65.68576"
       y="149.60356"
       id="text2407"><tspan
         sodipodi:role="line"
         id="tspan2409"
         x="65.68576"
         y="149.60356">i=0</tspan></text>
    <text
       xml:space="preserve"
       style="font-size:12px;font-style:normal;font-variant:normal;font-weight:normal;font-stretch:normal;fill:#000000;fill-opacity:1;stroke:none;stroke-width:1px;stroke-linecap:butt;stroke-linejoin:miter;stroke-opacity:1;font-family:Serif;-inkscape-font-specification:Serif"
       x="2.6084747"
       y="139.4128"
       id="text2411"><tspan
         sodipodi:role="line"
         id="tspan2413"
         x="2.6084747"
         y="139.4128">j=0</tspan></text>
    <path
       style="fill:none;fill-rule:evenodd;stroke:#000000;stroke-width:1px;stroke-linecap:butt;stroke-linejoin:miter;stroke-opacity:1"
       d="M 75.928898,135.72576 L 75.928898,13.138559"
       id="path2415" />
    <path
       sodipodi:type="arc"
       style="fill:#280b0b;fill-opacity:1;stroke:#000000;stroke-width:1;stroke-miterlimit:4;stroke-dasharray:none;stroke-dashoffset:0;stroke-opacity:1"
       id="path2417"
       sodipodi:cx="22.303602"
       sodipodi:cy="96.197121"
       sodipodi:rx="3.1390254"
       sodipodi:ry="3.3042374"
       d="M 25.442628,96.197121 A 3.1390254,3.3042374 0 1 1 19.164577,96.197121 A 3.1390254,3.3042374 0 1 1 25.442628,96.197121 z"
       transform="translate(53.790509,3.512458)" />
    <path
       sodipodi:type="arc"
       style="fill:#280b0b;fill-opacity:1;stroke:#000000;stroke-width:1;stroke-miterlimit:4;stroke-dasharray:none;stroke-dashoffset:0;stroke-opacity:1"
       id="path3189"
       sodipodi:cx="22.303602"
       sodipodi:cy="96.197121"
       sodipodi:rx="3.1390254"
       sodipodi:ry="3.3042374"
       d="M 25.442628,96.197121 A 3.1390254,3.3042374 0 1 1 19.164577,96.197121 A 3.1390254,3.3042374 0 1 1 25.442628,96.197121 z"
       transform="translate(82.372161,3.164575)" />
    <path
       style="fill:none;fill-rule:evenodd;stroke:#000000;stroke-width:1px;stroke-linecap:butt;stroke-linejoin:miter;stroke-opacity:1"
       d="M 80.063475,99.37915 L 344.06348,99.37915 L 343.06348,99.37915"
       id="path3191" />
    <path
       sodipodi:type="arc"
       style="fill:#280b0b;fill-opacity:1;stroke:#000000;stroke-width:1;stroke-miterlimit:4;stroke-dasharray:none;stroke-dashoffset:0;stroke-opacity:1"
       id="path3193"
       sodipodi:cx="22.303602"
       sodipodi:cy="96.197121"
       sodipodi:rx="3.1390254"
       sodipodi:ry="3.3042374"
       d="M 25.442628,96.197121 A 3.1390254,3.3042374 0 1 1 19.164577,96.197121 A 3.1390254,3.3042374 0 1 1 25.442628,96.197121 z"
       transform="translate(112.6664,2.659574)" />
    <path
       sodipodi:type="arc"
       style="fill:#280b0b;fill-opacity:1;stroke:#000000;stroke-width:1;stroke-miterlimit:4;stroke-dasharray:none;stroke-dashoffset:0;stroke-opacity:1"
       id="path3195"
       sodipodi:cx="22.303602"
       sodipodi:cy="96.197121"
       sodipodi:rx="3.1390254"
       sodipodi:ry="3.3042374"
       d="M 25.442628,96.197121 A 3.1390254,3.3042374 0 1 1 19.164577,96.197121 A 3.1390254,3.3042374 0 1 1 25.442628,96.197121 z"
       transform="translate(140.6664,2.659574)" />
    <path
       sodipodi:type="arc"
       style="fill:#280b0b;fill-opacity:1;stroke:#000000;stroke-width:1;stroke-miterlimit:4;stroke-dasharray:none;stroke-dashoffset:0;stroke-opacity:1"
       id="path3197"
       sodipodi:cx="22.303602"
       sodipodi:cy="96.197121"
       sodipodi:rx="3.1390254"
       sodipodi:ry="3.3042374"
       d="M 25.442628,96.197121 A 3.1390254,3.3042374 0 1 1 19.164577,96.197121 A 3.1390254,3.3042374 0 1 1 25.442628,96.197121 z"
       transform="translate(168.6664,2.659574)" />
    <path
       sodipodi:type="arc"
       style="fill:#280b0b;fill-opacity:1;stroke:#000000;stroke-width:1;stroke-miterlimit:4;stroke-dasharray:none;stroke-dashoffset:0;stroke-opacity:1"
       id="path3199"
       sodipodi:cx="22.303602"
       sodipodi:cy="96.197121"
       sodipodi:rx="3.1390254"
       sodipodi:ry="3.3042374"
       d="M 25.442628,96.197121 A 3.1390254,3.3042374 0 1 1 19.164577,96.197121 A 3.1390254,3.3042374 0 1 1 25.442628,96.197121 z"
       transform="translate(192.6664,2.659574)" />
    <path
       sodipodi:type="arc"
       style="fill:#280b0b;fill-opacity:1;stroke:#000000;stroke-width:1;stroke-miterlimit:4;stroke-dasharray:none;stroke-dashoffset:0;stroke-opacity:1"
       id="path3201"
       sodipodi:cx="22.303602"
       sodipodi:cy="96.197121"
       sodipodi:rx="3.1390254"
       sodipodi:ry="3.3042374"
       d="M 25.442628,96.197121 A 3.1390254,3.3042374 0 1 1 19.164577,96.197121 A 3.1390254,3.3042374 0 1 1 25.442628,96.197121 z"
       transform="translate(222.6664,2.659574)" />
    <path
       sodipodi:type="arc"
       style="fill:#280b0b;fill-opacity:1;stroke:#000000;stroke-width:1;stroke-miterlimit:4;stroke-dasharray:none;stroke-dashoffset:0;stroke-opacity:1"
       id="path3203"
       sodipodi:cx="22.303602"
       sodipodi:cy="96.197121"
       sodipodi:rx="3.1390254"
       sodipodi:ry="3.3042374"
       d="M 25.442628,96.197121 A 3.1390254,3.3042374 0 1 1 19.164577,96.197121 A 3.1390254,3.3042374 0 1 1 25.442628,96.197121 z"
       transform="translate(248.6664,2.659574)" />
    <path
       sodipodi:type="arc"
       style="fill:#280b0b;fill-opacity:1;stroke:#000000;stroke-width:1;stroke-miterlimit:4;stroke-dasharray:none;stroke-dashoffset:0;stroke-opacity:1"
       id="path3205"
       sodipodi:cx="22.303602"
       sodipodi:cy="96.197121"
       sodipodi:rx="3.1390254"
       sodipodi:ry="3.3042374"
       d="M 25.442628,96.197121 A 3.1390254,3.3042374 0 1 1 19.164577,96.197121 A 3.1390254,3.3042374 0 1 1 25.442628,96.197121 z"
       transform="translate(278.6664,2.659574)" />
    <path
       sodipodi:type="arc"
       style="fill:#280b0b;fill-opacity:1;stroke:#000000;stroke-width:1;stroke-miterlimit:4;stroke-dasharray:none;stroke-dashoffset:0;stroke-opacity:1"
       id="path3207"
       sodipodi:cx="22.303602"
       sodipodi:cy="96.197121"
       sodipodi:rx="3.1390254"
       sodipodi:ry="3.3042374"
       d="M 25.442628,96.197121 A 3.1390254,3.3042374 0 1 1 19.164577,96.197121 A 3.1390254,3.3042374 0 1 1 25.442628,96.197121 z"
       transform="translate(314.6664,2.659574)" />
    <text
       xml:space="preserve"
       style="font-size:12px;font-style:normal;font-variant:normal;font-weight:normal;font-stretch:normal;fill:#000000;fill-opacity:1;stroke:none;stroke-width:1px;stroke-linecap:butt;stroke-linejoin:miter;stroke-opacity:1;font-family:Serif;-inkscape-font-specification:Serif"
       x="6.9039841"
       y="103.67466"
       id="text3209"><tspan
         sodipodi:role="line"
         id="tspan3211"
         x="6.9039841"
         y="103.67466">j=1</tspan></text>
    <path
       sodipodi:type="arc"
       style="fill:#280b0b;fill-opacity:1;stroke:#000000;stroke-width:1;stroke-miterlimit:4;stroke-dasharray:none;stroke-dashoffset:0;stroke-opacity:1"
       id="path3213"
       sodipodi:cx="22.303602"
       sodipodi:cy="96.197121"
       sodipodi:rx="3.1390254"
       sodipodi:ry="3.3042374"
       d="M 25.442628,96.197121 A 3.1390254,3.3042374 0 1 1 19.164577,96.197121 A 3.1390254,3.3042374 0 1 1 25.442628,96.197121 z"
       transform="translate(53.14758,-31.15712)" />
    <path
       sodipodi:type="arc"
       style="fill:#280b0b;fill-opacity:1;stroke:#000000;stroke-width:1;stroke-miterlimit:4;stroke-dasharray:none;stroke-dashoffset:0;stroke-opacity:1"
       id="path3215"
       sodipodi:cx="22.303602"
       sodipodi:cy="96.197121"
       sodipodi:rx="3.1390254"
       sodipodi:ry="3.3042374"
       d="M 25.442628,96.197121 A 3.1390254,3.3042374 0 1 1 19.164577,96.197121 A 3.1390254,3.3042374 0 1 1 25.442628,96.197121 z"
       transform="translate(81.72923,-31.505003)" />
    <path
       style="fill:none;fill-rule:evenodd;stroke:#000000;stroke-width:1px;stroke-linecap:butt;stroke-linejoin:miter;stroke-opacity:1"
       d="M 79.42055,64.70957 L 343.42055,64.70957 L 342.42055,64.70957"
       id="path3217" />
    <path
       sodipodi:type="arc"
       style="fill:#280b0b;fill-opacity:1;stroke:#000000;stroke-width:1;stroke-miterlimit:4;stroke-dasharray:none;stroke-dashoffset:0;stroke-opacity:1"
       id="path3219"
       sodipodi:cx="22.303602"
       sodipodi:cy="96.197121"
       sodipodi:rx="3.1390254"
       sodipodi:ry="3.3042374"
       d="M 25.442628,96.197121 A 3.1390254,3.3042374 0 1 1 19.164577,96.197121 A 3.1390254,3.3042374 0 1 1 25.442628,96.197121 z"
       transform="translate(112.02347,-32.010004)" />
    <path
       sodipodi:type="arc"
       style="fill:#280b0b;fill-opacity:1;stroke:#000000;stroke-width:1;stroke-miterlimit:4;stroke-dasharray:none;stroke-dashoffset:0;stroke-opacity:1"
       id="path3221"
       sodipodi:cx="22.303602"
       sodipodi:cy="96.197121"
       sodipodi:rx="3.1390254"
       sodipodi:ry="3.3042374"
       d="M 25.442628,96.197121 A 3.1390254,3.3042374 0 1 1 19.164577,96.197121 A 3.1390254,3.3042374 0 1 1 25.442628,96.197121 z"
       transform="translate(140.02347,-32.010004)" />
    <path
       sodipodi:type="arc"
       style="fill:#280b0b;fill-opacity:1;stroke:#000000;stroke-width:1;stroke-miterlimit:4;stroke-dasharray:none;stroke-dashoffset:0;stroke-opacity:1"
       id="path3223"
       sodipodi:cx="22.303602"
       sodipodi:cy="96.197121"
       sodipodi:rx="3.1390254"
       sodipodi:ry="3.3042374"
       d="M 25.442628,96.197121 A 3.1390254,3.3042374 0 1 1 19.164577,96.197121 A 3.1390254,3.3042374 0 1 1 25.442628,96.197121 z"
       transform="translate(168.02347,-32.010004)" />
    <path
       sodipodi:type="arc"
       style="fill:#280b0b;fill-opacity:1;stroke:#000000;stroke-width:1;stroke-miterlimit:4;stroke-dasharray:none;stroke-dashoffset:0;stroke-opacity:1"
       id="path3225"
       sodipodi:cx="22.303602"
       sodipodi:cy="96.197121"
       sodipodi:rx="3.1390254"
       sodipodi:ry="3.3042374"
       d="M 25.442628,96.197121 A 3.1390254,3.3042374 0 1 1 19.164577,96.197121 A 3.1390254,3.3042374 0 1 1 25.442628,96.197121 z"
       transform="translate(192.02347,-32.010004)" />
    <path
       sodipodi:type="arc"
       style="fill:#280b0b;fill-opacity:1;stroke:#000000;stroke-width:1;stroke-miterlimit:4;stroke-dasharray:none;stroke-dashoffset:0;stroke-opacity:1"
       id="path3227"
       sodipodi:cx="22.303602"
       sodipodi:cy="96.197121"
       sodipodi:rx="3.1390254"
       sodipodi:ry="3.3042374"
       d="M 25.442628,96.197121 A 3.1390254,3.3042374 0 1 1 19.164577,96.197121 A 3.1390254,3.3042374 0 1 1 25.442628,96.197121 z"
       transform="translate(222.02347,-32.010004)" />
    <path
       sodipodi:type="arc"
       style="fill:#280b0b;fill-opacity:1;stroke:#000000;stroke-width:1;stroke-miterlimit:4;stroke-dasharray:none;stroke-dashoffset:0;stroke-opacity:1"
       id="path3229"
       sodipodi:cx="22.303602"
       sodipodi:cy="96.197121"
       sodipodi:rx="3.1390254"
       sodipodi:ry="3.3042374"
       d="M 25.442628,96.197121 A 3.1390254,3.3042374 0 1 1 19.164577,96.197121 A 3.1390254,3.3042374 0 1 1 25.442628,96.197121 z"
       transform="translate(248.02347,-32.010004)" />
    <path
       sodipodi:type="arc"
       style="fill:#280b0b;fill-opacity:1;stroke:#000000;stroke-width:1;stroke-miterlimit:4;stroke-dasharray:none;stroke-dashoffset:0;stroke-opacity:1"
       id="path3231"
       sodipodi:cx="22.303602"
       sodipodi:cy="96.197121"
       sodipodi:rx="3.1390254"
       sodipodi:ry="3.3042374"
       d="M 25.442628,96.197121 A 3.1390254,3.3042374 0 1 1 19.164577,96.197121 A 3.1390254,3.3042374 0 1 1 25.442628,96.197121 z"
       transform="translate(278.02347,-32.010004)" />
    <path
       sodipodi:type="arc"
       style="fill:#280b0b;fill-opacity:1;stroke:#000000;stroke-width:1;stroke-miterlimit:4;stroke-dasharray:none;stroke-dashoffset:0;stroke-opacity:1"
       id="path3233"
       sodipodi:cx="22.303602"
       sodipodi:cy="96.197121"
       sodipodi:rx="3.1390254"
       sodipodi:ry="3.3042374"
       d="M 25.442628,96.197121 A 3.1390254,3.3042374 0 1 1 19.164577,96.197121 A 3.1390254,3.3042374 0 1 1 25.442628,96.197121 z"
       transform="translate(314.02347,-32.010004)" />
    <path
       sodipodi:type="arc"
       style="fill:#280b0b;fill-opacity:1;stroke:#000000;stroke-width:1;stroke-miterlimit:4;stroke-dasharray:none;stroke-dashoffset:0;stroke-opacity:1"
       id="path3235"
       sodipodi:cx="22.303602"
       sodipodi:cy="96.197121"
       sodipodi:rx="3.1390254"
       sodipodi:ry="3.3042374"
       d="M 25.442628,96.197121 A 3.1390254,3.3042374 0 1 1 19.164577,96.197121 A 3.1390254,3.3042374 0 1 1 25.442628,96.197121 z"
       transform="translate(53.710041,-67.102205)" />
    <path
       sodipodi:type="arc"
       style="fill:#280b0b;fill-opacity:1;stroke:#000000;stroke-width:1;stroke-miterlimit:4;stroke-dasharray:none;stroke-dashoffset:0;stroke-opacity:1"
       id="path3237"
       sodipodi:cx="22.303602"
       sodipodi:cy="96.197121"
       sodipodi:rx="3.1390254"
       sodipodi:ry="3.3042374"
       d="M 25.442628,96.197121 A 3.1390254,3.3042374 0 1 1 19.164577,96.197121 A 3.1390254,3.3042374 0 1 1 25.442628,96.197121 z"
       transform="translate(82.291691,-67.450088)" />
    <path
       style="fill:none;fill-rule:evenodd;stroke:#000000;stroke-width:1px;stroke-linecap:butt;stroke-linejoin:miter;stroke-opacity:1"
       d="M 79.983011,28.764485 L 343.98301,28.764485 L 342.98301,28.764485"
       id="path3239" />
    <path
       sodipodi:type="arc"
       style="fill:#280b0b;fill-opacity:1;stroke:#000000;stroke-width:1;stroke-miterlimit:4;stroke-dasharray:none;stroke-dashoffset:0;stroke-opacity:1"
       id="path3241"
       sodipodi:cx="22.303602"
       sodipodi:cy="96.197121"
       sodipodi:rx="3.1390254"
       sodipodi:ry="3.3042374"
       d="M 25.442628,96.197121 A 3.1390254,3.3042374 0 1 1 19.164577,96.197121 A 3.1390254,3.3042374 0 1 1 25.442628,96.197121 z"
       transform="translate(112.58593,-67.955089)" />
    <path
       sodipodi:type="arc"
       style="fill:#280b0b;fill-opacity:1;stroke:#000000;stroke-width:1;stroke-miterlimit:4;stroke-dasharray:none;stroke-dashoffset:0;stroke-opacity:1"
       id="path3243"
       sodipodi:cx="22.303602"
       sodipodi:cy="96.197121"
       sodipodi:rx="3.1390254"
       sodipodi:ry="3.3042374"
       d="M 25.442628,96.197121 A 3.1390254,3.3042374 0 1 1 19.164577,96.197121 A 3.1390254,3.3042374 0 1 1 25.442628,96.197121 z"
       transform="translate(140.58593,-67.955089)" />
    <path
       sodipodi:type="arc"
       style="fill:#280b0b;fill-opacity:1;stroke:#000000;stroke-width:1;stroke-miterlimit:4;stroke-dasharray:none;stroke-dashoffset:0;stroke-opacity:1"
       id="path3245"
       sodipodi:cx="22.303602"
       sodipodi:cy="96.197121"
       sodipodi:rx="3.1390254"
       sodipodi:ry="3.3042374"
       d="M 25.442628,96.197121 A 3.1390254,3.3042374 0 1 1 19.164577,96.197121 A 3.1390254,3.3042374 0 1 1 25.442628,96.197121 z"
       transform="translate(168.58593,-67.955089)" />
    <path
       sodipodi:type="arc"
       style="fill:#280b0b;fill-opacity:1;stroke:#000000;stroke-width:1;stroke-miterlimit:4;stroke-dasharray:none;stroke-dashoffset:0;stroke-opacity:1"
       id="path3247"
       sodipodi:cx="22.303602"
       sodipodi:cy="96.197121"
       sodipodi:rx="3.1390254"
       sodipodi:ry="3.3042374"
       d="M 25.442628,96.197121 A 3.1390254,3.3042374 0 1 1 19.164577,96.197121 A 3.1390254,3.3042374 0 1 1 25.442628,96.197121 z"
       transform="translate(192.58593,-67.955089)" />
    <path
       sodipodi:type="arc"
       style="fill:#280b0b;fill-opacity:1;stroke:#000000;stroke-width:1;stroke-miterlimit:4;stroke-dasharray:none;stroke-dashoffset:0;stroke-opacity:1"
       id="path3249"
       sodipodi:cx="22.303602"
       sodipodi:cy="96.197121"
       sodipodi:rx="3.1390254"
       sodipodi:ry="3.3042374"
       d="M 25.442628,96.197121 A 3.1390254,3.3042374 0 1 1 19.164577,96.197121 A 3.1390254,3.3042374 0 1 1 25.442628,96.197121 z"
       transform="translate(222.58593,-67.955089)" />
    <path
       sodipodi:type="arc"
       style="fill:#280b0b;fill-opacity:1;stroke:#000000;stroke-width:1;stroke-miterlimit:4;stroke-dasharray:none;stroke-dashoffset:0;stroke-opacity:1"
       id="path3251"
       sodipodi:cx="22.303602"
       sodipodi:cy="96.197121"
       sodipodi:rx="3.1390254"
       sodipodi:ry="3.3042374"
       d="M 25.442628,96.197121 A 3.1390254,3.3042374 0 1 1 19.164577,96.197121 A 3.1390254,3.3042374 0 1 1 25.442628,96.197121 z"
       transform="translate(248.58593,-67.955089)" />
    <path
       sodipodi:type="arc"
       style="fill:#280b0b;fill-opacity:1;stroke:#000000;stroke-width:1;stroke-miterlimit:4;stroke-dasharray:none;stroke-dashoffset:0;stroke-opacity:1"
       id="path3253"
       sodipodi:cx="22.303602"
       sodipodi:cy="96.197121"
       sodipodi:rx="3.1390254"
       sodipodi:ry="3.3042374"
       d="M 25.442628,96.197121 A 3.1390254,3.3042374 0 1 1 19.164577,96.197121 A 3.1390254,3.3042374 0 1 1 25.442628,96.197121 z"
       transform="translate(278.58593,-67.955089)" />
    <path
       sodipodi:type="arc"
       style="fill:#280b0b;fill-opacity:1;stroke:#000000;stroke-width:1;stroke-miterlimit:4;stroke-dasharray:none;stroke-dashoffset:0;stroke-opacity:1"
       id="path3255"
       sodipodi:cx="22.303602"
       sodipodi:cy="96.197121"
       sodipodi:rx="3.1390254"
       sodipodi:ry="3.3042374"
       d="M 25.442628,96.197121 A 3.1390254,3.3042374 0 1 1 19.164577,96.197121 A 3.1390254,3.3042374 0 1 1 25.442628,96.197121 z"
       transform="translate(314.58593,-67.955089)" />
    <text
       xml:space="preserve"
       style="font-size:12px;font-style:normal;font-variant:normal;font-weight:normal;font-stretch:normal;fill:#000000;fill-opacity:1;stroke:none;stroke-width:1px;stroke-linecap:butt;stroke-linejoin:miter;stroke-opacity:1;font-family:Serif;-inkscape-font-specification:Serif"
       x="5.2518654"
       y="67.658478"
       id="text3257"><tspan
         sodipodi:role="line"
         id="tspan3259"
         x="5.2518654"
         y="67.658478">j=2</tspan></text>
    <text
       xml:space="preserve"
       style="font-size:12px;font-style:normal;font-variant:normal;font-weight:normal;font-stretch:normal;fill:#000000;fill-opacity:1;stroke:none;stroke-width:1px;stroke-linecap:butt;stroke-linejoin:miter;stroke-opacity:1;font-family:Serif;-inkscape-font-specification:Serif"
       x="6.5735588"
       y="30.651016"
       id="text3261"><tspan
         sodipodi:role="line"
         id="tspan3263"
         x="6.5735588"
         y="30.651016">j=3</tspan></text>
    <text
       xml:space="preserve"
       style="font-size:12px;font-style:normal;font-variant:normal;font-weight:normal;font-stretch:normal;fill:#000000;fill-opacity:1;stroke:none;stroke-width:1px;stroke-linecap:butt;stroke-linejoin:miter;stroke-opacity:1;font-family:Serif;-inkscape-font-specification:Serif"
       x="335.31152"
       y="151.91653"
       id="text3277"><tspan
         sodipodi:role="line"
         id="tspan3279"
         x="335.31152"
         y="151.91653">L</tspan></text>
    <text
       xml:space="preserve"
       style="font-size:12px;font-style:normal;font-variant:normal;font-weight:normal;font-stretch:normal;fill:#000000;fill-opacity:1;stroke:none;stroke-width:1px;stroke-linecap:butt;stroke-linejoin:miter;stroke-opacity:1;font-family:Serif;-inkscape-font-specification:Serif"
       x="52.867794"
       y="173.0611"
       id="text3372"><tspan
         sodipodi:role="line"
         id="tspan3374"
         x="52.867794"
         y="173.0611">C(0,t=0)</tspan></text>
    <text
       xml:space="preserve"
       style="font-size:12px;font-style:normal;font-variant:normal;font-weight:normal;font-stretch:normal;fill:#000000;fill-opacity:1;stroke:none;stroke-width:1px;stroke-linecap:butt;stroke-linejoin:miter;stroke-opacity:1;font-family:Serif;-inkscape-font-specification:Serif"
       x="293.41626"
       y="172.40025"
       id="text3376"><tspan
         sodipodi:role="line"
         id="tspan3378"
         x="293.41626"
         y="172.40025">dC/dx = 0</tspan></text>
    <text
       xml:space="preserve"
       style="font-size:12px;font-style:normal;font-variant:normal;font-weight:normal;font-stretch:normal;fill:#000000;fill-opacity:1;stroke:none;stroke-width:1px;stroke-linecap:butt;stroke-linejoin:miter;stroke-opacity:1;font-family:Serif;-inkscape-font-specification:Serif"
       x="36.677032"
       y="139.35786"
       id="text3380"><tspan
         sodipodi:role="line"
         id="tspan3382"
         x="36.677032"
         y="139.35786">t=0</tspan></text>
    <text
       xml:space="preserve"
       style="font-size:12px;font-style:normal;font-variant:normal;font-weight:normal;font-stretch:normal;fill:#000000;fill-opacity:1;stroke:none;stroke-width:1px;stroke-linecap:butt;stroke-linejoin:miter;stroke-opacity:1;font-family:Serif;-inkscape-font-specification:Serif"
       x="36.346607"
       y="103.67212"
       id="text3384"><tspan
         sodipodi:role="line"
         id="tspan3386"
         x="36.346607"
         y="103.67212">t =dt</tspan></text>
    <text
       xml:space="preserve"
       style="font-size:12px;font-style:normal;font-variant:normal;font-weight:normal;font-stretch:normal;fill:#000000;fill-opacity:1;stroke:none;stroke-width:1px;stroke-linecap:butt;stroke-linejoin:miter;stroke-opacity:1;font-family:Serif;-inkscape-font-specification:Serif"
       x="34.694492"
       y="68.647202"
       id="text3388"><tspan
         sodipodi:role="line"
         id="tspan3390"
         x="34.694492"
         y="68.647202">t=2dt</tspan></text>
    <text
       xml:space="preserve"
       style="font-size:12px;font-style:normal;font-variant:normal;font-weight:normal;font-stretch:normal;fill:#000000;fill-opacity:1;stroke:none;stroke-width:1px;stroke-linecap:butt;stroke-linejoin:miter;stroke-opacity:1;font-family:Serif;-inkscape-font-specification:Serif"
       x="33.70322"
       y="32.300594"
       id="text3392"><tspan
         sodipodi:role="line"
         id="tspan3394"
         x="33.70322"
         y="32.300594">t=3dt</tspan></text>
    <text
       xml:space="preserve"
       style="font-size:12px;font-style:normal;font-variant:normal;font-weight:normal;font-stretch:normal;fill:#000000;fill-opacity:1;stroke:none;stroke-width:1px;stroke-linecap:butt;stroke-linejoin:miter;stroke-opacity:1;font-family:Serif;-inkscape-font-specification:Serif"
       x="97.144585"
       y="149.60101"
       id="text3396"><tspan
         sodipodi:role="line"
         id="tspan3398"
         x="97.144585"
         y="149.60101">i=1</tspan></text>
  </g>
</svg>
