<?xml version="1.0" encoding="utf-8" standalone="no"?>
<!DOCTYPE svg PUBLIC "-//W3C//DTD SVG 1.1//EN"
  "http://www.w3.org/Graphics/SVG/1.1/DTD/svg11.dtd">
<!-- Created with matplotlib (http://matplotlib.org/) -->
<svg height="432pt" version="1.1" viewBox="0 0 576 432" width="576pt" xmlns="http://www.w3.org/2000/svg" xmlns:xlink="http://www.w3.org/1999/xlink">
 <defs>
  <style type="text/css">
*{stroke-linecap:butt;stroke-linejoin:round;stroke-miterlimit:100000;}
  </style>
 </defs>
 <g id="figure_1">
  <g id="patch_1">
   <path d="M 0 432 
L 576 432 
L 576 0 
L 0 0 
z
" style="fill:#ffffff;"/>
  </g>
  <g id="axes_1">
   <g id="patch_2">
    <path d="M 72 388.8 
L 518.4 388.8 
L 518.4 43.2 
L 72 43.2 
z
" style="fill:#ffffff;"/>
   </g>
   <g id="line2d_1">
    <path clip-path="url(#p934a4e44c1)" d="M 161.28 259.2 
L 161.28 259.2 
" style="fill:none;stroke:#0000ff;stroke-linecap:square;"/>
   </g>
   <g id="line2d_2">
    <defs>
     <path d="M 0 3 
C 0.795609 3 1.55874 2.683901 2.12132 2.12132 
C 2.683901 1.55874 3 0.795609 3 0 
C 3 -0.795609 2.683901 -1.55874 2.12132 -2.12132 
C 1.55874 -2.683901 0.795609 -3 0 -3 
C -0.795609 -3 -1.55874 -2.683901 -2.12132 -2.12132 
C -2.683901 -1.55874 -3 -0.795609 -3 0 
C -3 0.795609 -2.683901 1.55874 -2.12132 2.12132 
C -1.55874 2.683901 -0.795609 3 0 3 
z
" id="mf483c1d481" style="stroke:#000000;stroke-width:0.5;"/>
    </defs>
    <g clip-path="url(#p934a4e44c1)">
     <use style="fill:#0000ff;stroke:#000000;stroke-width:0.5;" x="161.28" xlink:href="#mf483c1d481" y="259.2"/>
    </g>
   </g>
   <g id="line2d_3">
    <defs>
     <path d="M -3 3 
L 3 3 
L 3 -3 
L -3 -3 
z
" id="mb92661bc7d" style="stroke:#000000;stroke-linejoin:miter;stroke-width:0.5;"/>
    </defs>
    <g clip-path="url(#p934a4e44c1)">
     <use style="fill:#008000;stroke:#000000;stroke-linejoin:miter;stroke-width:0.5;" x="161.28" xlink:href="#mb92661bc7d" y="259.2"/>
    </g>
   </g>
   <g id="line2d_4">
    <path clip-path="url(#p934a4e44c1)" d="M 161.28 216 
L 166.829267 217.354692 
L 172.031352 221.314492 
L 176.565344 227.584918 
L 180.158456 235.728204 
L 182.60097 245.219585 
L 183.754317 255.493899 
L 183.554325 265.973048 
L 182.012061 276.076979 
L 179.213715 285.229681 
L 175.319274 292.874104 
L 170.558113 298.505499 
L 165.219042 301.72238 
L 159.633231 302.282272 
L 154.150678 300.141917 
L 149.113445 295.464968 
L 144.830284 288.593717 
L 141.556665 279.997211 
L 139.481971 270.216142 
L 138.723091 259.821438 
L 139.322112 249.392422 
L 141.245843 239.508725 
L 144.386173 230.743047 
L 148.562064 223.641437 
L 153.525334 218.684141 
L 158.972626 216.231405 
L 164.564568 216.470106 
L 169.950689 219.381791 
L 174.796264 224.745965 
L 178.80644 232.177147 
L 181.744164 241.179886 
L 183.440927 251.201183 
L 183.801703 261.666188 
L 182.806523 271.994964 
L 180.510676 281.608832 
L 177.044035 289.940056 
L 172.608211 296.456996 
L 167.469165 300.708705 
L 161.943137 302.380929 
L 156.375519 301.345253 
L 151.114908 297.681543 
L 146.486579 291.663825 
L 142.769934 283.715868 
L 140.182692 274.354903 
L 138.872078 264.143139 
L 138.911132 253.65796 
L 140.297692 243.479465 
L 142.95442 234.18463 
L 146.729909 226.334085 
L 151.402599 220.441155 
L 156.689962 216.922523 
L 162.264716 216.04206 
L 167.777716 217.867714 
L 172.884569 222.259468 
L 177.271411 228.893733 
L 180.675661 237.313456 
L 182.899681 246.983887 
L 183.817832 257.33617 
L 183.379135 267.791386 
L 181.607881 277.769681 
L 178.603375 286.69685 
L 174.538237 294.022038 
L 169.653193 299.254575 
L 164.245939 302.017036 
L 158.652799 302.099783 
L 153.224339 299.496418 
L 148.298496 294.404922 
L 144.175913 287.193974 
L 141.101174 278.348973 
L 139.251244 268.41837 
L 138.729964 257.975626 
L 139.566205 247.600494 
L 141.713565 237.872109 
L 145.050905 229.360435 
L 149.384826 222.603353 
L 154.456385 218.064191 
L 159.954314 216.076258 
L 165.535376 216.791787 
L 170.849938 220.155526 
L 175.568675 225.914541 
L 179.405797 233.659875 
L 182.135702 242.882524 
L 183.602562 253.023645 
L 183.724477 263.506735 
L 182.494703 273.751711 
L 179.981716 283.180804 
L 176.328289 291.230233 
L 171.748041 297.378804 
L 166.51699 301.195444 
L 160.958208 302.395514 
L 155.419608 300.88655 
L 150.247548 296.784578 
L 145.760713 290.393757 
L 142.228603 282.158349 
L 139.857017 272.606539 
L 138.780309 262.304784 
L 139.058342 251.831483 
L 140.675729 241.766639 
L 143.54199 232.685726 
L 147.492996 225.143886 
L 152.295628 219.641453 
L 157.658113 216.572242 
L 163.247516 216.168137 
L 168.713559 218.460371 
L 173.715444 223.273968 
L 177.947 230.257829 
L 181.156272 238.937376 
L 183.157915 248.769245 
L 183.839296 259.181613 
L 183.162644 269.594994 
L 181.165468 279.429898 
L 177.960141 288.114448 
L 173.73176 295.105125 
L 168.732065 299.927019 
L 163.267065 302.228499 
L 157.677481 301.833902 
L 152.313602 298.773724 
L 147.508471 293.279197 
L 143.55404 285.743666 
L 140.683655 276.667187 
L 139.061697 266.604787 
L 138.778906 256.131903 
L 139.850935 245.828538 
L 142.218181 236.273105 
L 145.746548 228.032138 
L 150.230477 221.634023 
L 155.400671 217.523411 
L 160.938583 216.005048 
L 166.497909 217.195674 
L 171.730693 221.003552 
L 176.313734 227.144646 
L 179.970817 235.188297 
L 182.488087 244.613534 
L 183.722514 254.856662 
L 183.605361 265.339931 
L 182.143108 275.483258 
L 179.417393 284.710111 
L 175.583792 292.461543 
L 170.867673 298.228298 
L 165.554642 301.600968 
L 159.973907 302.325987 
L 154.475075 300.347369 
L 149.401455 295.816647 
L 145.064464 289.066575 
L 141.723257 280.560129 
L 139.571478 270.835015 
L 138.730525 260.461135 
L 139.247062 250.017616 
L 141.092481 240.084214 
L 144.1632 231.234436 
L 148.282505 224.016872 
L 153.206033 218.91723 
L 158.633309 216.304696 
L 164.226485 216.377928 
L 169.634994 219.131263 
L 174.522414 224.355732 
L 178.59088 231.674405 
L 181.599442 240.596911 
L 183.375228 250.572526 
L 183.818675 261.027086 
L 182.905226 271.38074 
L 180.6856 281.05456 
L 177.285175 289.479621 
L 172.90135 296.120994 
L 167.796493 300.521256 
L 162.284324 302.356256 
L 156.709171 301.48527 
L 151.42021 297.975516 
L 146.744842 292.09024 
L 142.965787 284.245687 
L 140.304837 274.954941 
L 138.913652 264.778533 
L 138.869836 254.293414 
L 140.175811 244.079682 
L 142.758799 234.714744 
L 146.471833 226.760902 
L 151.097425 220.735618 
L 156.356371 217.063086 
L 161.923517 216.017948 
L 167.450304 217.680798 
L 172.591282 221.92393 
L 177.030067 228.433668 
L 180.500494 236.759443 
L 182.800708 246.369805 
L 183.800581 256.69709 
L 183.444558 267.162632 
L 181.752348 277.18649 
L 178.818715 286.193779 
L 174.811916 293.631374 
L 169.968779 299.003536 
L 164.583983 301.924303 
L 158.99215 302.172518 
L 153.543744 299.728991 
L 148.578221 294.779919 
L 144.399103 287.685026 
L 141.254789 278.924239 
L 139.326568 269.043459 
L 138.722809 258.615338 
L 139.476968 248.2195 
L 141.547218 238.435278 
L 141.547218 238.435278 
" style="fill:none;stroke:#0000ff;stroke-linecap:square;"/>
   </g>
   <g id="line2d_5">
    <defs>
     <path d="M 0 3 
C 0.795609 3 1.55874 2.683901 2.12132 2.12132 
C 2.683901 1.55874 3 0.795609 3 0 
C 3 -0.795609 2.683901 -1.55874 2.12132 -2.12132 
C 1.55874 -2.683901 0.795609 -3 0 -3 
C -0.795609 -3 -1.55874 -2.683901 -2.12132 -2.12132 
C -2.683901 -1.55874 -3 -0.795609 -3 0 
C -3 0.795609 -2.683901 1.55874 -2.12132 2.12132 
C -1.55874 2.683901 -0.795609 3 0 3 
z
" id="m2578431a0b" style="stroke:#000000;stroke-width:0.5;"/>
    </defs>
    <g clip-path="url(#p934a4e44c1)">
     <use style="fill:#ff0000;stroke:#000000;stroke-width:0.5;" x="161.28" xlink:href="#m2578431a0b" y="216.0"/>
    </g>
   </g>
   <g id="line2d_6">
    <defs>
     <path d="M -3 3 
L 3 3 
L 3 -3 
L -3 -3 
z
" id="mfca9a82351" style="stroke:#000000;stroke-linejoin:miter;stroke-width:0.5;"/>
    </defs>
    <g clip-path="url(#p934a4e44c1)">
     <use style="fill:#00bfbf;stroke:#000000;stroke-linejoin:miter;stroke-width:0.5;" x="141.547218012" xlink:href="#mfca9a82351" y="238.435277909"/>
    </g>
   </g>
   <g id="line2d_7">
    <path clip-path="url(#p934a4e44c1)" d="M 161.28 172.8 
L 172.378808 175.498897 
L 182.791017 183.273492 
L 191.908467 195.274631 
L 199.252851 210.401595 
L 204.489721 227.5768 
L 207.413809 245.900818 
L 207.923792 264.66302 
L 206.003021 283.24853 
L 201.715796 301.002006 
L 195.220838 317.109036 
L 186.795693 330.55645 
L 176.858146 340.224995 
L 165.966108 345.123057 
L 154.781819 344.681311 
L 144.002135 338.953048 
L 134.27633 328.594539 
L 126.140908 314.638322 
L 119.990027 298.199018 
L 116.080129 280.25978 
L 114.55305 261.603577 
L 115.459411 242.86987 
L 118.769499 224.680243 
L 124.366692 207.771751 
L 132.026357 193.077096 
L 141.391061 181.69215 
L 151.959429 174.697309 
L 163.106068 172.872311 
L 174.138655 176.436287 
L 184.378463 184.967468 
L 193.235947 197.554979 
L 200.256218 213.085342 
L 205.127379 230.503399 
L 207.662822 248.943176 
L 207.775994 267.717874 
L 205.463205 286.21558 
L 200.802807 303.761797 
L 193.97108 319.509489 
L 185.26729 332.417892 
L 175.132873 341.369491 
L 164.146201 345.42178 
L 152.980579 344.097992 
L 142.330615 337.557461 
L 132.830848 326.537051 
L 124.995588 312.102075 
L 119.195531 295.356716 
L 115.666667 277.252344 
L 114.534599 258.542116 
L 115.836564 239.853086 
L 119.529607 221.817207 
L 125.481225 205.200224 
L 133.44672 190.967339 
L 143.04534 180.227892 
L 153.753154 174.034093 
L 164.929081 173.088997 
L 175.877278 177.506508 
L 185.928948 186.769448 
L 194.514388 199.913207 
L 201.202318 215.818699 
L 205.702879 233.456681 
L 207.847423 251.994248 
L 207.563686 270.765528 
L 204.86092 289.157796 
L 199.831964 306.47435 
L 192.671358 321.834851 
L 183.700634 334.174036 
L 173.384778 342.383012 
L 162.321493 345.57647 
L 151.193148 343.375009 
L 140.689868 336.042342 
L 131.429826 324.388953 
L 123.904534 309.504923 
L 118.461502 292.478821 
L 115.316955 274.229111 
L 114.580868 255.48119 
L 116.277323 236.853303 
L 120.349863 218.991322 
L 126.649475 202.691558 
L 134.910725 188.950317 
L 144.729312 178.88495 
L 155.55943 173.511414 
L 166.746005 173.44935 
L 177.591909 178.706249 
L 187.440245 188.67469 
L 195.742197 202.344465 
L 202.090144 218.597563 
L 206.215689 236.433455 
L 207.967447 255.051414 
L 207.287041 273.803335 
L 204.196717 292.071918 
L 198.804303 309.135476 
L 191.323303 324.080224 
L 182.097998 335.820169 
L 171.61666 343.26238 
L 160.495036 345.586619 
L 149.422449 342.514701 
L 139.082372 334.412014 
L 130.075127 322.155196 
L 122.86899 306.851353 
L 117.788662 289.568908 
L 115.031302 271.192899 
L 114.691824 252.423376 
L 116.7813 233.873481 
L 121.229439 216.206395 
L 127.87006 200.250437 
L 136.416352 187.030974 
L 146.440362 177.66732 
L 157.375259 173.130988 
L 168.553807 173.95216 
L 179.279844 180.031841 
L 188.910218 190.678309 
L 196.917879 204.843947 
L 202.918779 221.417944 
L 206.665346 239.43063 
L 208.022799 258.112071 
L 206.946301 276.82857 
L 203.471231 294.954533 
L 197.720961 311.740831 
L 189.928664 326.24066 
L 180.461759 337.351735 
L 169.831389 344.004793 
L 158.669887 345.452193 
L 147.671361 341.519819 
L 137.510516 332.671017 
L 128.76851 319.840744 
L 121.890101 304.145739 
L 117.177647 286.63041 
L 114.809951 268.14644 
L 114.867371 249.371265 
L 117.348037 230.916684 
L 122.167427 213.466378 
L 129.141501 197.881641 
L 137.961485 185.214187 
L 148.175801 176.578696 
L 159.197621 172.894077 
L 170.349492 174.595776 
L 180.938463 181.479338 
L 190.33684 192.775374 
L 198.040043 207.40696 
L 203.687384 224.276024 
L 207.051451 242.445239 
L 208.013429 261.173648 
L 206.54176 279.838433 
L 202.685165 297.802086 
L 196.583165 314.285931 
L 188.489288 328.311186 
L 178.794386 338.76437 
L 168.031887 344.607851 
L 156.8491 345.173639 
L 145.942696 340.393489 
L 135.976591 330.824041 
L 127.51163 317.450506 
L 120.968921 301.392295 
L 116.629026 283.666614 
L 114.65309 265.092398 
L 115.107361 246.327484 
L 117.977015 227.986106 
L 123.162835 210.775379 
L 130.462217 195.590033 
L 139.543905 183.504741 
L 149.932867 175.622458 
L 161.023472 172.801473 
L 172.130105 175.378101 
L 182.565234 183.044535 
L 191.718187 194.960922 
L 199.107394 210.028932 
L 204.395202 227.168139 
L 207.373665 245.474417 
L 207.939347 264.233579 
L 206.073773 282.830031 
L 201.839299 300.610866 
L 195.392236 316.766166 
L 187.007128 330.286846 
L 177.098438 340.053936 
L 166.221121 345.069579 
L 155.035712 344.751884 
L 144.239198 339.139182 
L 134.482786 328.8759 
L 126.306037 314.989323 
L 120.10642 298.595084 
L 116.143302 280.680674 
L 114.560852 262.033388 
L 115.411589 243.294716 
L 118.667645 225.085073 
L 124.214581 208.137659 
L 131.830525 193.380538 
L 141.161295 181.907286 
L 151.708727 174.801626 
L 162.849758 172.853486 
L 173.892739 176.296616 
L 184.157713 184.723009 
L 193.052441 197.229986 
L 200.118732 212.70542 
L 205.04155 230.090776 
L 207.63171 248.515391 
L 207.800614 267.289289 
L 205.542757 285.800367 
L 200.934493 303.377009 
L 194.149595 319.176814 
L 185.484243 332.16272 
L 185.484243 332.16272 
" style="fill:none;stroke:#0000ff;stroke-linecap:square;"/>
   </g>
   <g id="line2d_8">
    <defs>
     <path d="M 0 3 
C 0.795609 3 1.55874 2.683901 2.12132 2.12132 
C 2.683901 1.55874 3 0.795609 3 0 
C 3 -0.795609 2.683901 -1.55874 2.12132 -2.12132 
C 1.55874 -2.683901 0.795609 -3 0 -3 
C -0.795609 -3 -1.55874 -2.683901 -2.12132 -2.12132 
C -2.683901 -1.55874 -3 -0.795609 -3 0 
C -3 0.795609 -2.683901 1.55874 -2.12132 2.12132 
C -1.55874 2.683901 -0.795609 3 0 3 
z
" id="m6459950ee1" style="stroke:#000000;stroke-width:0.5;"/>
    </defs>
    <g clip-path="url(#p934a4e44c1)">
     <use style="fill:#bf00bf;stroke:#000000;stroke-width:0.5;" x="161.28" xlink:href="#m6459950ee1" y="172.8"/>
    </g>
   </g>
   <g id="line2d_9">
    <defs>
     <path d="M -3 3 
L 3 3 
L 3 -3 
L -3 -3 
z
" id="m7091223402" style="stroke:#000000;stroke-linejoin:miter;stroke-width:0.5;"/>
    </defs>
    <g clip-path="url(#p934a4e44c1)">
     <use style="fill:#bfbf00;stroke:#000000;stroke-linejoin:miter;stroke-width:0.5;" x="185.484242578" xlink:href="#m7091223402" y="332.162719877"/>
    </g>
   </g>
   <g id="line2d_10">
    <path clip-path="url(#p934a4e44c1)" d="M 161.28 129.6 
L 177.928895 133.622232 
L 193.567091 144.927008 
L 207.364312 161.617806 
L 218.764741 181.508082 
L 227.474674 202.830709 
L 233.385042 224.520393 
L 236.481906 246.147287 
L 236.777655 267.693404 
L 234.274179 289.29563 
L 228.959369 310.990188 
L 220.836868 332.455263 
L 209.988542 352.773501 
L 196.661471 370.317195 
L 181.351962 382.942371 
L 164.836276 388.617178 
L 148.100068 386.283185 
L 132.170659 376.386982 
L 117.928072 360.649524 
L 105.988372 341.267169 
L 96.695552 320.134296 
L 90.190002 298.467855 
L 86.499066 276.81617 
L 85.611725 255.263026 
L 87.522461 233.682925 
L 92.241778 211.996997 
L 99.773508 190.429998 
L 110.059005 169.757211 
L 122.893863 151.458834 
L 137.839717 137.607492 
L 154.177479 130.329589 
L 170.954334 130.954442 
L 187.135165 139.361934 
L 201.795551 154.044865 
L 214.259411 172.833263 
L 224.129179 193.7221 
L 231.228959 215.341572 
L 235.514616 237.015229 
L 236.993833 258.581916 
L 235.675286 280.144332 
L 231.55109 301.812493 
L 224.612448 323.447381 
L 214.898585 344.408217 
L 202.57535 363.36663 
L 188.02547 378.34573 
L 171.908819 387.164649 
L 155.138353 388.254565 
L 138.747961 381.406099 
L 123.700104 367.877937 
L 110.729634 349.774844 
L 100.290442 329.191412 
L 92.598112 307.648448 
L 87.717207 285.959104 
L 85.645663 264.373368 
L 86.372428 242.822806 
L 89.902069 221.177702 
L 96.246156 199.502839 
L 105.381309 178.313395 
L 117.17605 158.784934 
L 131.300375 142.778742 
L 147.15459 132.491963 
L 163.871691 129.697083 
L 180.428009 134.92772 
L 195.830289 147.203653 
L 209.287251 164.525709 
L 220.286559 184.735342 
L 228.568863 206.166039 
L 234.045314 227.860802 
L 236.709766 249.469563 
L 236.574549 271.014977 
L 233.638794 292.635054 
L 227.890041 314.327663 
L 219.33914 335.693334 
L 208.087372 355.707399 
L 194.415411 372.639533 
L 178.862815 384.311669 
L 162.245577 388.786533 
L 145.568408 385.21956 
L 129.84737 374.288651 
L 115.926709 357.846587 
L 104.378563 338.085979 
L 95.509933 316.809884 
L 89.437978 295.124477 
L 86.179953 273.490754 
L 85.723667 251.943413 
L 88.066215 230.347536 
L 93.219389 208.654178 
L 101.181841 187.157712 
L 111.878394 166.736274 
L 125.07395 148.978174 
L 140.288116 136.010694 
L 156.759879 129.89537 
L 173.511756 131.766949 
L 189.513425 141.266666 
L 203.872242 156.727922 
L 215.955792 175.957825 
L 225.405843 197.030133 
L 232.072786 218.686408 
L 235.925067 240.34447 
L 236.973005 261.900677 
L 235.223036 283.47547 
L 230.66528 305.157309 
L 223.294322 326.745838 
L 213.163169 347.503087 
L 200.46535 365.989777 
L 185.623879 380.157043 
L 169.341928 387.859798 
L 152.562153 387.700416 
L 136.32023 379.709546 
L 121.55157 365.330189 
L 108.948377 346.718542 
L 98.923254 325.906223 
L 91.662458 304.30434 
L 87.215298 282.625648 
L 85.575377 261.054283 
L 86.733283 239.495708 
L 90.696056 217.833429 
L 97.473452 196.185176 
L 107.030886 175.156715 
L 119.212257 156.034909 
L 133.649453 140.767058 
L 149.698881 131.542116 
L 166.459494 129.987868 
L 182.899299 136.402548 
L 198.046726 149.600331 
L 211.151329 167.50108 
L 221.743535 187.990124 
L 229.596277 209.506426 
L 234.638794 231.198436 
L 236.871188 252.790102 
L 236.304982 274.33858 
L 232.936588 295.976959 
L 226.75402 317.658608 
L 217.776942 338.900765 
L 206.128228 358.569116 
L 192.124139 374.836585 
L 176.348003 385.50785 
L 159.653438 388.761767 
L 143.059812 383.978685 
L 127.567389 372.058852 
L 113.982213 354.96573 
L 102.832751 334.870246 
L 94.390911 313.477041 
L 88.75282 291.783157 
L 85.927343 270.167714 
L 85.902032 248.622478 
L 88.676726 227.009153 
L 94.263847 205.314866 
L 102.65541 183.90949 
L 113.757616 163.777406 
L 127.302546 146.61131 
L 142.766828 134.578459 
L 159.349047 129.653887 
L 176.05109 132.763257 
L 191.852158 143.313949 
L 205.894373 159.499836 
L 217.589248 179.124744 
L 226.616214 200.350686 
L 232.849721 222.030363 
L 236.268957 243.670874 
L 236.885792 265.219954 
L 234.704125 286.809722 
L 229.712573 308.500978 
L 221.910393 330.025979 
L 211.366362 350.545336 
L 198.303895 368.510651 
L 183.187603 381.813389 
L 166.763033 388.365327 
L 149.998937 386.95741 
L 133.927982 377.859908 
L 119.455019 362.682303 
L 107.228781 343.611311 
L 97.621964 322.603712 
L 90.793709 300.959461 
L 86.780037 279.295292 
L 85.571476 257.735553 
L 87.160716 236.165703 
L 91.556943 214.488543 
L 98.766978 192.88087 
L 108.743173 172.043927 
L 121.30257 153.375815 
L 136.037329 138.899934 
L 152.260321 130.77713 
L 169.039551 130.470926 
L 185.339447 138.040213 
L 200.21409 152.108647 
L 212.955274 170.536706 
L 223.135166 191.267838 
L 230.556841 212.849836 
L 235.165543 234.53303 
L 236.966206 256.109459 
L 235.968916 277.664649 
L 232.167521 299.320726 
L 225.551466 320.980402 
L 216.150949 342.07225 
L 204.112641 361.350915 
L 189.790256 376.900079 
L 173.811056 386.525471 
L 157.063747 388.543028 
L 140.577775 382.566215 
L 140.577775 382.566215 
" style="fill:none;stroke:#0000ff;stroke-linecap:square;"/>
   </g>
   <g id="line2d_11">
    <defs>
     <path d="M 0 3 
C 0.795609 3 1.55874 2.683901 2.12132 2.12132 
C 2.683901 1.55874 3 0.795609 3 0 
C 3 -0.795609 2.683901 -1.55874 2.12132 -2.12132 
C 1.55874 -2.683901 0.795609 -3 0 -3 
C -0.795609 -3 -1.55874 -2.683901 -2.12132 -2.12132 
C -2.683901 -1.55874 -3 -0.795609 -3 0 
C -3 0.795609 -2.683901 1.55874 -2.12132 2.12132 
C -1.55874 2.683901 -0.795609 3 0 3 
z
" id="mebc252b27e" style="stroke:#000000;stroke-width:0.5;"/>
    </defs>
    <g clip-path="url(#p934a4e44c1)">
     <use style="stroke:#000000;stroke-width:0.5;" x="161.28" xlink:href="#mebc252b27e" y="129.6"/>
    </g>
   </g>
   <g id="line2d_12">
    <defs>
     <path d="M -3 3 
L 3 3 
L 3 -3 
L -3 -3 
z
" id="mc799e6909e" style="stroke:#000000;stroke-linejoin:miter;stroke-width:0.5;"/>
    </defs>
    <g clip-path="url(#p934a4e44c1)">
     <use style="fill:#0000ff;stroke:#000000;stroke-linejoin:miter;stroke-width:0.5;" x="140.577775019" xlink:href="#mc799e6909e" y="382.566214966"/>
    </g>
   </g>
   <g id="line2d_13">
    <path clip-path="url(#p934a4e44c1)" d="M 161.28 86.4 
L 183.479797 91.714527 
L 204.367239 106.135904 
L 222.982199 126.050734 
L 238.866087 147.644557 
L 251.993215 168.181893 
L 262.605808 186.243238 
L 271.062192 201.384959 
L 282.979138 223.570505 
L 297.400516 251.228191 
L 301.52634 259.159233 
L 301.579288 259.079987 
L 304.133263 254.143988 
L 316.652751 230.052152 
L 326.429217 211.612943 
L 333.410004 198.782803 
L 342.23954 183.093281 
L 353.295645 164.513526 
L 366.924146 143.634949 
L 383.33017 122.105706 
L 402.418804 102.907904 
L 423.637908 89.948114 
L 445.942769 86.589484 
L 467.990792 93.803821 
L 488.512774 109.555145 
L 506.638366 130.050683 
L 521.999731 151.613559 
L 534.634341 171.761442 
L 544.816151 189.290208 
L 552.912591 203.888647 
L 564.303515 225.168601 
L 577 249.523585 
L 577 249.523585 
" style="fill:none;stroke:#0000ff;stroke-linecap:square;"/>
   </g>
   <g id="line2d_14">
    <defs>
     <path d="M 0 3 
C 0.795609 3 1.55874 2.683901 2.12132 2.12132 
C 2.683901 1.55874 3 0.795609 3 0 
C 3 -0.795609 2.683901 -1.55874 2.12132 -2.12132 
C 1.55874 -2.683901 0.795609 -3 0 -3 
C -0.795609 -3 -1.55874 -2.683901 -2.12132 -2.12132 
C -2.683901 -1.55874 -3 -0.795609 -3 0 
C -3 0.795609 -2.683901 1.55874 -2.12132 2.12132 
C -1.55874 2.683901 -0.795609 3 0 3 
z
" id="m6d506f9d0a" style="stroke:#000000;stroke-width:0.5;"/>
    </defs>
    <g clip-path="url(#p934a4e44c1)">
     <use style="fill:#008000;stroke:#000000;stroke-width:0.5;" x="161.28" xlink:href="#m6d506f9d0a" y="86.4"/>
    </g>
   </g>
   <g id="line2d_15">
    <defs>
     <path d="M -3 3 
L 3 3 
L 3 -3 
L -3 -3 
z
" id="me57990a283" style="stroke:#000000;stroke-linejoin:miter;stroke-width:0.5;"/>
    </defs>
    <g clip-path="url(#p934a4e44c1)">
     <use style="fill:#ff0000;stroke:#000000;stroke-linejoin:miter;stroke-width:0.5;" x="862.462249443" xlink:href="#me57990a283" y="259.220386528"/>
    </g>
   </g>
   <g id="line2d_16">
    <path clip-path="url(#p934a4e44c1)" d="M 161.28 43.2 
L 189.031776 49.765923 
L 215.198497 66.776954 
L 238.80316 88.139972 
L 259.683102 107.91505 
L 278.321737 122.206161 
L 295.573257 129.090534 
L 312.453016 127.892552 
L 330.011097 118.71848 
L 349.231564 102.540971 
L 370.885746 81.792306 
L 395.295837 61.02737 
L 422.065244 46.535535 
L 449.995284 43.78703 
L 477.427445 53.922437 
L 502.905807 72.8994 
L 525.692392 94.335133 
L 545.841813 112.801966 
L 563.973782 125.046116 
L 577 128.517707 
L 577 128.517707 
" style="fill:none;stroke:#0000ff;stroke-linecap:square;"/>
   </g>
   <g id="line2d_17">
    <defs>
     <path d="M 0 3 
C 0.795609 3 1.55874 2.683901 2.12132 2.12132 
C 2.683901 1.55874 3 0.795609 3 0 
C 3 -0.795609 2.683901 -1.55874 2.12132 -2.12132 
C 1.55874 -2.683901 0.795609 -3 0 -3 
C -0.795609 -3 -1.55874 -2.683901 -2.12132 -2.12132 
C -2.683901 -1.55874 -3 -0.795609 -3 0 
C -3 0.795609 -2.683901 1.55874 -2.12132 2.12132 
C -1.55874 2.683901 -0.795609 3 0 3 
z
" id="m96f633a97b" style="stroke:#000000;stroke-width:0.5;"/>
    </defs>
    <g clip-path="url(#p934a4e44c1)">
     <use style="fill:#00bfbf;stroke:#000000;stroke-width:0.5;" x="161.28" xlink:href="#m96f633a97b" y="43.2"/>
    </g>
   </g>
   <g id="line2d_18">
    <defs>
     <path d="M -3 3 
L 3 3 
L 3 -3 
L -3 -3 
z
" id="mefcfc84506" style="stroke:#000000;stroke-linejoin:miter;stroke-width:0.5;"/>
    </defs>
    <g clip-path="url(#p934a4e44c1)">
     <use style="fill:#bf00bf;stroke:#000000;stroke-linejoin:miter;stroke-width:0.5;" x="4544.83643202" xlink:href="#mefcfc84506" y="112.856032907"/>
    </g>
   </g>
   <g id="patch_3">
    <path d="M 518.4 388.8 
L 518.4 43.2 
" style="fill:none;stroke:#000000;stroke-linecap:square;stroke-linejoin:miter;"/>
   </g>
   <g id="patch_4">
    <path d="M 72 388.8 
L 72 43.2 
" style="fill:none;stroke:#000000;stroke-linecap:square;stroke-linejoin:miter;"/>
   </g>
   <g id="patch_5">
    <path d="M 72 43.2 
L 518.4 43.2 
" style="fill:none;stroke:#000000;stroke-linecap:square;stroke-linejoin:miter;"/>
   </g>
   <g id="patch_6">
    <path d="M 72 388.8 
L 518.4 388.8 
" style="fill:none;stroke:#000000;stroke-linecap:square;stroke-linejoin:miter;"/>
   </g>
   <g id="matplotlib.axis_1">
    <g id="xtick_1">
     <g id="line2d_19">
      <defs>
       <path d="M 0 0 
L 0 -4 
" id="mf53c00d745" style="stroke:#000000;stroke-width:0.5;"/>
      </defs>
      <g>
       <use style="stroke:#000000;stroke-width:0.5;" x="72.0" xlink:href="#mf53c00d745" y="388.8"/>
      </g>
     </g>
     <g id="line2d_20">
      <defs>
       <path d="M 0 0 
L 0 4 
" id="m1fe3b44ac5" style="stroke:#000000;stroke-width:0.5;"/>
      </defs>
      <g>
       <use style="stroke:#000000;stroke-width:0.5;" x="72.0" xlink:href="#m1fe3b44ac5" y="43.2"/>
      </g>
     </g>
     <g id="text_1">
      <!-- −2 -->
      <defs>
       <path d="M 10.59375 35.5 
L 73.1875 35.5 
L 73.1875 27.203125 
L 10.59375 27.203125 
z
" id="BitstreamVeraSans-Roman-2212"/>
       <path d="M 19.1875 8.296875 
L 53.609375 8.296875 
L 53.609375 0 
L 7.328125 0 
L 7.328125 8.296875 
Q 12.9375 14.109375 22.625 23.890625 
Q 32.328125 33.6875 34.8125 36.53125 
Q 39.546875 41.84375 41.421875 45.53125 
Q 43.3125 49.21875 43.3125 52.78125 
Q 43.3125 58.59375 39.234375 62.25 
Q 35.15625 65.921875 28.609375 65.921875 
Q 23.96875 65.921875 18.8125 64.3125 
Q 13.671875 62.703125 7.8125 59.421875 
L 7.8125 69.390625 
Q 13.765625 71.78125 18.9375 73 
Q 24.125 74.21875 28.421875 74.21875 
Q 39.75 74.21875 46.484375 68.546875 
Q 53.21875 62.890625 53.21875 53.421875 
Q 53.21875 48.921875 51.53125 44.890625 
Q 49.859375 40.875 45.40625 35.40625 
Q 44.1875 33.984375 37.640625 27.21875 
Q 31.109375 20.453125 19.1875 8.296875 
" id="BitstreamVeraSans-Roman-32"/>
      </defs>
      <g transform="translate(63.1546875 401.918125)scale(0.12 -0.12)">
       <use xlink:href="#BitstreamVeraSans-Roman-2212"/>
       <use x="83.7890625" xlink:href="#BitstreamVeraSans-Roman-32"/>
      </g>
     </g>
    </g>
    <g id="xtick_2">
     <g id="line2d_21">
      <g>
       <use style="stroke:#000000;stroke-width:0.5;" x="161.28" xlink:href="#mf53c00d745" y="388.8"/>
      </g>
     </g>
     <g id="line2d_22">
      <g>
       <use style="stroke:#000000;stroke-width:0.5;" x="161.28" xlink:href="#m1fe3b44ac5" y="43.2"/>
      </g>
     </g>
     <g id="text_2">
      <!-- 0 -->
      <defs>
       <path d="M 31.78125 66.40625 
Q 24.171875 66.40625 20.328125 58.90625 
Q 16.5 51.421875 16.5 36.375 
Q 16.5 21.390625 20.328125 13.890625 
Q 24.171875 6.390625 31.78125 6.390625 
Q 39.453125 6.390625 43.28125 13.890625 
Q 47.125 21.390625 47.125 36.375 
Q 47.125 51.421875 43.28125 58.90625 
Q 39.453125 66.40625 31.78125 66.40625 
M 31.78125 74.21875 
Q 44.046875 74.21875 50.515625 64.515625 
Q 56.984375 54.828125 56.984375 36.375 
Q 56.984375 17.96875 50.515625 8.265625 
Q 44.046875 -1.421875 31.78125 -1.421875 
Q 19.53125 -1.421875 13.0625 8.265625 
Q 6.59375 17.96875 6.59375 36.375 
Q 6.59375 54.828125 13.0625 64.515625 
Q 19.53125 74.21875 31.78125 74.21875 
" id="BitstreamVeraSans-Roman-30"/>
      </defs>
      <g transform="translate(157.4625 401.918125)scale(0.12 -0.12)">
       <use xlink:href="#BitstreamVeraSans-Roman-30"/>
      </g>
     </g>
    </g>
    <g id="xtick_3">
     <g id="line2d_23">
      <g>
       <use style="stroke:#000000;stroke-width:0.5;" x="250.56" xlink:href="#mf53c00d745" y="388.8"/>
      </g>
     </g>
     <g id="line2d_24">
      <g>
       <use style="stroke:#000000;stroke-width:0.5;" x="250.56" xlink:href="#m1fe3b44ac5" y="43.2"/>
      </g>
     </g>
     <g id="text_3">
      <!-- 2 -->
      <g transform="translate(246.7425 401.918125)scale(0.12 -0.12)">
       <use xlink:href="#BitstreamVeraSans-Roman-32"/>
      </g>
     </g>
    </g>
    <g id="xtick_4">
     <g id="line2d_25">
      <g>
       <use style="stroke:#000000;stroke-width:0.5;" x="339.84" xlink:href="#mf53c00d745" y="388.8"/>
      </g>
     </g>
     <g id="line2d_26">
      <g>
       <use style="stroke:#000000;stroke-width:0.5;" x="339.84" xlink:href="#m1fe3b44ac5" y="43.2"/>
      </g>
     </g>
     <g id="text_4">
      <!-- 4 -->
      <defs>
       <path d="M 37.796875 64.3125 
L 12.890625 25.390625 
L 37.796875 25.390625 
z
M 35.203125 72.90625 
L 47.609375 72.90625 
L 47.609375 25.390625 
L 58.015625 25.390625 
L 58.015625 17.1875 
L 47.609375 17.1875 
L 47.609375 0 
L 37.796875 0 
L 37.796875 17.1875 
L 4.890625 17.1875 
L 4.890625 26.703125 
z
" id="BitstreamVeraSans-Roman-34"/>
      </defs>
      <g transform="translate(336.0225 401.918125)scale(0.12 -0.12)">
       <use xlink:href="#BitstreamVeraSans-Roman-34"/>
      </g>
     </g>
    </g>
    <g id="xtick_5">
     <g id="line2d_27">
      <g>
       <use style="stroke:#000000;stroke-width:0.5;" x="429.12" xlink:href="#mf53c00d745" y="388.8"/>
      </g>
     </g>
     <g id="line2d_28">
      <g>
       <use style="stroke:#000000;stroke-width:0.5;" x="429.12" xlink:href="#m1fe3b44ac5" y="43.2"/>
      </g>
     </g>
     <g id="text_5">
      <!-- 6 -->
      <defs>
       <path d="M 33.015625 40.375 
Q 26.375 40.375 22.484375 35.828125 
Q 18.609375 31.296875 18.609375 23.390625 
Q 18.609375 15.53125 22.484375 10.953125 
Q 26.375 6.390625 33.015625 6.390625 
Q 39.65625 6.390625 43.53125 10.953125 
Q 47.40625 15.53125 47.40625 23.390625 
Q 47.40625 31.296875 43.53125 35.828125 
Q 39.65625 40.375 33.015625 40.375 
M 52.59375 71.296875 
L 52.59375 62.3125 
Q 48.875 64.0625 45.09375 64.984375 
Q 41.3125 65.921875 37.59375 65.921875 
Q 27.828125 65.921875 22.671875 59.328125 
Q 17.53125 52.734375 16.796875 39.40625 
Q 19.671875 43.65625 24.015625 45.921875 
Q 28.375 48.1875 33.59375 48.1875 
Q 44.578125 48.1875 50.953125 41.515625 
Q 57.328125 34.859375 57.328125 23.390625 
Q 57.328125 12.15625 50.6875 5.359375 
Q 44.046875 -1.421875 33.015625 -1.421875 
Q 20.359375 -1.421875 13.671875 8.265625 
Q 6.984375 17.96875 6.984375 36.375 
Q 6.984375 53.65625 15.1875 63.9375 
Q 23.390625 74.21875 37.203125 74.21875 
Q 40.921875 74.21875 44.703125 73.484375 
Q 48.484375 72.75 52.59375 71.296875 
" id="BitstreamVeraSans-Roman-36"/>
      </defs>
      <g transform="translate(425.3025 401.918125)scale(0.12 -0.12)">
       <use xlink:href="#BitstreamVeraSans-Roman-36"/>
      </g>
     </g>
    </g>
    <g id="xtick_6">
     <g id="line2d_29">
      <g>
       <use style="stroke:#000000;stroke-width:0.5;" x="518.4" xlink:href="#mf53c00d745" y="388.8"/>
      </g>
     </g>
     <g id="line2d_30">
      <g>
       <use style="stroke:#000000;stroke-width:0.5;" x="518.4" xlink:href="#m1fe3b44ac5" y="43.2"/>
      </g>
     </g>
     <g id="text_6">
      <!-- 8 -->
      <defs>
       <path d="M 31.78125 34.625 
Q 24.75 34.625 20.71875 30.859375 
Q 16.703125 27.09375 16.703125 20.515625 
Q 16.703125 13.921875 20.71875 10.15625 
Q 24.75 6.390625 31.78125 6.390625 
Q 38.8125 6.390625 42.859375 10.171875 
Q 46.921875 13.96875 46.921875 20.515625 
Q 46.921875 27.09375 42.890625 30.859375 
Q 38.875 34.625 31.78125 34.625 
M 21.921875 38.8125 
Q 15.578125 40.375 12.03125 44.71875 
Q 8.5 49.078125 8.5 55.328125 
Q 8.5 64.0625 14.71875 69.140625 
Q 20.953125 74.21875 31.78125 74.21875 
Q 42.671875 74.21875 48.875 69.140625 
Q 55.078125 64.0625 55.078125 55.328125 
Q 55.078125 49.078125 51.53125 44.71875 
Q 48 40.375 41.703125 38.8125 
Q 48.828125 37.15625 52.796875 32.3125 
Q 56.78125 27.484375 56.78125 20.515625 
Q 56.78125 9.90625 50.3125 4.234375 
Q 43.84375 -1.421875 31.78125 -1.421875 
Q 19.734375 -1.421875 13.25 4.234375 
Q 6.78125 9.90625 6.78125 20.515625 
Q 6.78125 27.484375 10.78125 32.3125 
Q 14.796875 37.15625 21.921875 38.8125 
M 18.3125 54.390625 
Q 18.3125 48.734375 21.84375 45.5625 
Q 25.390625 42.390625 31.78125 42.390625 
Q 38.140625 42.390625 41.71875 45.5625 
Q 45.3125 48.734375 45.3125 54.390625 
Q 45.3125 60.0625 41.71875 63.234375 
Q 38.140625 66.40625 31.78125 66.40625 
Q 25.390625 66.40625 21.84375 63.234375 
Q 18.3125 60.0625 18.3125 54.390625 
" id="BitstreamVeraSans-Roman-38"/>
      </defs>
      <g transform="translate(514.5825 401.918125)scale(0.12 -0.12)">
       <use xlink:href="#BitstreamVeraSans-Roman-38"/>
      </g>
     </g>
    </g>
   </g>
   <g id="matplotlib.axis_2">
    <g id="ytick_1">
     <g id="line2d_31">
      <defs>
       <path d="M 0 0 
L 4 0 
" id="mc9f74156cc" style="stroke:#000000;stroke-width:0.5;"/>
      </defs>
      <g>
       <use style="stroke:#000000;stroke-width:0.5;" x="72.0" xlink:href="#mc9f74156cc" y="388.8"/>
      </g>
     </g>
     <g id="line2d_32">
      <defs>
       <path d="M 0 0 
L -4 0 
" id="ma4a9be427d" style="stroke:#000000;stroke-width:0.5;"/>
      </defs>
      <g>
       <use style="stroke:#000000;stroke-width:0.5;" x="518.4" xlink:href="#ma4a9be427d" y="388.8"/>
      </g>
     </g>
     <g id="text_7">
      <!-- −1.5 -->
      <defs>
       <path d="M 10.6875 12.40625 
L 21 12.40625 
L 21 0 
L 10.6875 0 
z
" id="BitstreamVeraSans-Roman-2e"/>
       <path d="M 12.40625 8.296875 
L 28.515625 8.296875 
L 28.515625 63.921875 
L 10.984375 60.40625 
L 10.984375 69.390625 
L 28.421875 72.90625 
L 38.28125 72.90625 
L 38.28125 8.296875 
L 54.390625 8.296875 
L 54.390625 0 
L 12.40625 0 
z
" id="BitstreamVeraSans-Roman-31"/>
       <path d="M 10.796875 72.90625 
L 49.515625 72.90625 
L 49.515625 64.59375 
L 19.828125 64.59375 
L 19.828125 46.734375 
Q 21.96875 47.46875 24.109375 47.828125 
Q 26.265625 48.1875 28.421875 48.1875 
Q 40.625 48.1875 47.75 41.5 
Q 54.890625 34.8125 54.890625 23.390625 
Q 54.890625 11.625 47.5625 5.09375 
Q 40.234375 -1.421875 26.90625 -1.421875 
Q 22.3125 -1.421875 17.546875 -0.640625 
Q 12.796875 0.140625 7.71875 1.703125 
L 7.71875 11.625 
Q 12.109375 9.234375 16.796875 8.0625 
Q 21.484375 6.890625 26.703125 6.890625 
Q 35.15625 6.890625 40.078125 11.328125 
Q 45.015625 15.765625 45.015625 23.390625 
Q 45.015625 31 40.078125 35.4375 
Q 35.15625 39.890625 26.703125 39.890625 
Q 22.75 39.890625 18.8125 39.015625 
Q 14.890625 38.140625 10.796875 36.28125 
z
" id="BitstreamVeraSans-Roman-35"/>
      </defs>
      <g transform="translate(38.860625 392.11125)scale(0.12 -0.12)">
       <use xlink:href="#BitstreamVeraSans-Roman-2212"/>
       <use x="83.7890625" xlink:href="#BitstreamVeraSans-Roman-31"/>
       <use x="147.412109375" xlink:href="#BitstreamVeraSans-Roman-2e"/>
       <use x="179.19921875" xlink:href="#BitstreamVeraSans-Roman-35"/>
      </g>
     </g>
    </g>
    <g id="ytick_2">
     <g id="line2d_33">
      <g>
       <use style="stroke:#000000;stroke-width:0.5;" x="72.0" xlink:href="#mc9f74156cc" y="345.6"/>
      </g>
     </g>
     <g id="line2d_34">
      <g>
       <use style="stroke:#000000;stroke-width:0.5;" x="518.4" xlink:href="#ma4a9be427d" y="345.6"/>
      </g>
     </g>
     <g id="text_8">
      <!-- −1.0 -->
      <g transform="translate(38.860625 348.91125)scale(0.12 -0.12)">
       <use xlink:href="#BitstreamVeraSans-Roman-2212"/>
       <use x="83.7890625" xlink:href="#BitstreamVeraSans-Roman-31"/>
       <use x="147.412109375" xlink:href="#BitstreamVeraSans-Roman-2e"/>
       <use x="179.19921875" xlink:href="#BitstreamVeraSans-Roman-30"/>
      </g>
     </g>
    </g>
    <g id="ytick_3">
     <g id="line2d_35">
      <g>
       <use style="stroke:#000000;stroke-width:0.5;" x="72.0" xlink:href="#mc9f74156cc" y="302.4"/>
      </g>
     </g>
     <g id="line2d_36">
      <g>
       <use style="stroke:#000000;stroke-width:0.5;" x="518.4" xlink:href="#ma4a9be427d" y="302.4"/>
      </g>
     </g>
     <g id="text_9">
      <!-- −0.5 -->
      <g transform="translate(38.860625 305.71125)scale(0.12 -0.12)">
       <use xlink:href="#BitstreamVeraSans-Roman-2212"/>
       <use x="83.7890625" xlink:href="#BitstreamVeraSans-Roman-30"/>
       <use x="147.412109375" xlink:href="#BitstreamVeraSans-Roman-2e"/>
       <use x="179.19921875" xlink:href="#BitstreamVeraSans-Roman-35"/>
      </g>
     </g>
    </g>
    <g id="ytick_4">
     <g id="line2d_37">
      <g>
       <use style="stroke:#000000;stroke-width:0.5;" x="72.0" xlink:href="#mc9f74156cc" y="259.2"/>
      </g>
     </g>
     <g id="line2d_38">
      <g>
       <use style="stroke:#000000;stroke-width:0.5;" x="518.4" xlink:href="#ma4a9be427d" y="259.2"/>
      </g>
     </g>
     <g id="text_10">
      <!-- 0.0 -->
      <g transform="translate(48.91625 262.51125)scale(0.12 -0.12)">
       <use xlink:href="#BitstreamVeraSans-Roman-30"/>
       <use x="63.623046875" xlink:href="#BitstreamVeraSans-Roman-2e"/>
       <use x="95.41015625" xlink:href="#BitstreamVeraSans-Roman-30"/>
      </g>
     </g>
    </g>
    <g id="ytick_5">
     <g id="line2d_39">
      <g>
       <use style="stroke:#000000;stroke-width:0.5;" x="72.0" xlink:href="#mc9f74156cc" y="216.0"/>
      </g>
     </g>
     <g id="line2d_40">
      <g>
       <use style="stroke:#000000;stroke-width:0.5;" x="518.4" xlink:href="#ma4a9be427d" y="216.0"/>
      </g>
     </g>
     <g id="text_11">
      <!-- 0.5 -->
      <g transform="translate(48.91625 219.31125)scale(0.12 -0.12)">
       <use xlink:href="#BitstreamVeraSans-Roman-30"/>
       <use x="63.623046875" xlink:href="#BitstreamVeraSans-Roman-2e"/>
       <use x="95.41015625" xlink:href="#BitstreamVeraSans-Roman-35"/>
      </g>
     </g>
    </g>
    <g id="ytick_6">
     <g id="line2d_41">
      <g>
       <use style="stroke:#000000;stroke-width:0.5;" x="72.0" xlink:href="#mc9f74156cc" y="172.8"/>
      </g>
     </g>
     <g id="line2d_42">
      <g>
       <use style="stroke:#000000;stroke-width:0.5;" x="518.4" xlink:href="#ma4a9be427d" y="172.8"/>
      </g>
     </g>
     <g id="text_12">
      <!-- 1.0 -->
      <g transform="translate(48.91625 176.11125)scale(0.12 -0.12)">
       <use xlink:href="#BitstreamVeraSans-Roman-31"/>
       <use x="63.623046875" xlink:href="#BitstreamVeraSans-Roman-2e"/>
       <use x="95.41015625" xlink:href="#BitstreamVeraSans-Roman-30"/>
      </g>
     </g>
    </g>
    <g id="ytick_7">
     <g id="line2d_43">
      <g>
       <use style="stroke:#000000;stroke-width:0.5;" x="72.0" xlink:href="#mc9f74156cc" y="129.6"/>
      </g>
     </g>
     <g id="line2d_44">
      <g>
       <use style="stroke:#000000;stroke-width:0.5;" x="518.4" xlink:href="#ma4a9be427d" y="129.6"/>
      </g>
     </g>
     <g id="text_13">
      <!-- 1.5 -->
      <g transform="translate(48.91625 132.91125)scale(0.12 -0.12)">
       <use xlink:href="#BitstreamVeraSans-Roman-31"/>
       <use x="63.623046875" xlink:href="#BitstreamVeraSans-Roman-2e"/>
       <use x="95.41015625" xlink:href="#BitstreamVeraSans-Roman-35"/>
      </g>
     </g>
    </g>
    <g id="ytick_8">
     <g id="line2d_45">
      <g>
       <use style="stroke:#000000;stroke-width:0.5;" x="72.0" xlink:href="#mc9f74156cc" y="86.4"/>
      </g>
     </g>
     <g id="line2d_46">
      <g>
       <use style="stroke:#000000;stroke-width:0.5;" x="518.4" xlink:href="#ma4a9be427d" y="86.4"/>
      </g>
     </g>
     <g id="text_14">
      <!-- 2.0 -->
      <g transform="translate(48.91625 89.71125)scale(0.12 -0.12)">
       <use xlink:href="#BitstreamVeraSans-Roman-32"/>
       <use x="63.623046875" xlink:href="#BitstreamVeraSans-Roman-2e"/>
       <use x="95.41015625" xlink:href="#BitstreamVeraSans-Roman-30"/>
      </g>
     </g>
    </g>
    <g id="ytick_9">
     <g id="line2d_47">
      <g>
       <use style="stroke:#000000;stroke-width:0.5;" x="72.0" xlink:href="#mc9f74156cc" y="43.2"/>
      </g>
     </g>
     <g id="line2d_48">
      <g>
       <use style="stroke:#000000;stroke-width:0.5;" x="518.4" xlink:href="#ma4a9be427d" y="43.2"/>
      </g>
     </g>
     <g id="text_15">
      <!-- 2.5 -->
      <g transform="translate(48.91625 46.51125)scale(0.12 -0.12)">
       <use xlink:href="#BitstreamVeraSans-Roman-32"/>
       <use x="63.623046875" xlink:href="#BitstreamVeraSans-Roman-2e"/>
       <use x="95.41015625" xlink:href="#BitstreamVeraSans-Roman-35"/>
      </g>
     </g>
    </g>
   </g>
  </g>
 </g>
 <defs>
  <clipPath id="p934a4e44c1">
   <rect height="345.6" width="446.4" x="72.0" y="43.2"/>
  </clipPath>
 </defs>
</svg>
